{"asset":{"version":"2.0","generator":"Unity 2022.3.28f1 glTFast 6.14.1"},"nodes":[{"name":"BezierCircle","mesh":0,"translation":[1,1,-1],"rotation":[-0.706984758,0,0,0.7072288],"scale":[567.966064,605.122131,100]},{"name":"BezierCircle_001","mesh":1,"translation":[1,1,-1],"rotation":[-0.444635361,0,0,0.8957117],"scale":[567.966064,605.122131,100]},{"name":"BezierCircle_002","mesh":2,"translation":[1,1,-1],"rotation":[-0.7107997,8.659442E-17,8.659442E-17,0.7033945],"scale":[567.966064,605.122131,100]},{"name":"BezierCircle_003","mesh":3,"translation":[1,1,-1],"rotation":[-0.5785697,0,0,0.815632939],"scale":[567.966064,605.1221,100]},{"name":"Sphere","mesh":4,"translation":[1,0.337652266,-0.868347466],"rotation":[-0.558668852,-0.319946051,-0.188731626,0.7415552],"scale":[500,500,500]},{"name":"Sphere_001","mesh":5,"translation":[1,0.337652266,-0.868347466],"rotation":[-0.558668852,-0.319946051,-0.188731626,0.7415552],"scale":[507.56,507.56,507.56]},{"name":"EARTH_TECH","children":[0,1,2,3,4,5],"translation":[0.036,0.6179999,-0.0579999946],"rotation":[0.5,0.5,0.5,0.5],"scale":[0.04,0.04,0.04]},{"name":"ImageTargetPreview","mesh":6},{"name":"ImageTargetPreviewRoot","children":[7]},{"name":"ImageTargetPreview","mesh":7},{"name":"ImageTargetPreviewRoot","children":[9]},{"name":"ImageTargetPreview","mesh":8},{"name":"ImageTargetPreviewRoot","children":[11]},{"name":"17","children":[6,8,10,12],"translation":[-27.7,0,-4.11]}],"extensionsRequired":["KHR_materials_unlit"],"extensionsUsed":["KHR_materials_unlit"],"buffers":[{"uri":"17.bin","byteLength":871380}],"bufferViews":[{"buffer":0,"byteLength":31104,"target":34963},{"buffer":0,"byteLength":31104,"byteOffset":31104,"target":34963},{"buffer":0,"byteLength":31104,"byteOffset":62208,"target":34963},{"buffer":0,"byteLength":31104,"byteOffset":93312,"target":34963},{"buffer":0,"byteLength":5760,"byteOffset":124416,"target":34963},{"buffer":0,"byteLength":47616,"byteOffset":130176,"target":34963},{"buffer":0,"byteLength":12,"byteOffset":177792,"target":34963},{"buffer":0,"byteLength":12,"byteOffset":177804,"target":34963},{"buffer":0,"byteLength":12,"byteOffset":177816,"target":34963},{"buffer":0,"byteLength":129360,"byteOffset":177828,"byteStride":48,"target":34962},{"buffer":0,"byteLength":128,"byteOffset":307188,"byteStride":32,"target":34962},{"buffer":0,"byteLength":128,"byteOffset":307316,"byteStride":32,"target":34962},{"buffer":0,"byteLength":128,"byteOffset":307444,"byteStride":32,"target":34962},{"buffer":0,"byteLength":129360,"byteOffset":307572,"byteStride":48,"target":34962},{"buffer":0,"byteLength":129360,"byteOffset":436932,"byteStride":48,"target":34962},{"buffer":0,"byteLength":129360,"byteOffset":566292,"byteStride":48,"target":34962},{"buffer":0,"byteLength":26832,"byteOffset":695652,"byteStride":48,"target":34962},{"buffer":0,"byteLength":148896,"byteOffset":722484,"byteStride":48,"target":34962}],"accessors":[{"bufferView":13,"componentType":5126,"count":2695,"type":"VEC3","max":[0.0203,0.0202999972,0.0002994929],"min":[-0.0203,-0.0203,-0.000299493142]},{"bufferView":13,"componentType":5126,"count":2695,"type":"VEC3","byteOffset":12},{"bufferView":13,"componentType":5126,"count":2695,"type":"VEC4","byteOffset":24},{"bufferView":13,"componentType":5126,"count":2695,"type":"VEC2","byteOffset":40},{"bufferView":0,"componentType":5123,"count":15552,"type":"SCALAR"},{"bufferView":14,"componentType":5126,"count":2695,"type":"VEC3","max":[0.0203,0.0202999972,0.0002994929],"min":[-0.0203,-0.0203,-0.000299493142]},{"bufferView":14,"componentType":5126,"count":2695,"type":"VEC3","byteOffset":12},{"bufferView":14,"componentType":5126,"count":2695,"type":"VEC4","byteOffset":24},{"bufferView":14,"componentType":5126,"count":2695,"type":"VEC2","byteOffset":40},{"bufferView":1,"componentType":5123,"count":15552,"type":"SCALAR"},{"bufferView":15,"componentType":5126,"count":2695,"type":"VEC3","max":[0.0203,0.0202999972,0.0002994929],"min":[-0.0203,-0.0203,-0.000299493142]},{"bufferView":15,"componentType":5126,"count":2695,"type":"VEC3","byteOffset":12},{"bufferView":15,"componentType":5126,"count":2695,"type":"VEC4","byteOffset":24},{"bufferView":15,"componentType":5126,"count":2695,"type":"VEC2","byteOffset":40},{"bufferView":2,"componentType":5123,"count":15552,"type":"SCALAR"},{"bufferView":9,"componentType":5126,"count":2695,"type":"VEC3","max":[0.0203,0.0202999972,0.0002994929],"min":[-0.0203,-0.0203,-0.000299493142]},{"bufferView":9,"componentType":5126,"count":2695,"type":"VEC3","byteOffset":12},{"bufferView":9,"componentType":5126,"count":2695,"type":"VEC4","byteOffset":24},{"bufferView":9,"componentType":5126,"count":2695,"type":"VEC2","byteOffset":40},{"bufferView":3,"componentType":5123,"count":15552,"type":"SCALAR"},{"bufferView":16,"componentType":5126,"count":559,"type":"VEC3","max":[0.009999998,0.009999987,0.01],"min":[-0.00999999,-0.009999994,-0.01]},{"bufferView":16,"componentType":5126,"count":559,"type":"VEC3","byteOffset":12},{"bufferView":16,"componentType":5126,"count":559,"type":"VEC4","byteOffset":24},{"bufferView":16,"componentType":5126,"count":559,"type":"VEC2","byteOffset":40},{"bufferView":4,"componentType":5123,"count":2880,"type":"SCALAR"},{"bufferView":17,"componentType":5126,"count":3102,"type":"VEC3","max":[0.009999998,0.009999987,0.01],"min":[-0.00999999,-0.009999994,-0.01]},{"bufferView":17,"componentType":5126,"count":3102,"type":"VEC3","byteOffset":12},{"bufferView":17,"componentType":5126,"count":3102,"type":"VEC4","byteOffset":24},{"bufferView":17,"componentType":5126,"count":3102,"type":"VEC2","byteOffset":40},{"bufferView":5,"componentType":5123,"count":23808,"type":"SCALAR"},{"bufferView":10,"componentType":5126,"count":4,"type":"VEC3","max":[0.5,0,0.5],"min":[-0.5,0,-0.5]},{"bufferView":10,"componentType":5126,"count":4,"type":"VEC3","byteOffset":12},{"bufferView":10,"componentType":5126,"count":4,"type":"VEC2","byteOffset":24},{"bufferView":6,"componentType":5123,"count":6,"type":"SCALAR"},{"bufferView":11,"componentType":5126,"count":4,"type":"VEC3","max":[0.5,0,0.5],"min":[-0.5,0,-0.5]},{"bufferView":11,"componentType":5126,"count":4,"type":"VEC3","byteOffset":12},{"bufferView":11,"componentType":5126,"count":4,"type":"VEC2","byteOffset":24},{"bufferView":7,"componentType":5123,"count":6,"type":"SCALAR"},{"bufferView":12,"componentType":5126,"count":4,"type":"VEC3","max":[0.5,0,0.5],"min":[-0.5,0,-0.5]},{"bufferView":12,"componentType":5126,"count":4,"type":"VEC3","byteOffset":12},{"bufferView":12,"componentType":5126,"count":4,"type":"VEC2","byteOffset":24},{"bufferView":8,"componentType":5123,"count":6,"type":"SCALAR"}],"images":[{"name":"17_scaled.jpg","uri":"17_scaled.jpg","mimeType":"image/jpeg"}],"materials":[{"name":"New_Material 1","pbrMetallicRoughness":{"baseColorFactor":[0,0.0822407156,1,1],"metallicFactor":0},"emissiveFactor":[0,0.102484532,0.6698113]},{"name":"Earth","pbrMetallicRoughness":{"baseColorFactor":[0.144249409,0.470614016,0.9786729,1],"metallicFactor":0}},{"name":"LatLong","pbrMetallicRoughness":{"baseColorFactor":[0,1.69771738E-06,1,1],"metallicFactor":0}},{"name":"17Material\n25530","pbrMetallicRoughness":{"metallicFactor":0,"baseColorTexture":{"index":0}},"extensions":{"KHR_materials_unlit":{}}},{"name":"17Material\n25530","pbrMetallicRoughness":{"metallicFactor":0,"baseColorTexture":{"index":0}},"extensions":{"KHR_materials_unlit":{}}},{"name":"17Material\n25530","pbrMetallicRoughness":{"metallicFactor":0,"baseColorTexture":{"index":0}},"extensions":{"KHR_materials_unlit":{}}}],"meshes":[{"name":"BezierCircle","primitives":[{"attributes":{"POSITION":0,"NORMAL":1,"TANGENT":2,"TEXCOORD_0":3},"indices":4,"material":0}]},{"name":"BezierCircle_001","primitives":[{"attributes":{"POSITION":5,"NORMAL":6,"TANGENT":7,"TEXCOORD_0":8},"indices":9,"material":0}]},{"name":"BezierCircle_002","primitives":[{"attributes":{"POSITION":10,"NORMAL":11,"TANGENT":12,"TEXCOORD_0":13},"indices":14,"material":0}]},{"name":"BezierCircle_003","primitives":[{"attributes":{"POSITION":15,"NORMAL":16,"TANGENT":17,"TEXCOORD_0":18},"indices":19,"material":0}]},{"name":"Sphere","primitives":[{"attributes":{"POSITION":20,"NORMAL":21,"TANGENT":22,"TEXCOORD_0":23},"indices":24,"material":1}]},{"name":"Sphere_001","primitives":[{"attributes":{"POSITION":25,"NORMAL":26,"TANGENT":27,"TEXCOORD_0":28},"indices":29,"material":2}]},{"name":"ImageTargetMesh25530","primitives":[{"attributes":{"POSITION":30,"NORMAL":31,"TEXCOORD_0":32},"indices":33,"material":3}]},{"name":"ImageTargetMesh25530","primitives":[{"attributes":{"POSITION":34,"NORMAL":35,"TEXCOORD_0":36},"indices":37,"material":4}]},{"name":"ImageTargetMesh25530","primitives":[{"attributes":{"POSITION":38,"NORMAL":39,"TEXCOORD_0":40},"indices":41,"material":5}]}],"scene":0,"scenes":[{"name":"17","nodes":[13]}],"textures":[{"source":0}]}