{"asset":{"version":"2.0","generator":"Unity 2022.3.28f1 glTFast 6.14.1"},"nodes":[{"name":"apple_tree__1_","mesh":0,"translation":[0.175233975,0.2709354,-0.459151715],"rotation":[0.451975,-0.5438002,-0.5438002,-0.451975],"scale":[1.81543076,1.81543124,1.81543088]},{"name":"Building","mesh":1,"translation":[0.257,0.3078192,0.388],"rotation":[-0.706984758,0,0,0.7072288],"scale":[100,100,100]},{"name":"cypress__1_","mesh":2,"translation":[0.234844834,0.245216787,-0.660663],"rotation":[0.495073974,-0.504878,-0.504878,-0.495073974],"scale":[1.81543112,1.815431,1.81543088]},{"name":"Pine__1_","mesh":3,"translation":[-0.82653296,0.0606479459,-0.462809622],"rotation":[0.495073974,-0.504878,-0.504878,-0.495073974],"scale":[1.81543112,2.21612453,2.21612453]},{"name":"Plane__2_","mesh":4,"translation":[-0.196853384,0.0494752154,0.0128375227],"rotation":[-0.7071068,0,0,0.7071068],"scale":[96.44478,79.2110443,72.02202]},{"name":"simple_tree__1_","mesh":5,"translation":[-0.7013768,0.175625265,-0.947959065],"rotation":[0.495073974,-0.504878,-0.504878,-0.495073974],"scale":[6.2708025,6.270802,6.27080154]},{"name":"simple_tree__2_","mesh":5,"translation":[0.6895641,0.214203164,-0.280505776],"rotation":[-0.698649168,0.109038539,0.109038539,0.698649168],"scale":[8.812405,8.812405,8.812404]},{"name":"Solar_Painel","mesh":6,"translation":[0.356793731,0.5918381,0.4803673],"rotation":[-0.5335526,0,0,0.8457669],"scale":[9.079069,9.079071,9.079071]},{"name":"tree__1_","mesh":7,"translation":[-0.192218035,0.03719863,-0.524426639],"rotation":[0.495073974,-0.504878,-0.504878,-0.495073974],"scale":[1.81543112,1.90891373,1.90891361]},{"name":"tree__2_","mesh":7,"translation":[-0.408009857,0.03719863,-0.10861773],"rotation":[0.139934137,-0.693122268,-0.693122268,-0.139934137],"scale":[1.81543076,1.90891337,1.90891349]},{"name":"Blade","mesh":8,"translation":[2.74,2.4355073,-1.08],"rotation":[0.926762164,-7.974966E-17,-7.974966E-17,-0.375648618]},{"name":"Blade1","mesh":9,"translation":[2.74,2.4355073,-1.08],"rotation":[0.926762164,-7.974966E-17,-7.974966E-17,-0.375648618]},{"name":"Blade2","mesh":10,"translation":[2.74,2.4355073,-1.08],"rotation":[0.926762164,-7.974966E-17,-7.974966E-17,-0.375648618]},{"name":"L_Housing","mesh":11,"translation":[-4.14,2.410934,-1.35],"rotation":[-5.33850866E-08,0.7071068,5.33850866E-08,0.7071068]},{"name":"Must","mesh":12,"translation":[2.74,2.45344543,-1.13],"rotation":[1,-6.123234E-17,-6.123234E-17,-7.54979E-08]},{"name":"R_Housing","mesh":13,"translation":[2.74,2.45344543,-1.13],"rotation":[1,-6.123234E-17,-6.123234E-17,-7.54979E-08]},{"name":"Rotor","mesh":14,"translation":[2.74,2.4355073,-1.08],"rotation":[0.926762164,-7.974966E-17,-7.974966E-17,-0.375648618]},{"name":"Shaft","mesh":15,"translation":[2.74,2.45344543,-1.13],"rotation":[1,-6.123234E-17,-6.123234E-17,-7.54979E-08]},{"name":"Washer","mesh":16,"translation":[2.74,2.45344543,-1.13],"rotation":[1,-6.123234E-17,-6.123234E-17,-7.54979E-08]},{"name":"WindTurbine_001","mesh":17,"translation":[2.74,2.45344543,-1.13],"rotation":[1,-6.123234E-17,-6.123234E-17,-7.54979E-08]},{"name":"WIND_TURBINE","children":[10,11,12,13,14,15,16,17,18,19],"translation":[-0.8263243,0.185418829,0.464948416],"rotation":[0,0.7071068,0,0.7071068],"scale":[0.07564296,0.0756429657,0.07564296]},{"name":"Blade1_2","mesh":9,"translation":[2.74,2.4355073,-1.08],"rotation":[0.926762164,-7.974966E-17,-7.974966E-17,-0.375648618]},{"name":"Blade2_2","mesh":10,"translation":[2.74,2.4355073,-1.08],"rotation":[0.926762164,-7.974966E-17,-7.974966E-17,-0.375648618]},{"name":"Blade_2","mesh":8,"translation":[2.74,2.4355073,-1.08],"rotation":[0.926762164,-7.974966E-17,-7.974966E-17,-0.375648618]},{"name":"L_Housing_2","mesh":11,"translation":[-4.14,2.410934,-1.35],"rotation":[-5.33850866E-08,0.7071068,5.33850866E-08,0.7071068]},{"name":"Must_2","mesh":12,"translation":[2.74,2.45344543,-1.13],"rotation":[1,-6.123234E-17,-6.123234E-17,-7.54979E-08]},{"name":"R_Housing_2","mesh":13,"translation":[2.74,2.45344543,-1.13],"rotation":[1,-6.123234E-17,-6.123234E-17,-7.54979E-08]},{"name":"Rotor_2","mesh":14,"translation":[2.74,2.4355073,-1.08],"rotation":[0.926762164,-7.974966E-17,-7.974966E-17,-0.375648618]},{"name":"Shaft_2","mesh":15,"translation":[2.74,2.45344543,-1.13],"rotation":[1,-6.123234E-17,-6.123234E-17,-7.54979E-08]},{"name":"Washer_2","mesh":16,"translation":[2.74,2.45344543,-1.13],"rotation":[1,-6.123234E-17,-6.123234E-17,-7.54979E-08]},{"name":"WindTurbine_001_2","mesh":17,"translation":[2.74,2.45344543,-1.13],"rotation":[1,-6.123234E-17,-6.123234E-17,-7.54979E-08]},{"name":"WIND_TURBINE__1_","children":[21,22,23,24,25,26,27,28,29,30],"translation":[-0.523752451,0.185418829,0.464948416],"rotation":[0,0.7071068,0,0.7071068],"scale":[0.07564296,0.0756429657,0.07564296]},{"name":"Blade1_1","mesh":9,"translation":[2.74,2.4355073,-1.08],"rotation":[0.926762164,-7.974966E-17,-7.974966E-17,-0.375648618]},{"name":"Blade2_1","mesh":10,"translation":[2.74,2.4355073,-1.08],"rotation":[0.926762164,-7.974966E-17,-7.974966E-17,-0.375648618]},{"name":"Blade_1","mesh":8,"translation":[2.74,2.4355073,-1.08],"rotation":[0.926762164,-7.974966E-17,-7.974966E-17,-0.375648618]},{"name":"L_Housing_1","mesh":11,"translation":[-4.14,2.410934,-1.35],"rotation":[-5.33850866E-08,0.7071068,5.33850866E-08,0.7071068]},{"name":"Must_1","mesh":12,"translation":[2.74,2.45344543,-1.13],"rotation":[1,-6.123234E-17,-6.123234E-17,-7.54979E-08]},{"name":"R_Housing_1","mesh":13,"translation":[2.74,2.45344543,-1.13],"rotation":[1,-6.123234E-17,-6.123234E-17,-7.54979E-08]},{"name":"Rotor_1","mesh":14,"translation":[2.74,2.4355073,-1.08],"rotation":[0.926762164,-7.974966E-17,-7.974966E-17,-0.375648618]},{"name":"Shaft_1","mesh":15,"translation":[2.74,2.45344543,-1.13],"rotation":[1,-6.123234E-17,-6.123234E-17,-7.54979E-08]},{"name":"Washer_1","mesh":16,"translation":[2.74,2.45344543,-1.13],"rotation":[1,-6.123234E-17,-6.123234E-17,-7.54979E-08]},{"name":"WindTurbine_001_1","mesh":17,"translation":[2.74,2.45344543,-1.13],"rotation":[1,-6.123234E-17,-6.123234E-17,-7.54979E-08]},{"name":"WIND_TURBINE__2_","children":[32,33,34,35,36,37,38,39,40,41],"translation":[-0.675038338,0.185418829,0.651029944],"rotation":[0,0.7071068,0,0.7071068],"scale":[0.07564296,0.0756429657,0.07564296]},{"name":"Blade1_3","mesh":9,"translation":[2.74,2.4355073,-1.08],"rotation":[0.926762164,-7.974966E-17,-7.974966E-17,-0.375648618]},{"name":"Blade2_3","mesh":10,"translation":[2.74,2.4355073,-1.08],"rotation":[0.926762164,-7.974966E-17,-7.974966E-17,-0.375648618]},{"name":"Blade_3","mesh":8,"translation":[2.74,2.4355073,-1.08],"rotation":[0.926762164,-7.974966E-17,-7.974966E-17,-0.375648618]},{"name":"L_Housing_3","mesh":11,"translation":[-4.14,2.410934,-1.35],"rotation":[-5.33850866E-08,0.7071068,5.33850866E-08,0.7071068]},{"name":"Must_3","mesh":12,"translation":[2.74,2.45344543,-1.13],"rotation":[1,-6.123234E-17,-6.123234E-17,-7.54979E-08]},{"name":"R_Housing_3","mesh":13,"translation":[2.74,2.45344543,-1.13],"rotation":[1,-6.123234E-17,-6.123234E-17,-7.54979E-08]},{"name":"Rotor_3","mesh":14,"translation":[2.74,2.4355073,-1.08],"rotation":[0.926762164,-7.974966E-17,-7.974966E-17,-0.375648618]},{"name":"Shaft_3","mesh":15,"translation":[2.74,2.45344543,-1.13],"rotation":[1,-6.123234E-17,-6.123234E-17,-7.54979E-08]},{"name":"Washer_3","mesh":16,"translation":[2.74,2.45344543,-1.13],"rotation":[1,-6.123234E-17,-6.123234E-17,-7.54979E-08]},{"name":"WindTurbine_001_3","mesh":17,"translation":[2.74,2.45344543,-1.13],"rotation":[1,-6.123234E-17,-6.123234E-17,-7.54979E-08]},{"name":"WIND_TURBINE__3_","children":[43,44,45,46,47,48,49,50,51,52],"translation":[-0.372466534,0.185418829,0.651029944],"rotation":[0,0.7071068,0,0.7071068],"scale":[0.07564296,0.0756429657,0.07564296]},{"name":"ENERGY","children":[0,1,2,3,4,5,6,7,8,9,20,31,42,53],"translation":[-0.114999995,0.437,-0.164028168],"rotation":[0,-0.7071068,-0.7071068,8.659561E-17],"scale":[0.5,0.5,0.5]},{"name":"ImageTargetPreview","mesh":18},{"name":"ImageTargetPreviewRoot","children":[55]},{"name":"ImageTargetPreview","mesh":19},{"name":"ImageTargetPreviewRoot","children":[57]},{"name":"ImageTargetPreview","mesh":20},{"name":"ImageTargetPreviewRoot","children":[59]},{"name":"07","children":[54,56,58,60],"translation":[-7.24,0,-7.64]}],"extensionsRequired":["KHR_materials_unlit"],"extensionsUsed":["KHR_materials_unlit"],"buffers":[{"uri":"07.bin","byteLength":4345764}],"bufferViews":[{"buffer":0,"byteLength":32520,"target":34963},{"buffer":0,"byteLength":7188,"byteOffset":32520,"target":34963},{"buffer":0,"byteLength":5268,"byteOffset":39708,"target":34963},{"buffer":0,"byteLength":64428,"byteOffset":44976,"target":34963},{"buffer":0,"byteLength":1608,"byteOffset":109404,"target":34963},{"buffer":0,"byteLength":12108,"byteOffset":111012,"target":34963},{"buffer":0,"byteLength":7680,"byteOffset":123120,"target":34963},{"buffer":0,"byteLength":16728,"byteOffset":130800,"target":34963},{"buffer":0,"byteLength":20808,"byteOffset":147528,"target":34963},{"buffer":0,"byteLength":20808,"byteOffset":168336,"target":34963},{"buffer":0,"byteLength":20808,"byteOffset":189144,"target":34963},{"buffer":0,"byteLength":20088,"byteOffset":209952,"target":34963},{"buffer":0,"byteLength":2160,"byteOffset":230040,"target":34963},{"buffer":0,"byteLength":19884,"byteOffset":232200,"target":34963},{"buffer":0,"byteLength":30468,"byteOffset":252084,"target":34963},{"buffer":0,"byteLength":3420,"byteOffset":282552,"target":34963},{"buffer":0,"byteLength":4296,"byteOffset":285972,"target":34963},{"buffer":0,"byteLength":6996,"byteOffset":290268,"target":34963},{"buffer":0,"byteLength":12,"byteOffset":297264,"target":34963},{"buffer":0,"byteLength":12,"byteOffset":297276,"target":34963},{"buffer":0,"byteLength":12,"byteOffset":297288,"target":34963},{"buffer":0,"byteLength":128,"byteOffset":297300,"byteStride":32,"target":34962},{"buffer":0,"byteLength":128,"byteOffset":297428,"byteStride":32,"target":34962},{"buffer":0,"byteLength":128,"byteOffset":297556,"byteStride":32,"target":34962},{"buffer":0,"byteLength":738576,"byteOffset":297684,"byteStride":48,"target":34962},{"buffer":0,"byteLength":52656,"byteOffset":1036260,"byteStride":48,"target":34962},{"buffer":0,"byteLength":114576,"byteOffset":1088916,"byteStride":48,"target":34962},{"buffer":0,"byteLength":1377888,"byteOffset":1203492,"byteStride":48,"target":34962},{"buffer":0,"byteLength":13056,"byteOffset":2581380,"byteStride":48,"target":34962},{"buffer":0,"byteLength":273072,"byteOffset":2594436,"byteStride":48,"target":34962},{"buffer":0,"byteLength":89856,"byteOffset":2867508,"byteStride":48,"target":34962},{"buffer":0,"byteLength":374640,"byteOffset":2957364,"byteStride":48,"target":34962},{"buffer":0,"byteLength":113616,"byteOffset":3332004,"byteStride":48,"target":34962},{"buffer":0,"byteLength":113568,"byteOffset":3445620,"byteStride":48,"target":34962},{"buffer":0,"byteLength":113616,"byteOffset":3559188,"byteStride":48,"target":34962},{"buffer":0,"byteLength":113664,"byteOffset":3672804,"byteStride":48,"target":34962},{"buffer":0,"byteLength":15552,"byteOffset":3786468,"byteStride":48,"target":34962},{"buffer":0,"byteLength":167760,"byteOffset":3802020,"byteStride":48,"target":34962},{"buffer":0,"byteLength":235536,"byteOffset":3969780,"byteStride":48,"target":34962},{"buffer":0,"byteLength":31200,"byteOffset":4205316,"byteStride":48,"target":34962},{"buffer":0,"byteLength":47040,"byteOffset":4236516,"byteStride":48,"target":34962},{"buffer":0,"byteLength":62208,"byteOffset":4283556,"byteStride":48,"target":34962}],"accessors":[{"bufferView":24,"componentType":5126,"count":15387,"type":"VEC3","max":[0.06736381,0.0355668366,0.122698762],"min":[-0.08874786,-0.03300996,-0.1194491]},{"bufferView":24,"componentType":5126,"count":15387,"type":"VEC3","byteOffset":12},{"bufferView":24,"componentType":5126,"count":15387,"type":"VEC4","byteOffset":24},{"bufferView":24,"componentType":5126,"count":15387,"type":"VEC2","byteOffset":40},{"bufferView":0,"componentType":5123,"count":3366,"type":"SCALAR"},{"bufferView":0,"componentType":5123,"count":12894,"type":"SCALAR","byteOffset":6732},{"bufferView":25,"componentType":5126,"count":1097,"type":"VEC3","max":[0.00238737883,0.0023874843,0.00242161145],"min":[-0.00238299649,-0.002382891,-0.0023487634]},{"bufferView":25,"componentType":5126,"count":1097,"type":"VEC3","byteOffset":12},{"bufferView":25,"componentType":5126,"count":1097,"type":"VEC4","byteOffset":24},{"bufferView":25,"componentType":5126,"count":1097,"type":"VEC2","byteOffset":40},{"bufferView":1,"componentType":5123,"count":3054,"type":"SCALAR"},{"bufferView":1,"componentType":5123,"count":540,"type":"SCALAR","byteOffset":6108},{"bufferView":26,"componentType":5126,"count":2387,"type":"VEC3","max":[0.02810765,0.02872623,0.123567522],"min":[-0.0287566781,-0.0297516454,-0.09758265]},{"bufferView":26,"componentType":5126,"count":2387,"type":"VEC3","byteOffset":12},{"bufferView":26,"componentType":5126,"count":2387,"type":"VEC4","byteOffset":24},{"bufferView":26,"componentType":5126,"count":2387,"type":"VEC2","byteOffset":40},{"bufferView":2,"componentType":5123,"count":504,"type":"SCALAR"},{"bufferView":2,"componentType":5123,"count":2130,"type":"SCALAR","byteOffset":1008},{"bufferView":27,"componentType":5126,"count":28706,"type":"VEC3","max":[0.140186563,0.121400833,0.2455283],"min":[-0.194332823,-0.04935712,-0.00760091841]},{"bufferView":27,"componentType":5126,"count":28706,"type":"VEC3","byteOffset":12},{"bufferView":27,"componentType":5126,"count":28706,"type":"VEC4","byteOffset":24},{"bufferView":27,"componentType":5126,"count":28706,"type":"VEC2","byteOffset":40},{"bufferView":3,"componentType":5123,"count":6294,"type":"SCALAR"},{"bufferView":3,"componentType":5123,"count":25920,"type":"SCALAR","byteOffset":12588},{"bufferView":28,"componentType":5126,"count":272,"type":"VEC3","max":[0.01,0.01,0.0003558332],"min":[-0.01,-0.01,0]},{"bufferView":28,"componentType":5126,"count":272,"type":"VEC3","byteOffset":12},{"bufferView":28,"componentType":5126,"count":272,"type":"VEC4","byteOffset":24},{"bufferView":28,"componentType":5126,"count":272,"type":"VEC2","byteOffset":40},{"bufferView":4,"componentType":5123,"count":804,"type":"SCALAR"},{"bufferView":29,"componentType":5126,"count":5689,"type":"VEC3","max":[-0.0321122147,0.0126891546,0.0271117464],"min":[-0.0594201125,-0.0150960572,-0.0163328946]},{"bufferView":29,"componentType":5126,"count":5689,"type":"VEC3","byteOffset":12},{"bufferView":29,"componentType":5126,"count":5689,"type":"VEC4","byteOffset":24},{"bufferView":29,"componentType":5126,"count":5689,"type":"VEC2","byteOffset":40},{"bufferView":5,"componentType":5123,"count":2748,"type":"SCALAR"},{"bufferView":5,"componentType":5123,"count":3306,"type":"SCALAR","byteOffset":5496},{"bufferView":30,"componentType":5126,"count":1872,"type":"VEC3","max":[0.009999999,0.0304848142,1.86264515E-09],"min":[-0.0319832563,-0.0100000007,-0.0172632374]},{"bufferView":30,"componentType":5126,"count":1872,"type":"VEC3","byteOffset":12},{"bufferView":30,"componentType":5126,"count":1872,"type":"VEC4","byteOffset":24},{"bufferView":30,"componentType":5126,"count":1872,"type":"VEC2","byteOffset":40},{"bufferView":6,"componentType":5123,"count":2136,"type":"SCALAR"},{"bufferView":6,"componentType":5123,"count":216,"type":"SCALAR","byteOffset":4272},{"bufferView":6,"componentType":5123,"count":1488,"type":"SCALAR","byteOffset":4704},{"bufferView":31,"componentType":5126,"count":7805,"type":"VEC3","max":[0.1024984,0.0555510744,0.21513471],"min":[-0.107387379,-0.05260825,0.0121617019]},{"bufferView":31,"componentType":5126,"count":7805,"type":"VEC3","byteOffset":12},{"bufferView":31,"componentType":5126,"count":7805,"type":"VEC4","byteOffset":24},{"bufferView":31,"componentType":5126,"count":7805,"type":"VEC2","byteOffset":40},{"bufferView":7,"componentType":5123,"count":2820,"type":"SCALAR"},{"bufferView":7,"componentType":5123,"count":5544,"type":"SCALAR","byteOffset":5640},{"bufferView":32,"componentType":5126,"count":2367,"type":"VEC3","max":[-0.0399862677,2.12027049,0.161164343],"min":[-0.204701379,0.215270579,-0.178636432]},{"bufferView":32,"componentType":5126,"count":2367,"type":"VEC3","byteOffset":12},{"bufferView":32,"componentType":5126,"count":2367,"type":"VEC4","byteOffset":24},{"bufferView":32,"componentType":5126,"count":2367,"type":"VEC2","byteOffset":40},{"bufferView":8,"componentType":5123,"count":10404,"type":"SCALAR"},{"bufferView":33,"componentType":5126,"count":2366,"type":"VEC3","max":[-0.0399862677,0.0629094839,1.72596955],"min":[-0.204701379,-1.06853151,0.08875823]},{"bufferView":33,"componentType":5126,"count":2366,"type":"VEC3","byteOffset":12},{"bufferView":33,"componentType":5126,"count":2366,"type":"VEC4","byteOffset":24},{"bufferView":33,"componentType":5126,"count":2366,"type":"VEC2","byteOffset":40},{"bufferView":9,"componentType":5123,"count":10404,"type":"SCALAR"},{"bufferView":34,"componentType":5126,"count":2367,"type":"VEC3","max":[-0.04883437,0.06349254,-0.089407444],"min":[-0.21354948,-0.8701263,-1.83829188]},{"bufferView":34,"componentType":5126,"count":2367,"type":"VEC3","byteOffset":12},{"bufferView":34,"componentType":5126,"count":2367,"type":"VEC4","byteOffset":24},{"bufferView":34,"componentType":5126,"count":2367,"type":"VEC2","byteOffset":40},{"bufferView":10,"componentType":5123,"count":10404,"type":"SCALAR"},{"bufferView":35,"componentType":5126,"count":2368,"type":"VEC3","max":[-0.226791084,0.242750511,7.7319994],"min":[-0.467864633,-0.228249475,6.882102]},{"bufferView":35,"componentType":5126,"count":2368,"type":"VEC3","byteOffset":12},{"bufferView":35,"componentType":5126,"count":2368,"type":"VEC4","byteOffset":24},{"bufferView":35,"componentType":5126,"count":2368,"type":"VEC2","byteOffset":40},{"bufferView":11,"componentType":5123,"count":10044,"type":"SCALAR"},{"bufferView":36,"componentType":5126,"count":324,"type":"VEC3","max":[0.6417747,3.62685323,0.199661627],"min":[0.243127108,0.224853039,-0.199661627]},{"bufferView":36,"componentType":5126,"count":324,"type":"VEC3","byteOffset":12},{"bufferView":36,"componentType":5126,"count":324,"type":"VEC4","byteOffset":24},{"bufferView":36,"componentType":5126,"count":324,"type":"VEC2","byteOffset":40},{"bufferView":12,"componentType":5123,"count":1080,"type":"SCALAR"},{"bufferView":37,"componentType":5126,"count":3495,"type":"VEC3","max":[0.8507659,0.270760149,0.2373071],"min":[0.0007659793,-0.2002398,-0.003766477]},{"bufferView":37,"componentType":5126,"count":3495,"type":"VEC3","byteOffset":12},{"bufferView":37,"componentType":5126,"count":3495,"type":"VEC4","byteOffset":24},{"bufferView":37,"componentType":5126,"count":3495,"type":"VEC2","byteOffset":40},{"bufferView":13,"componentType":5123,"count":9942,"type":"SCALAR"},{"bufferView":38,"componentType":5126,"count":4907,"type":"VEC3","max":[-0.00108382106,0.261542857,0.190499991],"min":[-0.382083774,-0.119457126,-0.190499991]},{"bufferView":38,"componentType":5126,"count":4907,"type":"VEC3","byteOffset":12},{"bufferView":38,"componentType":5126,"count":4907,"type":"VEC4","byteOffset":24},{"bufferView":38,"componentType":5126,"count":4907,"type":"VEC2","byteOffset":40},{"bufferView":14,"componentType":5123,"count":15234,"type":"SCALAR"},{"bufferView":39,"componentType":5126,"count":650,"type":"VEC3","max":[0.8235117,0.04816837,0.0482500121],"min":[-0.0264883041,-0.04816837,-0.0482499972]},{"bufferView":39,"componentType":5126,"count":650,"type":"VEC3","byteOffset":12},{"bufferView":39,"componentType":5126,"count":650,"type":"VEC4","byteOffset":24},{"bufferView":39,"componentType":5126,"count":650,"type":"VEC2","byteOffset":40},{"bufferView":15,"componentType":5123,"count":1710,"type":"SCALAR"},{"bufferView":40,"componentType":5126,"count":980,"type":"VEC3","max":[0.429320276,0.110175066,0.1103],"min":[0.353120267,-0.110175066,-0.1103]},{"bufferView":40,"componentType":5126,"count":980,"type":"VEC3","byteOffset":12},{"bufferView":40,"componentType":5126,"count":980,"type":"VEC4","byteOffset":24},{"bufferView":40,"componentType":5126,"count":980,"type":"VEC2","byteOffset":40},{"bufferView":16,"componentType":5123,"count":2148,"type":"SCALAR"},{"bufferView":41,"componentType":5126,"count":1296,"type":"VEC3","max":[0.947695136,3.90468216,0.506671548],"min":[-0.06830478,3.60168171,-0.5093285]},{"bufferView":41,"componentType":5126,"count":1296,"type":"VEC3","byteOffset":12},{"bufferView":41,"componentType":5126,"count":1296,"type":"VEC4","byteOffset":24},{"bufferView":41,"componentType":5126,"count":1296,"type":"VEC2","byteOffset":40},{"bufferView":17,"componentType":5123,"count":1383,"type":"SCALAR"},{"bufferView":17,"componentType":5123,"count":2115,"type":"SCALAR","byteOffset":2766},{"bufferView":21,"componentType":5126,"count":4,"type":"VEC3","max":[0.5,0,0.5],"min":[-0.5,0,-0.5]},{"bufferView":21,"componentType":5126,"count":4,"type":"VEC3","byteOffset":12},{"bufferView":21,"componentType":5126,"count":4,"type":"VEC2","byteOffset":24},{"bufferView":18,"componentType":5123,"count":6,"type":"SCALAR"},{"bufferView":22,"componentType":5126,"count":4,"type":"VEC3","max":[0.5,0,0.5],"min":[-0.5,0,-0.5]},{"bufferView":22,"componentType":5126,"count":4,"type":"VEC3","byteOffset":12},{"bufferView":22,"componentType":5126,"count":4,"type":"VEC2","byteOffset":24},{"bufferView":19,"componentType":5123,"count":6,"type":"SCALAR"},{"bufferView":23,"componentType":5126,"count":4,"type":"VEC3","max":[0.5,0,0.5],"min":[-0.5,0,-0.5]},{"bufferView":23,"componentType":5126,"count":4,"type":"VEC3","byteOffset":12},{"bufferView":23,"componentType":5126,"count":4,"type":"VEC2","byteOffset":24},{"bufferView":20,"componentType":5123,"count":6,"type":"SCALAR"}],"images":[{"name":"07_scaled.jpg","uri":"07_scaled.jpg","mimeType":"image/jpeg"}],"materials":[{"name":"Material_001_1","pbrMetallicRoughness":{"baseColorFactor":[0.467236876,0.114054754,0.031710133,1],"metallicFactor":0}},{"name":"Material_002_1","pbrMetallicRoughness":{"baseColorFactor":[0.0984076262,0.5070748,0.007870416,1],"metallicFactor":0}},{"name":"Material_002","pbrMetallicRoughness":{"baseColorFactor":[0.698191643,0.698191643,0.698191643,1],"metallicFactor":0}},{"name":"glass","pbrMetallicRoughness":{"baseColorFactor":[0.581462145,0.581462145,0.581462145,1],"metallicFactor":0}},{"name":"Material_004","pbrMetallicRoughness":{"baseColorFactor":[0.100716725,0.3031972,0.07164945,1],"metallicFactor":0}},{"name":"Material","pbrMetallicRoughness":{"baseColorFactor":[0.8,0.8,0.8,1],"metallicFactor":0}},{"name":"Material_009","pbrMetallicRoughness":{"baseColorFactor":[0.0163961481,0.106613271,0.4292236,1],"metallicFactor":0}},{"name":"Material_001","pbrMetallicRoughness":{"baseColorFactor":[0.8,0.8,0.8,1],"metallicFactor":0}},{"name":"Blade","pbrMetallicRoughness":{"baseColorFactor":[1,0.388290226,0,1],"metallicFactor":0}},{"name":"_191_191_191","pbrMetallicRoughness":{"baseColorFactor":[0.7490199,0.7490199,0.7490199,1],"metallicFactor":0}},{"name":"_45_124_209","pbrMetallicRoughness":{"baseColorFactor":[0.176470891,0.486274958,0.819608,1],"metallicFactor":0}},{"name":"_196_185_160","pbrMetallicRoughness":{"baseColorFactor":[0.768627,0.725490034,0.627450943,1],"metallicFactor":0}},{"name":"07Material\n25568","pbrMetallicRoughness":{"metallicFactor":0,"baseColorTexture":{"index":0}},"extensions":{"KHR_materials_unlit":{}}},{"name":"07Material\n25568","pbrMetallicRoughness":{"metallicFactor":0,"baseColorTexture":{"index":0}},"extensions":{"KHR_materials_unlit":{}}},{"name":"07Material\n25568","pbrMetallicRoughness":{"metallicFactor":0,"baseColorTexture":{"index":0}},"extensions":{"KHR_materials_unlit":{}}}],"meshes":[{"name":"apple_tree__1_","primitives":[{"attributes":{"POSITION":0,"NORMAL":1,"TANGENT":2,"TEXCOORD_0":3},"indices":4,"material":0},{"attributes":{"POSITION":0,"NORMAL":1,"TANGENT":2,"TEXCOORD_0":3},"indices":5,"material":1}]},{"name":"Building","primitives":[{"attributes":{"POSITION":6,"NORMAL":7,"TANGENT":8,"TEXCOORD_0":9},"indices":10,"material":2},{"attributes":{"POSITION":6,"NORMAL":7,"TANGENT":8,"TEXCOORD_0":9},"indices":11,"material":3}]},{"name":"cypress__1_","primitives":[{"attributes":{"POSITION":12,"NORMAL":13,"TANGENT":14,"TEXCOORD_0":15},"indices":16,"material":0},{"attributes":{"POSITION":12,"NORMAL":13,"TANGENT":14,"TEXCOORD_0":15},"indices":17,"material":1}]},{"name":"Pine__1_","primitives":[{"attributes":{"POSITION":18,"NORMAL":19,"TANGENT":20,"TEXCOORD_0":21},"indices":22,"material":0},{"attributes":{"POSITION":18,"NORMAL":19,"TANGENT":20,"TEXCOORD_0":21},"indices":23,"material":1}]},{"name":"Plane__2_","primitives":[{"attributes":{"POSITION":24,"NORMAL":25,"TANGENT":26,"TEXCOORD_0":27},"indices":28,"material":4}]},{"name":"simple_tree__1_","primitives":[{"attributes":{"POSITION":29,"NORMAL":30,"TANGENT":31,"TEXCOORD_0":32},"indices":33,"material":0},{"attributes":{"POSITION":29,"NORMAL":30,"TANGENT":31,"TEXCOORD_0":32},"indices":34,"material":1}]},{"name":"Solar_Painel","primitives":[{"attributes":{"POSITION":35,"NORMAL":36,"TANGENT":37,"TEXCOORD_0":38},"indices":39,"material":5},{"attributes":{"POSITION":35,"NORMAL":36,"TANGENT":37,"TEXCOORD_0":38},"indices":40,"material":6},{"attributes":{"POSITION":35,"NORMAL":36,"TANGENT":37,"TEXCOORD_0":38},"indices":41,"material":7}]},{"name":"tree__1_","primitives":[{"attributes":{"POSITION":42,"NORMAL":43,"TANGENT":44,"TEXCOORD_0":45},"indices":46,"material":0},{"attributes":{"POSITION":42,"NORMAL":43,"TANGENT":44,"TEXCOORD_0":45},"indices":47,"material":1}]},{"name":"Blade","primitives":[{"attributes":{"POSITION":48,"NORMAL":49,"TANGENT":50,"TEXCOORD_0":51},"indices":52,"material":8}]},{"name":"Blade1","primitives":[{"attributes":{"POSITION":53,"NORMAL":54,"TANGENT":55,"TEXCOORD_0":56},"indices":57,"material":8}]},{"name":"Blade2","primitives":[{"attributes":{"POSITION":58,"NORMAL":59,"TANGENT":60,"TEXCOORD_0":61},"indices":62,"material":8}]},{"name":"L_Housing","primitives":[{"attributes":{"POSITION":63,"NORMAL":64,"TANGENT":65,"TEXCOORD_0":66},"indices":67,"material":9}]},{"name":"Must","primitives":[{"attributes":{"POSITION":68,"NORMAL":69,"TANGENT":70,"TEXCOORD_0":71},"indices":72,"material":9}]},{"name":"R_Housing","primitives":[{"attributes":{"POSITION":73,"NORMAL":74,"TANGENT":75,"TEXCOORD_0":76},"indices":77,"material":9}]},{"name":"Rotor","primitives":[{"attributes":{"POSITION":78,"NORMAL":79,"TANGENT":80,"TEXCOORD_0":81},"indices":82,"material":10}]},{"name":"Shaft","primitives":[{"attributes":{"POSITION":83,"NORMAL":84,"TANGENT":85,"TEXCOORD_0":86},"indices":87,"material":9}]},{"name":"Washer","primitives":[{"attributes":{"POSITION":88,"NORMAL":89,"TANGENT":90,"TEXCOORD_0":91},"indices":92,"material":9}]},{"name":"WindTurbine_001","primitives":[{"attributes":{"POSITION":93,"NORMAL":94,"TANGENT":95,"TEXCOORD_0":96},"indices":97,"material":9},{"attributes":{"POSITION":93,"NORMAL":94,"TANGENT":95,"TEXCOORD_0":96},"indices":98,"material":11}]},{"name":"ImageTargetMesh25568","primitives":[{"attributes":{"POSITION":99,"NORMAL":100,"TEXCOORD_0":101},"indices":102,"material":12}]},{"name":"ImageTargetMesh25568","primitives":[{"attributes":{"POSITION":103,"NORMAL":104,"TEXCOORD_0":105},"indices":106,"material":13}]},{"name":"ImageTargetMesh25568","primitives":[{"attributes":{"POSITION":107,"NORMAL":108,"TEXCOORD_0":109},"indices":110,"material":14}]}],"scene":0,"scenes":[{"name":"07","nodes":[61]}],"textures":[{"source":0}]}