{"asset":{"version":"2.0","generator":"Unity 2022.3.28f1 glTFast 6.14.1"},"nodes":[{"name":"TrashbinLid","mesh":0,"translation":[0.008140475,1.151607,-0.38029018]},{"name":"TrashbinWheels","mesh":1,"translation":[-0.000173717737,0.09128393,-0.254032135]},{"name":"TrashbinBlue","children":[0,1],"mesh":2,"translation":[-0.00505100051,-0.00144371029,0.0009662086],"rotation":[0.7071068,0,0,0.7071068],"scale":[0.004618266,0.0126999961,0.00499596167]},{"name":"TrashbinLid_1","mesh":9,"translation":[0.008140475,1.151607,-0.38029018]},{"name":"TrashbinWheels_1","mesh":10,"translation":[-0.000173717737,0.09128393,-0.254032135]},{"name":"TrashbinGreen","children":[3,4],"mesh":11,"translation":[-0.00187639368,-0.00144371029,0.0009662086],"rotation":[0.7071068,0,0,0.7071068],"scale":[0.004618266,0.0126999961,0.00499596167]},{"name":"TrashbinLid_2","mesh":12,"translation":[0.008140475,1.151607,-0.38029018]},{"name":"TrashbinWheels_2","mesh":13,"translation":[-0.000173717737,0.09128393,-0.254032135]},{"name":"TrashbinRed","children":[6,7],"mesh":14,"translation":[0.00144231482,-0.00144371029,0.000966213353],"rotation":[0.7071068,0,0,0.7071068],"scale":[0.004618266,0.0126999961,0.00499596167]},{"name":"TrashbinLid_3","mesh":15,"translation":[0.008140475,1.151607,-0.38029018]},{"name":"TrashbinWheels_3","mesh":16,"translation":[-0.000173717737,0.09128393,-0.254032135]},{"name":"TrashbinYellow","children":[9,10],"mesh":17,"translation":[0.00482189329,-0.00144371029,0.0009662086],"rotation":[0.7071068,0,0,0.7071068],"scale":[0.004618266,0.0126999961,0.00499596167]},{"name":"RECYCLE","children":[2,5,8,11],"mesh":3,"translation":[0,1.16,-0.39],"rotation":[0,0,-1,6.123234E-17],"scale":[110,101.683975,40.00074]},{"name":"ImageTargetPreview","mesh":4},{"name":"ImageTargetPreviewRoot","children":[13]},{"name":"ImageTargetPreview","mesh":5},{"name":"ImageTargetPreviewRoot","children":[15]},{"name":"ImageTargetPreview","mesh":6},{"name":"ImageTargetPreviewRoot","children":[17]},{"name":"ImageTargetPreview","mesh":7},{"name":"ImageTargetPreviewRoot","children":[19]},{"name":"ImageTargetPreview","mesh":8},{"name":"ImageTargetPreviewRoot","children":[21]},{"name":"12","children":[12,14,16,18,20,22],"translation":[-12.43,0,2.47]}],"extensionsRequired":["KHR_materials_unlit"],"extensionsUsed":["KHR_materials_unlit"],"buffers":[{"uri":"12.bin","byteLength":60340}],"bufferViews":[{"buffer":0,"byteLength":1536,"target":34963},{"buffer":0,"byteLength":1440,"byteOffset":1536,"target":34963},{"buffer":0,"byteLength":2016,"byteOffset":2976,"target":34963},{"buffer":0,"byteLength":1608,"byteOffset":4992,"target":34963},{"buffer":0,"byteLength":12,"byteOffset":6600,"target":34963},{"buffer":0,"byteLength":12,"byteOffset":6612,"target":34963},{"buffer":0,"byteLength":12,"byteOffset":6624,"target":34963},{"buffer":0,"byteLength":12,"byteOffset":6636,"target":34963},{"buffer":0,"byteLength":12,"byteOffset":6648,"target":34963},{"buffer":0,"byteLength":128,"byteOffset":6660,"byteStride":32,"target":34962},{"buffer":0,"byteLength":128,"byteOffset":6788,"byteStride":32,"target":34962},{"buffer":0,"byteLength":128,"byteOffset":6916,"byteStride":32,"target":34962},{"buffer":0,"byteLength":128,"byteOffset":7044,"byteStride":32,"target":34962},{"buffer":0,"byteLength":128,"byteOffset":7172,"byteStride":32,"target":34962},{"buffer":0,"byteLength":12768,"byteOffset":7300,"byteStride":48,"target":34962},{"buffer":0,"byteLength":9984,"byteOffset":20068,"byteStride":48,"target":34962},{"buffer":0,"byteLength":17232,"byteOffset":30052,"byteStride":48,"target":34962},{"buffer":0,"byteLength":13056,"byteOffset":47284,"byteStride":48,"target":34962}],"accessors":[{"bufferView":14,"componentType":5126,"count":266,"type":"VEC3","max":[0.255767345,0.08554627,0.6490019],"min":[-0.272044778,-0.02111449,-0.01856482]},{"bufferView":14,"componentType":5126,"count":266,"type":"VEC3","byteOffset":12},{"bufferView":14,"componentType":5126,"count":266,"type":"VEC4","byteOffset":24},{"bufferView":14,"componentType":5126,"count":266,"type":"VEC2","byteOffset":40},{"bufferView":0,"componentType":5123,"count":768,"type":"SCALAR"},{"bufferView":15,"componentType":5126,"count":208,"type":"VEC3","max":[0.255384624,0.09196687,0.0919670761],"min":[-0.255384624,-0.0919672847,-0.09196712]},{"bufferView":15,"componentType":5126,"count":208,"type":"VEC3","byteOffset":12},{"bufferView":15,"componentType":5126,"count":208,"type":"VEC4","byteOffset":24},{"bufferView":15,"componentType":5126,"count":208,"type":"VEC2","byteOffset":40},{"bufferView":1,"componentType":5123,"count":720,"type":"SCALAR"},{"bufferView":16,"componentType":5126,"count":359,"type":"VEC3","max":[0.321502745,1.17358685,0.32286495],"min":[-0.3215031,-1.1920929E-07,-0.406872928]},{"bufferView":16,"componentType":5126,"count":359,"type":"VEC3","byteOffset":12},{"bufferView":16,"componentType":5126,"count":359,"type":"VEC4","byteOffset":24},{"bufferView":16,"componentType":5126,"count":359,"type":"VEC2","byteOffset":40},{"bufferView":2,"componentType":5123,"count":1008,"type":"SCALAR"},{"bufferView":17,"componentType":5126,"count":272,"type":"VEC3","max":[0.01,0.01,0.0003558332],"min":[-0.01,-0.01,0]},{"bufferView":17,"componentType":5126,"count":272,"type":"VEC3","byteOffset":12},{"bufferView":17,"componentType":5126,"count":272,"type":"VEC4","byteOffset":24},{"bufferView":17,"componentType":5126,"count":272,"type":"VEC2","byteOffset":40},{"bufferView":3,"componentType":5123,"count":804,"type":"SCALAR"},{"bufferView":9,"componentType":5126,"count":4,"type":"VEC3","max":[0.5,0,0.5],"min":[-0.5,0,-0.5]},{"bufferView":9,"componentType":5126,"count":4,"type":"VEC3","byteOffset":12},{"bufferView":9,"componentType":5126,"count":4,"type":"VEC2","byteOffset":24},{"bufferView":4,"componentType":5123,"count":6,"type":"SCALAR"},{"bufferView":10,"componentType":5126,"count":4,"type":"VEC3","max":[0.5,0,0.5],"min":[-0.5,0,-0.5]},{"bufferView":10,"componentType":5126,"count":4,"type":"VEC3","byteOffset":12},{"bufferView":10,"componentType":5126,"count":4,"type":"VEC2","byteOffset":24},{"bufferView":5,"componentType":5123,"count":6,"type":"SCALAR"},{"bufferView":11,"componentType":5126,"count":4,"type":"VEC3","max":[0.5,0,0.5],"min":[-0.5,0,-0.5]},{"bufferView":11,"componentType":5126,"count":4,"type":"VEC3","byteOffset":12},{"bufferView":11,"componentType":5126,"count":4,"type":"VEC2","byteOffset":24},{"bufferView":6,"componentType":5123,"count":6,"type":"SCALAR"},{"bufferView":12,"componentType":5126,"count":4,"type":"VEC3","max":[0.5,0,0.5],"min":[-0.5,0,-0.5]},{"bufferView":12,"componentType":5126,"count":4,"type":"VEC3","byteOffset":12},{"bufferView":12,"componentType":5126,"count":4,"type":"VEC2","byteOffset":24},{"bufferView":7,"componentType":5123,"count":6,"type":"SCALAR"},{"bufferView":13,"componentType":5126,"count":4,"type":"VEC3","max":[0.5,0,0.5],"min":[-0.5,0,-0.5]},{"bufferView":13,"componentType":5126,"count":4,"type":"VEC3","byteOffset":12},{"bufferView":13,"componentType":5126,"count":4,"type":"VEC2","byteOffset":24},{"bufferView":8,"componentType":5123,"count":6,"type":"SCALAR"}],"images":[{"name":"Trashbin_normal.png","uri":"Trashbin_normal.png","mimeType":"image/png"},{"name":"TrashbinBlue_basecolor.png","uri":"TrashbinBlue_basecolor.png","mimeType":"image/png"},{"name":"TrashbinGreen_basecolor.png","uri":"TrashbinGreen_basecolor.png","mimeType":"image/png"},{"name":"TrashbinRed_basecolor.png","uri":"TrashbinRed_basecolor.png","mimeType":"image/png"},{"name":"TrashbinYellow_basecolor.png","uri":"TrashbinYellow_basecolor.png","mimeType":"image/png"},{"name":"12_scaled.jpg","uri":"12_scaled.jpg","mimeType":"image/jpeg"}],"materials":[{"name":"TrashbinBlue","pbrMetallicRoughness":{"metallicFactor":0,"baseColorTexture":{"index":1}},"normalTexture":{"index":0}},{"name":"TrashbinGreen","pbrMetallicRoughness":{"metallicFactor":0,"baseColorTexture":{"index":2}},"normalTexture":{"index":0}},{"name":"TrashbinRed","pbrMetallicRoughness":{"metallicFactor":0,"baseColorTexture":{"index":3}},"normalTexture":{"index":0}},{"name":"TrashbinYellow","pbrMetallicRoughness":{"metallicFactor":0,"baseColorTexture":{"index":4}},"normalTexture":{"index":0}},{"name":"TRASH_FLOOR","pbrMetallicRoughness":{"baseColorFactor":[0.673177958,0.335124254,0.0572402,1],"metallicFactor":0}},{"name":"12Material\n25610","pbrMetallicRoughness":{"metallicFactor":0,"baseColorTexture":{"index":5}},"extensions":{"KHR_materials_unlit":{}}},{"name":"12Material\n25610","pbrMetallicRoughness":{"metallicFactor":0,"baseColorTexture":{"index":5}},"extensions":{"KHR_materials_unlit":{}}},{"name":"12Material\n25610","pbrMetallicRoughness":{"metallicFactor":0,"baseColorTexture":{"index":5}},"extensions":{"KHR_materials_unlit":{}}},{"name":"12Material\n25610","pbrMetallicRoughness":{"metallicFactor":0,"baseColorTexture":{"index":5}},"extensions":{"KHR_materials_unlit":{}}},{"name":"12Material\n25610","pbrMetallicRoughness":{"metallicFactor":0,"baseColorTexture":{"index":5}},"extensions":{"KHR_materials_unlit":{}}}],"meshes":[{"name":"TrashbinLid","primitives":[{"attributes":{"POSITION":0,"NORMAL":1,"TANGENT":2,"TEXCOORD_0":3},"indices":4,"material":0}]},{"name":"TrashbinWheels","primitives":[{"attributes":{"POSITION":5,"NORMAL":6,"TANGENT":7,"TEXCOORD_0":8},"indices":9,"material":0}]},{"name":"TrashbinBlue","primitives":[{"attributes":{"POSITION":10,"NORMAL":11,"TANGENT":12,"TEXCOORD_0":13},"indices":14,"material":0}]},{"name":"RECYCLE","primitives":[{"attributes":{"POSITION":15,"NORMAL":16,"TANGENT":17,"TEXCOORD_0":18},"indices":19,"material":4}]},{"name":"ImageTargetMesh25610","primitives":[{"attributes":{"POSITION":20,"NORMAL":21,"TEXCOORD_0":22},"indices":23,"material":5}]},{"name":"ImageTargetMesh25610","primitives":[{"attributes":{"POSITION":24,"NORMAL":25,"TEXCOORD_0":26},"indices":27,"material":6}]},{"name":"ImageTargetMesh25610","primitives":[{"attributes":{"POSITION":28,"NORMAL":29,"TEXCOORD_0":30},"indices":31,"material":7}]},{"name":"ImageTargetMesh25610","primitives":[{"attributes":{"POSITION":32,"NORMAL":33,"TEXCOORD_0":34},"indices":35,"material":8}]},{"name":"ImageTargetMesh25610","primitives":[{"attributes":{"POSITION":36,"NORMAL":37,"TEXCOORD_0":38},"indices":39,"material":9}]},{"name":"TrashbinLid","primitives":[{"attributes":{"POSITION":0,"NORMAL":1,"TANGENT":2,"TEXCOORD_0":3},"indices":4,"material":1}]},{"name":"TrashbinWheels","primitives":[{"attributes":{"POSITION":5,"NORMAL":6,"TANGENT":7,"TEXCOORD_0":8},"indices":9,"material":1}]},{"name":"TrashbinBlue","primitives":[{"attributes":{"POSITION":10,"NORMAL":11,"TANGENT":12,"TEXCOORD_0":13},"indices":14,"material":1}]},{"name":"TrashbinLid","primitives":[{"attributes":{"POSITION":0,"NORMAL":1,"TANGENT":2,"TEXCOORD_0":3},"indices":4,"material":2}]},{"name":"TrashbinWheels","primitives":[{"attributes":{"POSITION":5,"NORMAL":6,"TANGENT":7,"TEXCOORD_0":8},"indices":9,"material":2}]},{"name":"TrashbinBlue","primitives":[{"attributes":{"POSITION":10,"NORMAL":11,"TANGENT":12,"TEXCOORD_0":13},"indices":14,"material":2}]},{"name":"TrashbinLid","primitives":[{"attributes":{"POSITION":0,"NORMAL":1,"TANGENT":2,"TEXCOORD_0":3},"indices":4,"material":3}]},{"name":"TrashbinWheels","primitives":[{"attributes":{"POSITION":5,"NORMAL":6,"TANGENT":7,"TEXCOORD_0":8},"indices":9,"material":3}]},{"name":"TrashbinBlue","primitives":[{"attributes":{"POSITION":10,"NORMAL":11,"TANGENT":12,"TEXCOORD_0":13},"indices":14,"material":3}]}],"samplers":[{"wrapS":33071,"wrapT":33071}],"scene":0,"scenes":[{"name":"12","nodes":[23]}],"textures":[{"source":0,"sampler":0},{"source":1,"sampler":0},{"source":2,"sampler":0},{"source":3,"sampler":0},{"source":4,"sampler":0},{"source":5}]}