{"asset":{"version":"2.0","generator":"Unity 2022.3.28f1 glTFast 6.14.1"},"nodes":[{"name":"well","mesh":0,"translation":[0.000279795815,-0.000315801532,0.000399375131],"rotation":[-8.940697E-08,0,0,1],"scale":[0.036364302,0.03933828,0.09999998]},{"name":"WATER_DRINK","children":[0],"mesh":1,"translation":[0,1.27,-0.441],"scale":[120,110.927971,43.63717]},{"name":"ImageTargetPreview","mesh":2},{"name":"ImageTargetPreviewRoot","children":[2]},{"name":"ImageTargetPreview","mesh":3},{"name":"ImageTargetPreviewRoot","children":[4]},{"name":"ImageTargetPreview","mesh":4},{"name":"ImageTargetPreviewRoot","children":[6]},{"name":"06","children":[1,3,5,7],"translation":[-3.67,0.11,3.24]}],"extensionsRequired":["KHR_materials_unlit"],"extensionsUsed":["KHR_materials_unlit"],"buffers":[{"uri":"06.bin","byteLength":877740}],"bufferViews":[{"buffer":0,"byteLength":51696,"target":34963},{"buffer":0,"byteLength":1608,"byteOffset":51696,"target":34963},{"buffer":0,"byteLength":12,"byteOffset":53304,"target":34963},{"buffer":0,"byteLength":12,"byteOffset":53316,"target":34963},{"buffer":0,"byteLength":12,"byteOffset":53328,"target":34963},{"buffer":0,"byteLength":128,"byteOffset":53340,"byteStride":32,"target":34962},{"buffer":0,"byteLength":128,"byteOffset":53468,"byteStride":32,"target":34962},{"buffer":0,"byteLength":128,"byteOffset":53596,"byteStride":32,"target":34962},{"buffer":0,"byteLength":810960,"byteOffset":53724,"byteStride":48,"target":34962},{"buffer":0,"byteLength":13056,"byteOffset":864684,"byteStride":48,"target":34962}],"accessors":[{"bufferView":8,"componentType":5126,"count":16895,"type":"VEC3","max":[0.112332456,0.07254659,0.22075744],"min":[-0.114092313,-0.07304163,-0.00174255669]},{"bufferView":8,"componentType":5126,"count":16895,"type":"VEC3","byteOffset":12},{"bufferView":8,"componentType":5126,"count":16895,"type":"VEC4","byteOffset":24},{"bufferView":8,"componentType":5126,"count":16895,"type":"VEC2","byteOffset":40},{"bufferView":0,"componentType":5123,"count":3000,"type":"SCALAR"},{"bufferView":0,"componentType":5123,"count":1896,"type":"SCALAR","byteOffset":6000},{"bufferView":0,"componentType":5123,"count":2448,"type":"SCALAR","byteOffset":9792},{"bufferView":0,"componentType":5123,"count":4476,"type":"SCALAR","byteOffset":14688},{"bufferView":0,"componentType":5123,"count":4344,"type":"SCALAR","byteOffset":23640},{"bufferView":0,"componentType":5123,"count":120,"type":"SCALAR","byteOffset":32328},{"bufferView":0,"componentType":5123,"count":6156,"type":"SCALAR","byteOffset":32568},{"bufferView":0,"componentType":5123,"count":2484,"type":"SCALAR","byteOffset":44880},{"bufferView":0,"componentType":5123,"count":924,"type":"SCALAR","byteOffset":49848},{"bufferView":9,"componentType":5126,"count":272,"type":"VEC3","max":[0.01,0.01,0.0003558332],"min":[-0.01,-0.01,0]},{"bufferView":9,"componentType":5126,"count":272,"type":"VEC3","byteOffset":12},{"bufferView":9,"componentType":5126,"count":272,"type":"VEC4","byteOffset":24},{"bufferView":9,"componentType":5126,"count":272,"type":"VEC2","byteOffset":40},{"bufferView":1,"componentType":5123,"count":804,"type":"SCALAR"},{"bufferView":5,"componentType":5126,"count":4,"type":"VEC3","max":[0.5,0,0.5],"min":[-0.5,0,-0.5]},{"bufferView":5,"componentType":5126,"count":4,"type":"VEC3","byteOffset":12},{"bufferView":5,"componentType":5126,"count":4,"type":"VEC2","byteOffset":24},{"bufferView":2,"componentType":5123,"count":6,"type":"SCALAR"},{"bufferView":6,"componentType":5126,"count":4,"type":"VEC3","max":[0.5,0,0.5],"min":[-0.5,0,-0.5]},{"bufferView":6,"componentType":5126,"count":4,"type":"VEC3","byteOffset":12},{"bufferView":6,"componentType":5126,"count":4,"type":"VEC2","byteOffset":24},{"bufferView":3,"componentType":5123,"count":6,"type":"SCALAR"},{"bufferView":7,"componentType":5126,"count":4,"type":"VEC3","max":[0.5,0,0.5],"min":[-0.5,0,-0.5]},{"bufferView":7,"componentType":5126,"count":4,"type":"VEC3","byteOffset":12},{"bufferView":7,"componentType":5126,"count":4,"type":"VEC2","byteOffset":24},{"bufferView":4,"componentType":5123,"count":6,"type":"SCALAR"}],"images":[{"name":"06_scaled.jpg","uri":"06_scaled.jpg","mimeType":"image/jpeg"}],"materials":[{"name":"Material_002","pbrMetallicRoughness":{"baseColorFactor":[0.6859572,0.09385884,0.09385884,1],"metallicFactor":0}},{"name":"Material_003","pbrMetallicRoughness":{"baseColorFactor":[1,0.21405226,0.21405226,1],"metallicFactor":0}},{"name":"Material_001","pbrMetallicRoughness":{"baseColorFactor":[0.214041144,0.0331009775,0.0352153778,1],"metallicFactor":0}},{"name":"Material_004","pbrMetallicRoughness":{"baseColorFactor":[0.3185389,0.227714047,0.110491447,1],"metallicFactor":0}},{"name":"Material_005","pbrMetallicRoughness":{"baseColorFactor":[0.774270952,0.52124393,0.256030917,1],"metallicFactor":0}},{"name":"Material_007","pbrMetallicRoughness":{"baseColorFactor":[0.7105533,0.416374981,0.219458014,1],"metallicFactor":0}},{"name":"Material","pbrMetallicRoughness":{"baseColorFactor":[0.8,0.8,0.8,1],"metallicFactor":0}},{"name":"Material_008","pbrMetallicRoughness":{"baseColorFactor":[0.8,0.647558868,0.630778432,1],"metallicFactor":0}},{"name":"Material_010","pbrMetallicRoughness":{"baseColorFactor":[0.201900735,0.139114872,0.0693365,1],"metallicFactor":0}},{"name":"WELL_FLOOR","pbrMetallicRoughness":{"baseColorFactor":[0.817612767,0.1315399,0.11084073,1],"metallicFactor":0}},{"name":"06Material\n25690","pbrMetallicRoughness":{"metallicFactor":0,"baseColorTexture":{"index":0}},"extensions":{"KHR_materials_unlit":{}}},{"name":"06Material\n25690","pbrMetallicRoughness":{"metallicFactor":0,"baseColorTexture":{"index":0}},"extensions":{"KHR_materials_unlit":{}}},{"name":"06Material\n25690","pbrMetallicRoughness":{"metallicFactor":0,"baseColorTexture":{"index":0}},"extensions":{"KHR_materials_unlit":{}}}],"meshes":[{"name":"well","primitives":[{"attributes":{"POSITION":0,"NORMAL":1,"TANGENT":2,"TEXCOORD_0":3},"indices":4,"material":0},{"attributes":{"POSITION":0,"NORMAL":1,"TANGENT":2,"TEXCOORD_0":3},"indices":5,"material":1},{"attributes":{"POSITION":0,"NORMAL":1,"TANGENT":2,"TEXCOORD_0":3},"indices":6,"material":2},{"attributes":{"POSITION":0,"NORMAL":1,"TANGENT":2,"TEXCOORD_0":3},"indices":7,"material":3},{"attributes":{"POSITION":0,"NORMAL":1,"TANGENT":2,"TEXCOORD_0":3},"indices":8,"material":4},{"attributes":{"POSITION":0,"NORMAL":1,"TANGENT":2,"TEXCOORD_0":3},"indices":9,"material":5},{"attributes":{"POSITION":0,"NORMAL":1,"TANGENT":2,"TEXCOORD_0":3},"indices":10,"material":6},{"attributes":{"POSITION":0,"NORMAL":1,"TANGENT":2,"TEXCOORD_0":3},"indices":11,"material":7},{"attributes":{"POSITION":0,"NORMAL":1,"TANGENT":2,"TEXCOORD_0":3},"indices":12,"material":8}]},{"name":"WATER_DRINK","primitives":[{"attributes":{"POSITION":13,"NORMAL":14,"TANGENT":15,"TEXCOORD_0":16},"indices":17,"material":9}]},{"name":"ImageTargetMesh25690","primitives":[{"attributes":{"POSITION":18,"NORMAL":19,"TEXCOORD_0":20},"indices":21,"material":10}]},{"name":"ImageTargetMesh25690","primitives":[{"attributes":{"POSITION":22,"NORMAL":23,"TEXCOORD_0":24},"indices":25,"material":11}]},{"name":"ImageTargetMesh25690","primitives":[{"attributes":{"POSITION":26,"NORMAL":27,"TEXCOORD_0":28},"indices":29,"material":12}]}],"scene":0,"scenes":[{"name":"06","nodes":[8]}],"textures":[{"source":0}]}