{"asset":{"version":"2.0","generator":"Unity 2022.3.28f1 glTFast 6.14.1"},"nodes":[{"name":"LeftToe_End_end","translation":[0,0.07619421,0]},{"name":"LeftToe_End","children":[0],"translation":[6.70552236E-09,0.162272617,0],"rotation":[5.104812E-08,-4.424946E-07,6.58197735E-07,1]},{"name":"LeftToeBase","children":[1],"translation":[8.04662648E-09,0.416249,2.38418574E-09],"rotation":[0.240780324,-0.0235559568,0.00580664864,0.970276356],"scale":[1.00000012,1.00000012,1.00000072]},{"name":"LeftFoot","children":[2],"translation":[1.09672534E-07,1.22503471,-2.38418574E-09],"rotation":[0.542927742,-0.159162909,0.005571839,0.824539661],"scale":[1.00000751,0.999996245,0.999994755]},{"name":"LeftLeg","children":[3],"translation":[-1.07288358E-07,1.26997256,-2.86102289E-08],"rotation":[-0.148975208,-0.07974016,0.006406442,0.985599756],"scale":[1.00000381,0.99999994,0.999994755]},{"name":"LeftUpLeg","children":[4],"translation":[0.2549674,-0.156434879,0.0374890566],"rotation":[-0.0914340541,-0.081926,-0.9887819,0.08507786],"scale":[0.999997854,0.999999464,0.9999709]},{"name":"RightToe_End_end","translation":[0,0.07619421,0]},{"name":"RightToe_End","children":[6],"translation":[4.09316279E-08,0.164731652,1.49011592E-09],"rotation":[1.64145568E-08,-7.05826039E-07,-2.76544569E-07,1],"scale":[1.00000012,1.00000012,1.00000012]},{"name":"RightToeBase","children":[7],"translation":[6.50435652E-08,0.417399555,2.682209E-08],"rotation":[0.240172729,0.02384097,-0.00589962862,0.970419466],"scale":[1.00000107,1.00000048,1.00000012]},{"name":"RightFoot","children":[8],"translation":[-2.38418547E-08,1.2244097,-1.19209274E-08],"rotation":[0.5637283,0.237051025,-0.0152493892,0.7910656],"scale":[0.9999534,1.00002062,1.00002551]},{"name":"RightLeg","children":[9],"translation":[2.98023224E-08,1.26950884,4.76837148E-09],"rotation":[-0.1691475,0.0805797651,-0.01241714,0.9822127],"scale":[0.999988,0.9999882,1.00002456]},{"name":"RightUpLeg","children":[10],"translation":[-0.254967421,-0.156434566,0.0352919847],"rotation":[0.07382682,-0.0735892951,-0.9909503,-0.08456817],"scale":[1.00000989,1.00000012,1.00010562]},{"name":"LeftHandIndex4_end","translation":[0,0.0761941746,0]},{"name":"LeftHandIndex4","children":[12],"translation":[0,0.0761942,-7.62939436E-08],"rotation":[2.32306811E-05,-0.00614151172,-0.00475708442,0.99996984],"scale":[0.99999994,0.99999994,0.99999994]},{"name":"LeftHandIndex3","children":[13],"translation":[0,0.150332466,5.72204577E-08],"rotation":[1.28995862E-06,0.00529063446,-3.16323337E-07,0.999986],"scale":[1.00000012,0.999999046,1]},{"name":"LeftHandIndex2","children":[14],"translation":[5.72204577E-08,0.184936285,9.536742E-08],"rotation":[-1.3573147E-05,0.004752769,7.678969E-07,0.999988735],"scale":[0.9999998,1.00000012,1.000001]},{"name":"LeftHandIndex1","children":[15],"translation":[1.7166137E-07,0.257409155,-0.0009331703],"rotation":[-0.00179866177,-0.00268583046,3.64150128E-06,0.9999948],"scale":[1.00000036,0.99999994,0.9999997]},{"name":"LeftHandThumb4_end","translation":[0,0.0761942,0]},{"name":"LeftHandThumb4","children":[17],"translation":[-3.81469718E-08,0.09322834,-1.90734859E-08],"rotation":[0.03347372,0.195380449,0.165481552,0.966085851],"scale":[0.9999999,1,0.9999999]},{"name":"LeftHandThumb3","children":[18],"translation":[2.86102289E-08,0.117386527,1.90734859E-08],"rotation":[-0.0248198975,-0.186438918,-0.009210049,0.982109845],"scale":[1.00000429,0.9999988,0.999997854]},{"name":"LeftHandThumb2","children":[19],"translation":[1.81198118E-07,0.130845651,0],"rotation":[0.0157243,-0.159823626,-0.07640687,0.9840585],"scale":[0.999999464,1.00000036,0.9999996]},{"name":"LeftHandThumb1","children":[20],"translation":[-0.10861063,0.122288428,1.411438E-06],"rotation":[0.152234256,0.213156819,0.231480315,0.9369129],"scale":[1.00000119,0.9999997,0.9999973]},{"name":"LeftHand","children":[16,21],"translation":[-3.81469718E-08,0.5654917,-1.90734838E-07],"rotation":[-0.06627412,-0.118543737,0.0137886833,0.9906387],"scale":[1.00000083,1.0000006,0.999998868]},{"name":"LeftForeArm","children":[22],"translation":[0,0.7104624,3.81469718E-08],"rotation":[-0.007563307,0.0019009331,0.1790739,0.983804762],"scale":[0.9999998,1.00000048,0.9999997]},{"name":"LeftArm","children":[23],"translation":[-4.29153424E-08,0.336933017,-3.21269027E-07],"rotation":[0.2575748,0.447671235,0.404043138,0.75498],"scale":[1,1.00000238,0.999997139]},{"name":"LeftShoulder","children":[24],"translation":[0.160989687,0.377512962,0.00135440379],"rotation":[0.554321349,0.400667518,-0.6403492,0.3494944],"scale":[1.00000012,0.9999992,1.00000036]},{"name":"HeadTop_End_end","translation":[0,0.07619446,0]},{"name":"HeadTop_End","children":[26],"translation":[1.66893E-08,0.750387847,-2.20537189E-08],"rotation":[-0.0856882,-3.58714267E-08,-1.07497485E-07,0.996322036]},{"name":"Head_1","children":[27],"translation":[-2.98023184E-09,0.279652864,-2.49594443E-08],"rotation":[-0.151834473,0.0237806346,0.00576558663,0.988103032],"scale":[1.00000048,1.00000525,0.9999958]},{"name":"Neck_1","children":[28],"translation":[-1.3306736E-07,0.4225662,2.16066827E-08],"rotation":[0.126341626,0.00482867239,0.00247738673,0.99197197],"scale":[0.9999999,1.00000024,0.9999996]},{"name":"RightHandIndex4_end","translation":[0,0.07619398,0]},{"name":"RightHandIndex4","children":[30],"translation":[-4.76837148E-09,0.0805105,9.536743E-09],"rotation":[1.87473925E-05,0.00363980071,0.00309882476,0.9999886],"scale":[0.9999999,0.9999999,0.9999999]},{"name":"RightHandIndex3","children":[31],"translation":[2.62260436E-08,0.149287149,-3.81469718E-08],"rotation":[4.36731671E-06,-0.00280984375,1.78342009E-06,0.999996066],"scale":[0.9999996,1.00000083,0.9999995]},{"name":"RightHandIndex2","children":[32],"translation":[5.24520871E-08,0.152059227,0],"rotation":[-1.67045637E-05,-0.005296577,-3.001124E-06,0.999986],"scale":[1,1.00000024,1.000001]},{"name":"RightHandIndex1","children":[33],"translation":[1.2636184E-07,0.291375965,-0.000361652375],"rotation":[-0.000608715054,0.00107064843,5.883746E-07,0.9999993],"scale":[0.9999997,0.9999998,0.9999998]},{"name":"RightHandThumb4_end","translation":[0,0.07619403,0]},{"name":"RightHandThumb4","children":[35],"translation":[0,0.0936739743,1.04904174E-07],"rotation":[0.0217379667,-0.16216363,-0.131070063,0.9777787]},{"name":"RightHandThumb3","children":[36],"translation":[9.536742E-08,0.116847694,-2.86102289E-08],"rotation":[-0.0208211467,0.128355816,-0.005086573,0.991496563],"scale":[0.9999993,1,0.9999993]},{"name":"RightHandThumb2","children":[37],"translation":[-1.14440915E-07,0.13361311,-3.81469718E-08],"rotation":[0.0245072488,0.161202967,0.08212702,0.983192861],"scale":[1.000001,1.00000238,1.000001]},{"name":"RightHandThumb1","children":[38],"translation":[0.105555438,0.129435673,-3.81469718E-08],"rotation":[0.136408523,-0.186018646,-0.240040466,0.9429583],"scale":[0.999996841,1.00000036,1.00000358]},{"name":"RightHand","children":[34,39],"translation":[-2.86102289E-08,0.56549114,0],"rotation":[0.009541257,0.2624925,0.0683499649,0.962462962],"scale":[0.9999985,0.99999994,1.00000167]},{"name":"RightForeArm","children":[40],"translation":[-8.58306848E-08,0.710030556,3.81469718E-08],"rotation":[-0.00648125075,-0.00183242769,-0.167554647,0.9858398],"scale":[0.99999994,0.9999998,0.9999997]},{"name":"RightArm","children":[41],"translation":[4.768371E-08,0.336930871,-1.335144E-07],"rotation":[0.3321787,-0.337364584,-0.22766909,0.8508873],"scale":[0.9999996,1.00000083,1.00000048]},{"name":"RightShoulder","children":[42],"translation":[-0.160989985,0.3774932,0.000122696452],"rotation":[0.6616063,-0.354295969,0.527716339,0.3978278],"scale":[0.9999992,0.9999999,1.00000048]},{"name":"Spine2","children":[25,29,43],"translation":[2.08616258E-09,0.375614762,-5.1446257E-08],"rotation":[0.02032594,-0.00765812,-0.00378167257,0.999756932],"scale":[0.9999999,0.9999998,1.00000048]},{"name":"Spine1","children":[44],"translation":[-8.493662E-09,0.328662574,1.72853465E-08],"rotation":[0.0202791058,-0.00777898263,-0.003780671,0.999757],"scale":[0.999999464,1.00000012,0.9999994]},{"name":"Spine","children":[45],"translation":[-1.504086E-07,0.281673223,0.004616039],"rotation":[0.0182885882,-0.00383785134,0.009299784,0.999782145],"scale":[1.00000048,0.9999999,1.00000048]},{"name":"Hips_1","children":[5,11,46],"translation":[0.0049730204,0.0005558154,2.79804659],"rotation":[0.72771883,0.0105375163,0.0242837667,0.6853646],"scale":[0.999999464,0.999999762,0.9999997]},{"name":"Armature","children":[47],"rotation":[-0.706984758,0,0,0.7072288]},{"name":"Woman","mesh":0,"translation":[0,0,-2.38418579E-07],"rotation":[-0.706984758,0,0,0.7072288],"scale":[100,100,100],"skin":0},{"name":"Animated_Woman","children":[48,49],"translation":[0.00177999982,-0.000859999855,0.00035],"rotation":[0.7071068,0,0,0.7071068],"scale":[0.00158880919,0.00220531924,0.00200605788]},{"name":"BaseHuman","mesh":1,"translation":[0.359999985,-0.209999859,0.004100678],"rotation":[-0.706339955,-0.032923013,-0.032923013,0.706339955],"scale":[100,100,100],"skin":1},{"name":"Head_end","translation":[0,0.005158337,0]},{"name":"Head","children":[52],"translation":[-3.49245958E-12,0.00195343513,-2.38542269E-10],"rotation":[-0.115399361,-0.000198400681,0.00300095975,0.9933146],"scale":[0.99999994,0.99999994,0.99999994]},{"name":"Neck","children":[53],"translation":[1.30967231E-12,0.009521058,2.53930921E-11],"rotation":[0.08210647,8.088963E-06,0.000140854041,0.9966236],"scale":[1,1.00000012,1.00000012]},{"name":"Fingers_L_end","translation":[0,0.00162841554,0]},{"name":"Fingers_L","children":[55],"translation":[-7.4505796E-10,0.00209138333,1.86264511E-11],"rotation":[-0.6273523,0.0107118813,-0.105103984,0.7715358],"scale":[0.99999994,1.00000012,1.00000024]},{"name":"MiddleHand_L","children":[56],"translation":[-1.49011609E-10,0.00202119513,-5.587935E-10],"rotation":[0.0341194347,-0.009062325,0.000488291844,0.999376535],"scale":[0.99999994,1,1.00000012]},{"name":"Thumb2_L_end","translation":[0,0.00184693,0]},{"name":"Thumb2_L","children":[58],"translation":[5.96046434E-10,0.00156702532,-7.4505796E-10],"rotation":[-0.414007485,-0.837935746,0.176949292,0.308464825],"scale":[0.9999999,0.9999998,0.999999762]},{"name":"Thumb1_L","children":[59],"translation":[0.0009553676,0.0007704745,-0.000190326638],"rotation":[-0.127050862,-0.8886151,0.1271159,-0.4219751],"scale":[1.00000012,0.99999994,1]},{"name":"Palm_L","children":[57,60],"translation":[-1.49011609E-10,0.00821869448,-5.21540644E-10],"rotation":[-0.09158713,0.0118114864,-0.00105490664,0.995726466],"scale":[1,0.99999994,1]},{"name":"LowerArm_L","children":[61],"translation":[-6.33299357E-10,0.00742473,3.282912E-10],"rotation":[-0.0336049423,-0.0176892914,-0.181550011,0.9826482],"scale":[0.9999999,1.00000012,1.00000012]},{"name":"UpperArm_L","children":[62],"translation":[-1.983717E-09,0.00315858424,8.405186E-10],"rotation":[-0.564151943,-0.3125053,-0.6732204,0.361728251],"scale":[1.00000012,1.00000024,1.00000024]},{"name":"Shoulder_L","children":[63],"translation":[0.00246169046,0.00483653229,0.00030734454],"rotation":[0.0747454241,0.0304807518,-0.376361847,0.922949553],"scale":[1,1,1.00000012]},{"name":"Fingers_R_end","translation":[0,0.00200685579,0]},{"name":"Fingers_R","children":[65],"translation":[-1.11758706E-10,0.00229243981,-1.39698378E-10],"rotation":[-0.567521334,0.0206296127,0.05819247,0.8210406],"scale":[0.99999994,1.00000012,1]},{"name":"Thumb2_R_end","translation":[0,0.00184693,0]},{"name":"Thumb2_R","children":[67],"translation":[-1.49011609E-10,0.00156702916,-1.34110445E-09],"rotation":[0.09193235,-0.8556646,-0.5031183,-0.07911083],"scale":[1,0.9999999,0.9999999]},{"name":"Thumb1_R","children":[68],"translation":[-0.00128886441,-0.0007000994,-0.000165862235],"rotation":[0.194684327,-0.8634474,-0.03409539,-0.4641057],"scale":[1.00000012,1.00000024,1.00000012]},{"name":"MiddleHand_R","children":[66,69],"translation":[7.45058043E-11,0.00213322463,-2.70083539E-10],"rotation":[0.0334300958,0.00906240847,-0.000478460774,0.9993999],"scale":[1,1.00000012,1]},{"name":"Palm_R","children":[70],"translation":[1.11758706E-10,0.008312068,-1.03376807E-09],"rotation":[-0.0878326148,-0.0118210046,0.00101115531,0.9960646],"scale":[0.99999994,0.99999994,0.99999994]},{"name":"LowerArm_R","children":[71],"translation":[2.23517413E-10,0.006825552,9.825453E-10],"rotation":[-0.0366389565,-0.0356387943,0.05927814,0.9969321],"scale":[0.99999994,1,1]},{"name":"UpperArm_R","children":[72],"translation":[5.494803E-10,0.00315858517,1.21071916E-10],"rotation":[0.596562862,-0.350050658,-0.636853158,-0.3405809],"scale":[0.9999999,1.00000024,1.00000048]},{"name":"Shoulder_R","children":[73],"translation":[-0.00231965049,0.00482846331,0.0003788404],"rotation":[0.07474563,-0.0304801725,0.376361936,0.9229495]},{"name":"Torso","children":[54,64,74],"translation":[3.20142133E-12,0.007706758,-6.639311E-11],"rotation":[0.01124358,-8.31911962E-07,2.76048784E-09,0.9999368],"scale":[1,1,0.99999994]},{"name":"Abdomen","children":[75],"translation":[8.14907256E-12,0.003933567,1.13650457E-10],"rotation":[0.08057473,4.36527131E-07,4.99171229E-08,0.996748567]},{"name":"Hips","children":[76],"translation":[-2.05049873E-05,-0.0016270061,-0.00112671684],"rotation":[-0.09921335,-2.66444573E-07,-4.452934E-08,0.9950662],"scale":[1,0.99999994,1]},{"name":"LowerLeg_L_end","translation":[0,0.0129618011,0]},{"name":"LowerLeg_L","children":[78],"translation":[7.45058043E-11,0.008284609,7.4505796E-10],"rotation":[0.2303388,1.07668932E-08,-4.211051E-08,0.9731105],"scale":[1.00000012,1.00000048,1]},{"name":"UpperLeg_L","children":[79],"translation":[0.002996446,0.000337779435,-0.00182561169],"rotation":[0.981627,0.054592073,-0.162538439,0.0837225541],"scale":[0.99999994,1.00000036,1.00000632]},{"name":"LowerLeg_R_end","translation":[0,0.0129200621,0]},{"name":"LowerLeg_R","children":[81],"translation":[-5.96046434E-10,0.00832634047,1.58324839E-10],"rotation":[0.246602044,-1.11115774E-07,2.35445334E-08,0.9691168],"scale":[0.99999994,0.9999998,1.00000012]},{"name":"UpperLeg_R","children":[82],"translation":[-0.00319736777,0.0003377797,-0.00182561646],"rotation":[0.9938355,-0.0169994328,-0.009405931,0.109149225],"scale":[0.9999999,1.0000006,1.00000918]},{"name":"Body","children":[77,80,83],"translation":[1.07378912E-06,0.0207996443,0.002854702],"rotation":[-0.000517633,0.00364294136,2.4428E-05,0.999993265],"scale":[0.9999999,1,1]},{"name":"Foot_L_end","translation":[0,0.003255489,0]},{"name":"Foot_L","children":[85],"translation":[0.00383639243,0.000600924,-0.00148670538],"rotation":[-0.138043612,-0.6825933,-0.7050899,0.13363643],"scale":[0.99999994,0.9999998,1]},{"name":"Foot_R_end","translation":[0,0.00325548975,0]},{"name":"Foot_R","children":[87],"translation":[-0.00398397632,0.000600924,-0.000673433],"rotation":[0.0853200555,-0.6906282,-0.71339345,-0.08260236],"scale":[0.99999994,0.9999999,1]},{"name":"PoleTarget_L_end","translation":[0,0.00309120771,0]},{"name":"PoleTarget_L","children":[89],"translation":[0.008241551,0.0108235106,0.0132812653],"rotation":[4.62692037E-12,-1.19209218E-07,5.38935053E-13,1]},{"name":"PoleTarget_R_end","translation":[0,0.00309120771,0]},{"name":"PoleTarget_R","children":[91],"translation":[-0.00319619477,0.0109649636,0.018037945],"rotation":[4.62692037E-12,-1.19209218E-07,5.38935053E-13,1]},{"name":"Bone","children":[84,86,88,90,92],"translation":[-3.195463E-05,2.79434016E-06,-5.885174E-05],"rotation":[0.7069847,2.53316784E-07,-1.72490218E-07,0.707228839]},{"name":"HumanArmature","children":[93],"rotation":[-0.706984758,0,0,0.7072288],"scale":[100,100,100]},{"name":"Male_Casual__5_","children":[51,94],"translation":[-0.00237,3.99999954E-05,0.00038],"rotation":[0.7071068,0,0,0.7071068],"scale":[0.0017,0.00235965569,0.00214644941]},{"name":"GENERE","children":[50,95],"mesh":2,"translation":[0,0.920999944,-0.329999983],"rotation":[0,0,-1,6.123234E-17],"scale":[80,63.36046,57.63553]},{"name":"ImageTargetPreview","mesh":3},{"name":"ImageTargetPreviewRoot","children":[97]},{"name":"ImageTargetPreview","mesh":4},{"name":"ImageTargetPreviewRoot","children":[99]},{"name":"ImageTargetPreview","mesh":5},{"name":"ImageTargetPreviewRoot","children":[101]},{"name":"05","children":[96,98,100,102],"translation":[-1.47,0,-5.91]}],"extensionsRequired":["KHR_materials_unlit"],"extensionsUsed":["KHR_materials_unlit"],"buffers":[{"uri":"05.bin","byteLength":723736}],"bufferViews":[{"buffer":0,"byteLength":2624},{"buffer":0,"byteLength":1984,"byteOffset":2624},{"buffer":0,"byteLength":1608,"byteOffset":4608,"target":34963},{"buffer":0,"byteLength":12,"byteOffset":6216,"target":34963},{"buffer":0,"byteLength":12,"byteOffset":6228,"target":34963},{"buffer":0,"byteLength":12,"byteOffset":6240,"target":34963},{"buffer":0,"byteLength":11448,"byteOffset":6252,"target":34963},{"buffer":0,"byteLength":11076,"byteOffset":17700,"target":34963},{"buffer":0,"byteLength":128,"byteOffset":28776,"byteStride":32,"target":34962},{"buffer":0,"byteLength":128,"byteOffset":28904,"byteStride":32,"target":34962},{"buffer":0,"byteLength":128,"byteOffset":29032,"byteStride":32,"target":34962},{"buffer":0,"byteLength":13056,"byteOffset":29160,"byteStride":48,"target":34962},{"buffer":0,"byteLength":148800,"byteOffset":42216,"byteStride":40,"target":34962},{"buffer":0,"byteLength":119040,"byteOffset":191016,"byteStride":32,"target":34962},{"buffer":0,"byteLength":206840,"byteOffset":310056,"byteStride":40,"target":34962},{"buffer":0,"byteLength":41368,"byteOffset":516896,"byteStride":8,"target":34962},{"buffer":0,"byteLength":165472,"byteOffset":558264,"byteStride":32,"target":34962}],"accessors":[{"bufferView":14,"componentType":5126,"count":5171,"type":"VEC3","max":[0.00449454971,0.0240912512,0.05285285],"min":[-0.00534422975,-0.0240912512,-0.000166341662]},{"bufferView":14,"componentType":5126,"count":5171,"type":"VEC3","byteOffset":12},{"bufferView":14,"componentType":5126,"count":5171,"type":"VEC4","byteOffset":24},{"bufferView":15,"componentType":5126,"count":5171,"type":"VEC2"},{"bufferView":16,"componentType":5126,"count":5171,"type":"VEC4"},{"bufferView":16,"componentType":5123,"count":5171,"type":"VEC4","byteOffset":16},{"bufferView":0,"componentType":5126,"count":41,"type":"MAT4"},{"bufferView":12,"componentType":5126,"count":3720,"type":"VEC3","max":[0.0259858239,0.003993991,0.04844611],"min":[-0.0259858239,-0.00543381553,3.35946679E-05]},{"bufferView":12,"componentType":5126,"count":3720,"type":"VEC3","byteOffset":12},{"bufferView":12,"componentType":5126,"count":3720,"type":"VEC4","byteOffset":24},{"bufferView":13,"componentType":5126,"count":3720,"type":"VEC4"},{"bufferView":13,"componentType":5123,"count":3720,"type":"VEC4","byteOffset":16},{"bufferView":1,"componentType":5126,"count":31,"type":"MAT4"},{"bufferView":11,"componentType":5126,"count":272,"type":"VEC3","max":[0.01,0.01,0.0003558332],"min":[-0.01,-0.01,0]},{"bufferView":11,"componentType":5126,"count":272,"type":"VEC3","byteOffset":12},{"bufferView":11,"componentType":5126,"count":272,"type":"VEC4","byteOffset":24},{"bufferView":11,"componentType":5126,"count":272,"type":"VEC2","byteOffset":40},{"bufferView":2,"componentType":5123,"count":804,"type":"SCALAR"},{"bufferView":8,"componentType":5126,"count":4,"type":"VEC3","max":[0.5,0,0.5],"min":[-0.5,0,-0.5]},{"bufferView":8,"componentType":5126,"count":4,"type":"VEC3","byteOffset":12},{"bufferView":8,"componentType":5126,"count":4,"type":"VEC2","byteOffset":24},{"bufferView":3,"componentType":5123,"count":6,"type":"SCALAR"},{"bufferView":9,"componentType":5126,"count":4,"type":"VEC3","max":[0.5,0,0.5],"min":[-0.5,0,-0.5]},{"bufferView":9,"componentType":5126,"count":4,"type":"VEC3","byteOffset":12},{"bufferView":9,"componentType":5126,"count":4,"type":"VEC2","byteOffset":24},{"bufferView":4,"componentType":5123,"count":6,"type":"SCALAR"},{"bufferView":10,"componentType":5126,"count":4,"type":"VEC3","max":[0.5,0,0.5],"min":[-0.5,0,-0.5]},{"bufferView":10,"componentType":5126,"count":4,"type":"VEC3","byteOffset":12},{"bufferView":10,"componentType":5126,"count":4,"type":"VEC2","byteOffset":24},{"bufferView":5,"componentType":5123,"count":6,"type":"SCALAR"},{"bufferView":6,"componentType":5123,"count":5724,"type":"SCALAR"},{"bufferView":7,"componentType":5123,"count":954,"type":"SCALAR"},{"bufferView":7,"componentType":5123,"count":2676,"type":"SCALAR","byteOffset":1908},{"bufferView":7,"componentType":5123,"count":288,"type":"SCALAR","byteOffset":7260},{"bufferView":7,"componentType":5123,"count":870,"type":"SCALAR","byteOffset":7836},{"bufferView":7,"componentType":5123,"count":84,"type":"SCALAR","byteOffset":9576},{"bufferView":7,"componentType":5123,"count":666,"type":"SCALAR","byteOffset":9744}],"images":[{"name":"LightSkin.png","uri":"LightSkin.png","mimeType":"image/png"},{"name":"05_scaled.jpg","uri":"05_scaled.jpg","mimeType":"image/jpeg"}],"materials":[{"name":"LightSkin_1","pbrMetallicRoughness":{"metallicFactor":0,"baseColorTexture":{"index":0}}},{"name":"traffic_lights_red_mat","pbrMetallicRoughness":{"baseColorFactor":[0.8,0.06435127,0.0495782,1],"metallicFactor":0}},{"name":"Top_edge 1","pbrMetallicRoughness":{"baseColorFactor":[1,0.5903313,0.325915784,1],"metallicFactor":0}},{"name":"Pants","pbrMetallicRoughness":{"baseColorFactor":[0.04857401,0.0423531234,0.0423531234,1],"metallicFactor":0}},{"name":"Eyes","pbrMetallicRoughness":{"baseColorFactor":[0.0203142054,0.0203142054,0.0203142054,1],"metallicFactor":0}},{"name":"Socks","pbrMetallicRoughness":{"baseColorFactor":[0.405653566,0.3478341,0.3478341,1],"metallicFactor":0}},{"name":"Hair","pbrMetallicRoughness":{"baseColorFactor":[0.0417730846,0.02797982,0.02881827,1],"metallicFactor":0}},{"name":"civil_truck_B_mat","pbrMetallicRoughness":{"baseColorFactor":[0.87962234,0.201556012,0.0382044278,1],"metallicFactor":0}},{"name":"05Material\n25632","pbrMetallicRoughness":{"metallicFactor":0,"baseColorTexture":{"index":1}},"extensions":{"KHR_materials_unlit":{}}},{"name":"05Material\n25632","pbrMetallicRoughness":{"metallicFactor":0,"baseColorTexture":{"index":1}},"extensions":{"KHR_materials_unlit":{}}},{"name":"05Material\n25632","pbrMetallicRoughness":{"metallicFactor":0,"baseColorTexture":{"index":1}},"extensions":{"KHR_materials_unlit":{}}}],"meshes":[{"name":"Woman","primitives":[{"attributes":{"POSITION":0,"NORMAL":1,"TANGENT":2,"TEXCOORD_0":3,"JOINTS_0":5,"WEIGHTS_0":4},"indices":30,"material":0}]},{"name":"BaseHuman","primitives":[{"attributes":{"POSITION":7,"NORMAL":8,"TANGENT":9,"JOINTS_0":11,"WEIGHTS_0":10},"indices":31,"material":1},{"attributes":{"POSITION":7,"NORMAL":8,"TANGENT":9,"JOINTS_0":11,"WEIGHTS_0":10},"indices":32,"material":2},{"attributes":{"POSITION":7,"NORMAL":8,"TANGENT":9,"JOINTS_0":11,"WEIGHTS_0":10},"indices":33,"material":3},{"attributes":{"POSITION":7,"NORMAL":8,"TANGENT":9,"JOINTS_0":11,"WEIGHTS_0":10},"indices":34,"material":4},{"attributes":{"POSITION":7,"NORMAL":8,"TANGENT":9,"JOINTS_0":11,"WEIGHTS_0":10},"indices":35,"material":5},{"attributes":{"POSITION":7,"NORMAL":8,"TANGENT":9,"JOINTS_0":11,"WEIGHTS_0":10},"indices":36,"material":6}]},{"name":"GENERE","primitives":[{"attributes":{"POSITION":13,"NORMAL":14,"TANGENT":15,"TEXCOORD_0":16},"indices":17,"material":7}]},{"name":"ImageTargetMesh25632","primitives":[{"attributes":{"POSITION":18,"NORMAL":19,"TEXCOORD_0":20},"indices":21,"material":8}]},{"name":"ImageTargetMesh25632","primitives":[{"attributes":{"POSITION":22,"NORMAL":23,"TEXCOORD_0":24},"indices":25,"material":9}]},{"name":"ImageTargetMesh25632","primitives":[{"attributes":{"POSITION":26,"NORMAL":27,"TEXCOORD_0":28},"indices":29,"material":10}]}],"samplers":[{"wrapS":33071,"wrapT":33071}],"scene":0,"scenes":[{"name":"05","nodes":[103]}],"skins":[{"inverseBindMatrices":6,"joints":[47,46,45,44,29,28,27,25,24,23,22,21,20,19,18,16,15,14,13,43,42,41,40,39,38,37,36,34,33,32,31,5,4,3,2,1,11,10,9,8,7]},{"inverseBindMatrices":12,"joints":[93,86,84,77,76,75,54,53,64,63,62,61,57,56,60,59,74,73,72,71,70,69,68,66,80,79,83,82,90,88,92]}],"textures":[{"source":0,"sampler":0},{"source":1}]}