{"asset":{"version":"2.0","generator":"Unity 2022.3.28f1 glTFast 6.14.1"},"nodes":[{"name":"Bread","mesh":0,"translation":[0.397999972,-0.31799987,0.9079999],"rotation":[0.7071068,0,0,0.7071068]},{"name":"Broccoli","mesh":1,"translation":[-0.3990309,-0.358041555,0.8703533],"rotation":[0.678865731,0.197841689,-0.197841689,0.678865731]},{"name":"Broccoli (1)","mesh":1,"translation":[-0.328749865,-0.330958843,0.8703533],"rotation":[0.488212734,0,0,0.872724652]},{"name":"Broccoli (2)","mesh":1,"translation":[-0.39341712,-0.2949236,0.8703533],"rotation":[0.5979532,0,0,0.801531]},{"name":"Burger","mesh":2,"translation":[0.258478522,0.323300153,0.861999869],"rotation":[0.7071068,0,0,0.7071068]},{"name":"Cake","mesh":3,"translation":[-0.3819189,0.2984289,0.855999947],"rotation":[0.7071068,0,0,0.7071068]},{"name":"ArnoldLight001","translation":[-19.158083,17.4740562,-1.9943527],"rotation":[-0.7071068,0,0,0.7071068]},{"name":"Cover","mesh":4,"translation":[-18.9272213,3.13582444,-0.6828037],"rotation":[8.146034E-08,0,0,1]},{"name":"Legs","mesh":5,"translation":[-18.9272213,3.13582444,-0.6828037],"rotation":[-0.7071068,0,0,0.7071068],"scale":[0.99999994,0.99999994,0.99999994]},{"name":"Chair","children":[6,7,8],"translation":[-0.0925827,-1.5849998,-0.094],"rotation":[0.5567385,-0.4359384,-0.4359384,0.5567385],"scale":[0.12,0.12,0.12]},{"name":"ArnoldLight001_2","translation":[-19.158083,17.4740562,-1.9943527],"rotation":[-0.7071068,0,0,0.7071068]},{"name":"Cover_2","mesh":4,"translation":[-18.9272213,3.13582444,-0.6828037],"rotation":[8.146034E-08,0,0,1]},{"name":"Legs_2","mesh":5,"translation":[-18.9272213,3.13582444,-0.6828037],"rotation":[-0.7071068,0,0,0.7071068],"scale":[0.99999994,0.99999994,0.99999994]},{"name":"Chair__1_","children":[10,11,12],"translation":[0.104,-1.612,-0.094],"rotation":[0.5000003,-0.499999762,-0.499999762,0.5000003],"scale":[0.12,0.12,0.12]},{"name":"ArnoldLight001_3","translation":[-19.158083,17.4740562,-1.9943527],"rotation":[-0.7071068,0,0,0.7071068]},{"name":"Cover_3","mesh":4,"translation":[-18.9272213,3.13582444,-0.6828037],"rotation":[8.146034E-08,0,0,1]},{"name":"Legs_3","mesh":5,"translation":[-18.9272213,3.13582444,-0.6828037],"rotation":[-0.7071068,0,0,0.7071068],"scale":[0.99999994,0.99999994,0.99999994]},{"name":"Chair__2_","children":[14,15,16],"translation":[-0.344902039,1.364,-0.094],"rotation":[-0.482588917,-0.5168249,-0.5168249,-0.482588917],"scale":[0.12,0.12,0.12]},{"name":"ArnoldLight001_1","translation":[-19.158083,17.4740562,-1.9943527],"rotation":[-0.7071068,0,0,0.7071068]},{"name":"Cover_1","mesh":4,"translation":[-18.9272213,3.13582444,-0.6828037],"rotation":[8.146034E-08,0,0,1]},{"name":"Legs_1","mesh":5,"translation":[-18.9272213,3.13582444,-0.6828037],"rotation":[-0.7071068,0,0,0.7071068],"scale":[0.99999994,0.99999994,0.99999994]},{"name":"Chair__3_","children":[18,19,20],"translation":[0.6754761,1.412,-0.094],"rotation":[0.518849,0.480412036,0.480412036,0.518849],"scale":[0.12,0.12,0.12]},{"name":"CoffeCup","mesh":6,"translation":[-0.198999986,0.19599992,0.8489999],"rotation":[0.7071068,0,0,0.7071068]},{"name":"Pear","mesh":7,"translation":[0.0330023766,-0.0513771661,0.904999852],"rotation":[0.7071068,0,0,0.7071068]},{"name":"Plane__3_","mesh":8,"translation":[-0.0135040283,0.120599784,-0.09595879],"scale":[274.995,254.205215,26.5696068]},{"name":"Plate_01","mesh":9,"translation":[0.285999984,0.313,0.844],"rotation":[0.7071068,0,0,0.7071068]},{"name":"Plate_01 (1)","mesh":9,"translation":[-0.35799998,-0.343,0.844],"rotation":[0.7071068,0,0,0.7071068]},{"name":"Plate_01 (2)","mesh":9,"translation":[-0.35799998,0.272,0.844],"rotation":[0.7071068,0,0,0.7071068]},{"name":"Plate_01 (3)","mesh":9,"translation":[0.06499999,-0.028,0.844],"rotation":[0.7071068,0,0,0.7071068]},{"name":"Plate_01 (4)","mesh":9,"translation":[0.403,-0.322,0.844],"rotation":[0.7071068,0,0,0.7071068]},{"name":"Tomato","mesh":10,"translation":[0.11500001,-0.000737070863,0.8749998],"rotation":[0.7071068,0,0,0.7071068]},{"name":"Tomato (1)","mesh":10,"translation":[0.0884689,-0.0773607343,0.882999837],"rotation":[0.7071068,0,0,0.7071068]},{"name":"FOOD (1)","children":[0,1,2,3,4,5,9,13,17,21,22,23,24,25,26,27,28,29,30,31],"mesh":11,"translation":[0,1.016,-0.354],"scale":[0.4,0.4,0.4]},{"name":"ImageTargetPreview","mesh":12},{"name":"ImageTargetPreviewRoot","children":[33]},{"name":"ImageTargetPreview","mesh":13},{"name":"ImageTargetPreviewRoot","children":[35]},{"name":"ImageTargetPreview","mesh":14},{"name":"ImageTargetPreviewRoot","children":[37]},{"name":"02","children":[32,34,36,38],"translation":[4.4,-1.1,5.46]}],"extensionsRequired":["KHR_materials_unlit"],"extensionsUsed":["KHR_materials_unlit"],"buffers":[{"uri":"02.bin","byteLength":316764}],"bufferViews":[{"buffer":0,"byteLength":264,"target":34963},{"buffer":0,"byteLength":1548,"byteOffset":264,"target":34963},{"buffer":0,"byteLength":2112,"byteOffset":1812,"target":34963},{"buffer":0,"byteLength":2256,"byteOffset":3924,"target":34963},{"buffer":0,"byteLength":1776,"byteOffset":6180,"target":34963},{"buffer":0,"byteLength":5496,"byteOffset":7956,"target":34963},{"buffer":0,"byteLength":1992,"byteOffset":13452,"target":34963},{"buffer":0,"byteLength":864,"byteOffset":15444,"target":34963},{"buffer":0,"byteLength":1608,"byteOffset":16308,"target":34963},{"buffer":0,"byteLength":384,"byteOffset":17916,"target":34963},{"buffer":0,"byteLength":660,"byteOffset":18300,"target":34963},{"buffer":0,"byteLength":1560,"byteOffset":18960,"target":34963},{"buffer":0,"byteLength":12,"byteOffset":20520,"target":34963},{"buffer":0,"byteLength":12,"byteOffset":20532,"target":34963},{"buffer":0,"byteLength":12,"byteOffset":20544,"target":34963},{"buffer":0,"byteLength":128,"byteOffset":20556,"byteStride":32,"target":34962},{"buffer":0,"byteLength":128,"byteOffset":20684,"byteStride":32,"target":34962},{"buffer":0,"byteLength":128,"byteOffset":20812,"byteStride":32,"target":34962},{"buffer":0,"byteLength":10944,"byteOffset":20940,"byteStride":48,"target":34962},{"buffer":0,"byteLength":58752,"byteOffset":31884,"byteStride":48,"target":34962},{"buffer":0,"byteLength":13056,"byteOffset":90636,"byteStride":48,"target":34962},{"buffer":0,"byteLength":15168,"byteOffset":103692,"byteStride":48,"target":34962},{"buffer":0,"byteLength":6832,"byteOffset":118860,"byteStride":56,"target":34962},{"buffer":0,"byteLength":21616,"byteOffset":125692,"byteStride":56,"target":34962},{"buffer":0,"byteLength":46816,"byteOffset":147308,"byteStride":56,"target":34962},{"buffer":0,"byteLength":44352,"byteOffset":194124,"byteStride":56,"target":34962},{"buffer":0,"byteLength":30912,"byteOffset":238476,"byteStride":56,"target":34962},{"buffer":0,"byteLength":22624,"byteOffset":269388,"byteStride":56,"target":34962},{"buffer":0,"byteLength":6384,"byteOffset":292012,"byteStride":56,"target":34962},{"buffer":0,"byteLength":18368,"byteOffset":298396,"byteStride":56,"target":34962}],"accessors":[{"bufferView":22,"componentType":5126,"count":122,"type":"VEC3","max":[0.0851233155,0.08993755,0.0689164847],"min":[-0.0851233155,-0.06419812,-0.0689030141]},{"bufferView":22,"componentType":5126,"count":122,"type":"VEC3","byteOffset":12},{"bufferView":22,"componentType":5126,"count":122,"type":"VEC4","byteOffset":24},{"bufferView":22,"componentType":5126,"count":122,"type":"VEC2","byteOffset":40},{"bufferView":22,"componentType":5126,"count":122,"type":"VEC2","byteOffset":48},{"bufferView":0,"componentType":5123,"count":132,"type":"SCALAR"},{"bufferView":23,"componentType":5126,"count":386,"type":"VEC3","max":[0.0294022989,0.0474984869,0.0352723747],"min":[-0.0387540758,-0.04068335,-0.0342870355]},{"bufferView":23,"componentType":5126,"count":386,"type":"VEC3","byteOffset":12},{"bufferView":23,"componentType":5126,"count":386,"type":"VEC4","byteOffset":24},{"bufferView":23,"componentType":5126,"count":386,"type":"VEC2","byteOffset":40},{"bufferView":23,"componentType":5126,"count":386,"type":"VEC2","byteOffset":48},{"bufferView":1,"componentType":5123,"count":774,"type":"SCALAR"},{"bufferView":24,"componentType":5126,"count":836,"type":"VEC3","max":[0.06833801,0.08350451,0.0657915547],"min":[-0.06619267,-0.00149140507,-0.0666295961]},{"bufferView":24,"componentType":5126,"count":836,"type":"VEC3","byteOffset":12},{"bufferView":24,"componentType":5126,"count":836,"type":"VEC4","byteOffset":24},{"bufferView":24,"componentType":5126,"count":836,"type":"VEC2","byteOffset":40},{"bufferView":24,"componentType":5126,"count":836,"type":"VEC2","byteOffset":48},{"bufferView":2,"componentType":5123,"count":1056,"type":"SCALAR"},{"bufferView":25,"componentType":5126,"count":792,"type":"VEC3","max":[0.06443164,0.09663769,0.0941953],"min":[-0.06409201,0,-0.06542594]},{"bufferView":25,"componentType":5126,"count":792,"type":"VEC3","byteOffset":12},{"bufferView":25,"componentType":5126,"count":792,"type":"VEC4","byteOffset":24},{"bufferView":25,"componentType":5126,"count":792,"type":"VEC2","byteOffset":40},{"bufferView":25,"componentType":5126,"count":792,"type":"VEC2","byteOffset":48},{"bufferView":3,"componentType":5123,"count":1128,"type":"SCALAR"},{"bufferView":18,"componentType":5126,"count":228,"type":"VEC3","max":[1.44683611,0.07732187,0.754566431],"min":[-1.44683611,-0.0773219,-2.26369929]},{"bufferView":18,"componentType":5126,"count":228,"type":"VEC3","byteOffset":12},{"bufferView":18,"componentType":5126,"count":228,"type":"VEC4","byteOffset":24},{"bufferView":18,"componentType":5126,"count":228,"type":"VEC2","byteOffset":40},{"bufferView":4,"componentType":5123,"count":888,"type":"SCALAR"},{"bufferView":19,"componentType":5126,"count":1224,"type":"VEC3","max":[1.34874249,2.26602125,3.674295],"min":[-2.18801928,-0.7568879,-3.135035]},{"bufferView":19,"componentType":5126,"count":1224,"type":"VEC3","byteOffset":12},{"bufferView":19,"componentType":5126,"count":1224,"type":"VEC4","byteOffset":24},{"bufferView":19,"componentType":5126,"count":1224,"type":"VEC2","byteOffset":40},{"bufferView":5,"componentType":5123,"count":2748,"type":"SCALAR"},{"bufferView":26,"componentType":5126,"count":552,"type":"VEC3","max":[0.06040624,0.15614666,0.06040624],"min":[-0.06040624,0.00384165347,-0.06040624]},{"bufferView":26,"componentType":5126,"count":552,"type":"VEC3","byteOffset":12},{"bufferView":26,"componentType":5126,"count":552,"type":"VEC4","byteOffset":24},{"bufferView":26,"componentType":5126,"count":552,"type":"VEC2","byteOffset":40},{"bufferView":26,"componentType":5126,"count":552,"type":"VEC2","byteOffset":48},{"bufferView":6,"componentType":5123,"count":996,"type":"SCALAR"},{"bufferView":27,"componentType":5126,"count":404,"type":"VEC3","max":[0.0539700538,0.107848689,0.0523316264],"min":[-0.0529756024,-0.080513224,-0.0528015643]},{"bufferView":27,"componentType":5126,"count":404,"type":"VEC3","byteOffset":12},{"bufferView":27,"componentType":5126,"count":404,"type":"VEC4","byteOffset":24},{"bufferView":27,"componentType":5126,"count":404,"type":"VEC2","byteOffset":40},{"bufferView":27,"componentType":5126,"count":404,"type":"VEC2","byteOffset":48},{"bufferView":7,"componentType":5123,"count":432,"type":"SCALAR"},{"bufferView":20,"componentType":5126,"count":272,"type":"VEC3","max":[0.01,0.01,0.0003558332],"min":[-0.01,-0.01,0]},{"bufferView":20,"componentType":5126,"count":272,"type":"VEC3","byteOffset":12},{"bufferView":20,"componentType":5126,"count":272,"type":"VEC4","byteOffset":24},{"bufferView":20,"componentType":5126,"count":272,"type":"VEC2","byteOffset":40},{"bufferView":8,"componentType":5123,"count":804,"type":"SCALAR"},{"bufferView":28,"componentType":5126,"count":114,"type":"VEC3","max":[0.150101736,0.0263531283,0.1501018],"min":[-0.1501018,0.00051683,-0.1501017]},{"bufferView":28,"componentType":5126,"count":114,"type":"VEC3","byteOffset":12},{"bufferView":28,"componentType":5126,"count":114,"type":"VEC4","byteOffset":24},{"bufferView":28,"componentType":5126,"count":114,"type":"VEC2","byteOffset":40},{"bufferView":28,"componentType":5126,"count":114,"type":"VEC2","byteOffset":48},{"bufferView":9,"componentType":5123,"count":192,"type":"SCALAR"},{"bufferView":29,"componentType":5126,"count":328,"type":"VEC3","max":[0.052487,0.0525603369,0.0536582656],"min":[-0.0536687076,-0.0549209639,-0.0538336076]},{"bufferView":29,"componentType":5126,"count":328,"type":"VEC3","byteOffset":12},{"bufferView":29,"componentType":5126,"count":328,"type":"VEC4","byteOffset":24},{"bufferView":29,"componentType":5126,"count":328,"type":"VEC2","byteOffset":40},{"bufferView":29,"componentType":5126,"count":328,"type":"VEC2","byteOffset":48},{"bufferView":10,"componentType":5123,"count":330,"type":"SCALAR"},{"bufferView":21,"componentType":5126,"count":316,"type":"VEC3","max":[0.909867764,0.5006398,0.8218081],"min":[-0.909867764,-0.5006398,-2.11596489E-05]},{"bufferView":21,"componentType":5126,"count":316,"type":"VEC3","byteOffset":12},{"bufferView":21,"componentType":5126,"count":316,"type":"VEC4","byteOffset":24},{"bufferView":21,"componentType":5126,"count":316,"type":"VEC2","byteOffset":40},{"bufferView":11,"componentType":5123,"count":780,"type":"SCALAR"},{"bufferView":15,"componentType":5126,"count":4,"type":"VEC3","max":[0.5,0,0.5],"min":[-0.5,0,-0.5]},{"bufferView":15,"componentType":5126,"count":4,"type":"VEC3","byteOffset":12},{"bufferView":15,"componentType":5126,"count":4,"type":"VEC2","byteOffset":24},{"bufferView":12,"componentType":5123,"count":6,"type":"SCALAR"},{"bufferView":16,"componentType":5126,"count":4,"type":"VEC3","max":[0.5,0,0.5],"min":[-0.5,0,-0.5]},{"bufferView":16,"componentType":5126,"count":4,"type":"VEC3","byteOffset":12},{"bufferView":16,"componentType":5126,"count":4,"type":"VEC2","byteOffset":24},{"bufferView":13,"componentType":5123,"count":6,"type":"SCALAR"},{"bufferView":17,"componentType":5126,"count":4,"type":"VEC3","max":[0.5,0,0.5],"min":[-0.5,0,-0.5]},{"bufferView":17,"componentType":5126,"count":4,"type":"VEC3","byteOffset":12},{"bufferView":17,"componentType":5126,"count":4,"type":"VEC2","byteOffset":24},{"bufferView":14,"componentType":5123,"count":6,"type":"SCALAR"}],"images":[{"name":"LowPolyFoodLiteTexture_01.png","uri":"LowPolyFoodLiteTexture_01.png","mimeType":"image/png"},{"name":"02_scaled.jpg","uri":"02_scaled.jpg","mimeType":"image/jpeg"}],"materials":[{"name":"LP_FoodLite_MAIN","pbrMetallicRoughness":{"metallicFactor":0,"baseColorTexture":{"index":0}}},{"name":"TABLE 1","pbrMetallicRoughness":{"baseColorFactor":[0.2411783,0.05784572,0.0167663917,1],"metallicFactor":0}},{"name":"TABLE_FLOOR 1","pbrMetallicRoughness":{"baseColorFactor":[0.07920033,0.301212043,0.165908664,1],"metallicFactor":0}},{"name":"02Material\n25520","pbrMetallicRoughness":{"metallicFactor":0,"baseColorTexture":{"index":1}},"extensions":{"KHR_materials_unlit":{}}},{"name":"02Material\n25520","pbrMetallicRoughness":{"metallicFactor":0,"baseColorTexture":{"index":1}},"extensions":{"KHR_materials_unlit":{}}},{"name":"02Material\n25520","pbrMetallicRoughness":{"metallicFactor":0,"baseColorTexture":{"index":1}},"extensions":{"KHR_materials_unlit":{}}}],"meshes":[{"name":"Bread","primitives":[{"attributes":{"POSITION":0,"NORMAL":1,"TANGENT":2,"TEXCOORD_0":3,"TEXCOORD_1":4},"indices":5,"material":0}]},{"name":"Broccoli","primitives":[{"attributes":{"POSITION":6,"NORMAL":7,"TANGENT":8,"TEXCOORD_0":9,"TEXCOORD_1":10},"indices":11,"material":0}]},{"name":"Burger","primitives":[{"attributes":{"POSITION":12,"NORMAL":13,"TANGENT":14,"TEXCOORD_0":15,"TEXCOORD_1":16},"indices":17,"material":0}]},{"name":"Cake","primitives":[{"attributes":{"POSITION":18,"NORMAL":19,"TANGENT":20,"TEXCOORD_0":21,"TEXCOORD_1":22},"indices":23,"material":0}]},{"name":"Cover","primitives":[{"attributes":{"POSITION":24,"NORMAL":25,"TANGENT":26,"TEXCOORD_0":27},"indices":28,"material":1}]},{"name":"Legs","primitives":[{"attributes":{"POSITION":29,"NORMAL":30,"TANGENT":31,"TEXCOORD_0":32},"indices":33,"material":1}]},{"name":"CoffeCup","primitives":[{"attributes":{"POSITION":34,"NORMAL":35,"TANGENT":36,"TEXCOORD_0":37,"TEXCOORD_1":38},"indices":39,"material":0}]},{"name":"Pear","primitives":[{"attributes":{"POSITION":40,"NORMAL":41,"TANGENT":42,"TEXCOORD_0":43,"TEXCOORD_1":44},"indices":45,"material":0}]},{"name":"Plane__3_","primitives":[{"attributes":{"POSITION":46,"NORMAL":47,"TANGENT":48,"TEXCOORD_0":49},"indices":50,"material":2}]},{"name":"Plate_01","primitives":[{"attributes":{"POSITION":51,"NORMAL":52,"TANGENT":53,"TEXCOORD_0":54,"TEXCOORD_1":55},"indices":56,"material":0}]},{"name":"Tomato","primitives":[{"attributes":{"POSITION":57,"NORMAL":58,"TANGENT":59,"TEXCOORD_0":60,"TEXCOORD_1":61},"indices":62,"material":0}]},{"name":"FOOD (1)","primitives":[{"attributes":{"POSITION":63,"NORMAL":64,"TANGENT":65,"TEXCOORD_0":66},"indices":67,"material":1}]},{"name":"ImageTargetMesh25520","primitives":[{"attributes":{"POSITION":68,"NORMAL":69,"TEXCOORD_0":70},"indices":71,"material":3}]},{"name":"ImageTargetMesh25520","primitives":[{"attributes":{"POSITION":72,"NORMAL":73,"TEXCOORD_0":74},"indices":75,"material":4}]},{"name":"ImageTargetMesh25520","primitives":[{"attributes":{"POSITION":76,"NORMAL":77,"TEXCOORD_0":78},"indices":79,"material":5}]}],"scene":0,"scenes":[{"name":"02","nodes":[39]}],"textures":[{"source":0},{"source":1}]}