{"asset":{"version":"2.0","generator":"Unity 2022.3.28f1 glTFast 6.14.1"},"nodes":[{"name":"Sphere","mesh":0,"translation":[-3.70999956,2.2,1.06],"rotation":[0.298919678,-0.640024,-0.641642034,-0.2988509],"scale":[150,150,150]},{"name":"EARTH","children":[0],"translation":[1.11,-0.0899999961,-0.25],"scale":[0.3,0.3,0.3]},{"name":"ImageTargetPreview","mesh":1},{"name":"ImageTargetPreviewRoot","children":[2]},{"name":"ImageTargetPreview","mesh":2},{"name":"ImageTargetPreviewRoot","children":[4]},{"name":"ImageTargetPreview","mesh":3},{"name":"ImageTargetPreviewRoot","children":[6]},{"name":"13","children":[1,3,5,7],"translation":[-19.03,0,-6.49]}],"extensionsRequired":["KHR_materials_unlit"],"extensionsUsed":["KHR_materials_unlit"],"buffers":[{"uri":"13.bin","byteLength":372156}],"bufferViews":[{"buffer":0,"byteLength":18408,"target":34963},{"buffer":0,"byteLength":12,"byteOffset":18408,"target":34963},{"buffer":0,"byteLength":12,"byteOffset":18420,"target":34963},{"buffer":0,"byteLength":12,"byteOffset":18432,"target":34963},{"buffer":0,"byteLength":128,"byteOffset":18444,"byteStride":32,"target":34962},{"buffer":0,"byteLength":128,"byteOffset":18572,"byteStride":32,"target":34962},{"buffer":0,"byteLength":128,"byteOffset":18700,"byteStride":32,"target":34962},{"buffer":0,"byteLength":353328,"byteOffset":18828,"byteStride":48,"target":34962}],"accessors":[{"bufferView":7,"componentType":5126,"count":7361,"type":"VEC3","max":[0.0104609728,0.0103968093,0.01039177],"min":[-0.0104245134,-0.0105621489,-0.0106734689]},{"bufferView":7,"componentType":5126,"count":7361,"type":"VEC3","byteOffset":12},{"bufferView":7,"componentType":5126,"count":7361,"type":"VEC4","byteOffset":24},{"bufferView":7,"componentType":5126,"count":7361,"type":"VEC2","byteOffset":40},{"bufferView":0,"componentType":5123,"count":3624,"type":"SCALAR"},{"bufferView":0,"componentType":5123,"count":2565,"type":"SCALAR","byteOffset":7248},{"bufferView":0,"componentType":5123,"count":498,"type":"SCALAR","byteOffset":12378},{"bufferView":0,"componentType":5123,"count":2517,"type":"SCALAR","byteOffset":13374},{"bufferView":4,"componentType":5126,"count":4,"type":"VEC3","max":[0.5,0,0.5],"min":[-0.5,0,-0.5]},{"bufferView":4,"componentType":5126,"count":4,"type":"VEC3","byteOffset":12},{"bufferView":4,"componentType":5126,"count":4,"type":"VEC2","byteOffset":24},{"bufferView":1,"componentType":5123,"count":6,"type":"SCALAR"},{"bufferView":5,"componentType":5126,"count":4,"type":"VEC3","max":[0.5,0,0.5],"min":[-0.5,0,-0.5]},{"bufferView":5,"componentType":5126,"count":4,"type":"VEC3","byteOffset":12},{"bufferView":5,"componentType":5126,"count":4,"type":"VEC2","byteOffset":24},{"bufferView":2,"componentType":5123,"count":6,"type":"SCALAR"},{"bufferView":6,"componentType":5126,"count":4,"type":"VEC3","max":[0.5,0,0.5],"min":[-0.5,0,-0.5]},{"bufferView":6,"componentType":5126,"count":4,"type":"VEC3","byteOffset":12},{"bufferView":6,"componentType":5126,"count":4,"type":"VEC2","byteOffset":24},{"bufferView":3,"componentType":5123,"count":6,"type":"SCALAR"}],"images":[{"name":"13_scaled.jpg","uri":"13_scaled.jpg","mimeType":"image/jpeg"}],"materials":[{"name":"Material_009","pbrMetallicRoughness":{"baseColorFactor":[0.006216815,0.378046781,0.682774365,1],"metallicFactor":0}},{"name":"Material_008","pbrMetallicRoughness":{"baseColorFactor":[0.040577475,0.8162761,0.116483331,1],"metallicFactor":0}},{"name":"Material_005","pbrMetallicRoughness":{"baseColorFactor":[0.643443644,0.7591282,0.805510342,1],"metallicFactor":0}},{"name":"Material_010","pbrMetallicRoughness":{"baseColorFactor":[0.0568343773,0.2422765,0.100355953,1],"metallicFactor":0}},{"name":"13Material\n25656","pbrMetallicRoughness":{"metallicFactor":0,"baseColorTexture":{"index":0}},"extensions":{"KHR_materials_unlit":{}}},{"name":"13Material\n25656","pbrMetallicRoughness":{"metallicFactor":0,"baseColorTexture":{"index":0}},"extensions":{"KHR_materials_unlit":{}}},{"name":"13Material\n25656","pbrMetallicRoughness":{"metallicFactor":0,"baseColorTexture":{"index":0}},"extensions":{"KHR_materials_unlit":{}}}],"meshes":[{"name":"Sphere","primitives":[{"attributes":{"POSITION":0,"NORMAL":1,"TANGENT":2,"TEXCOORD_0":3},"indices":4,"material":0},{"attributes":{"POSITION":0,"NORMAL":1,"TANGENT":2,"TEXCOORD_0":3},"indices":5,"material":1},{"attributes":{"POSITION":0,"NORMAL":1,"TANGENT":2,"TEXCOORD_0":3},"indices":6,"material":2},{"attributes":{"POSITION":0,"NORMAL":1,"TANGENT":2,"TEXCOORD_0":3},"indices":7,"material":3}]},{"name":"ImageTargetMesh25656","primitives":[{"attributes":{"POSITION":8,"NORMAL":9,"TEXCOORD_0":10},"indices":11,"material":4}]},{"name":"ImageTargetMesh25656","primitives":[{"attributes":{"POSITION":12,"NORMAL":13,"TEXCOORD_0":14},"indices":15,"material":5}]},{"name":"ImageTargetMesh25656","primitives":[{"attributes":{"POSITION":16,"NORMAL":17,"TEXCOORD_0":18},"indices":19,"material":6}]}],"scene":0,"scenes":[{"name":"13","nodes":[8]}],"textures":[{"source":0}]}