{"asset":{"version":"2.0","generator":"Unity 2022.3.28f1 glTFast 6.14.1"},"nodes":[{"name":"Cube","mesh":0,"translation":[0,5.24792337,0],"rotation":[-0.7071068,0,0,0.7071068],"scale":[409.041168,532.9011,532.9011]},{"name":"Cube_001","mesh":1,"translation":[5.28171968,0.9311492,3.41794729],"rotation":[-0.7071068,0,0,0.7071068],"scale":[47.36446,100,100]},{"name":"Cube_002","mesh":2,"translation":[5.84530926,0.812032938,3.41794729],"rotation":[-0.7071068,0,0,0.7071068],"scale":[47.36446,100,83.3918839]},{"name":"Cube_003","mesh":3,"translation":[-5.269673,0.9311492,2.75228143],"rotation":[0,-0.7071068,-0.7071068,8.659561E-17],"scale":[47.36446,100,100]},{"name":"Cube_004","mesh":4,"translation":[-5.8332634,0.812032938,2.75228143],"rotation":[0,-0.7071068,-0.7071068,8.659561E-17],"scale":[47.36446,100,83.3918839]},{"name":"Cube_006","mesh":5,"translation":[0,9.87515,5.258219],"rotation":[-0.7071068,0,0,0.7071068],"scale":[446.305359,14.0261736,198.076447]},{"name":"Cube_007","mesh":6,"translation":[13.5889988,7.37703371,1.75916731],"rotation":[-0.7071068,0,0,0.7071068],"scale":[133.245239,100,59.9969749]},{"name":"Cube_008","mesh":7,"translation":[14.0278072,6.97811556,1.75916731],"rotation":[-0.7071068,0,0,0.7071068],"scale":[116.678009,100,59.9969749]},{"name":"Cube_009","mesh":8,"translation":[7.80369,7.373498,1.78802836],"rotation":[-0.7071068,0,0,0.7071068],"scale":[133.245239,100,59.9969749]},{"name":"Cube_010","mesh":9,"translation":[7.43386936,6.97458,1.78802836],"rotation":[-0.7071068,0,0,0.7071068],"scale":[116.678009,100,59.9969749]},{"name":"Cube_011","mesh":10,"translation":[7.29946041,0.876283944,1.78802836],"rotation":[-0.7071068,0,0,0.7071068],"scale":[133.245239,100,59.9969749]},{"name":"Cube_012","mesh":11,"translation":[7.814504,0.477366239,1.78802836],"rotation":[-0.7071068,0,0,0.7071068],"scale":[116.678009,100,59.9969749]},{"name":"Cube_013","mesh":12,"translation":[14.2870216,0.7922456,1.78802836],"rotation":[-0.7071068,0,0,0.7071068],"scale":[133.245239,100,59.9969749]},{"name":"Cube_014","mesh":13,"translation":[14.0533333,0.3933279,1.78802836],"rotation":[-0.7071068,0,0,0.7071068],"scale":[116.678009,100,59.9969749]},{"name":"Cube_015","mesh":14,"translation":[0,0.0402953327,4.983234],"rotation":[-0.7071068,0,0,0.7071068],"scale":[407.464874,23.9188919,18.4357586]},{"name":"Cube_016","mesh":15,"translation":[0,9.87515,5.326242],"rotation":[-0.7071068,0,0,0.7071068],"scale":[446.305359,5.238321,198.076447]},{"name":"Cube_017","mesh":16,"translation":[0.720768332,9.916928,5.471331],"rotation":[-0.7071068,0,0,0.7071068],"scale":[9.343319,8.332214,169.472885]},{"name":"Cube_018","mesh":17,"translation":[3.18371844,9.810242,5.471331],"rotation":[-0.7071068,0,0,0.7071068],"scale":[9.343319,8.332214,160.585434]},{"name":"Cube_019","mesh":18,"translation":[-0.696066141,9.916928,5.471331],"rotation":[-8.71576458E-33,-0.7071068,-0.7071068,8.659561E-17],"scale":[9.343319,8.332214,169.472885]},{"name":"Cube_020","mesh":19,"translation":[-3.15901637,9.810242,5.471331],"rotation":[0,-0.7071068,-0.7071068,8.659561E-17],"scale":[9.343319,8.332214,160.585434]},{"name":"Cube_021","mesh":20,"translation":[1.95852065,9.246198,5.45471048],"rotation":[-0.50000006,-0.5,0.5,0.50000006],"scale":[9.343319,8.332214,117.208885]},{"name":"Cube_022","mesh":21,"translation":[-1.90173554,9.246198,5.45471048],"rotation":[-0.50000006,-0.5,0.5,0.50000006],"scale":[9.343319,8.332214,117.208885]},{"name":"Cube_023","mesh":22,"translation":[9.133926,5.59089327,1.81509459],"rotation":[-0.7071068,0,0,0.7071068],"scale":[100,26.9921951,100]},{"name":"Cube_024","mesh":23,"translation":[8.4971,5.63426447,1.76246929],"rotation":[-0.7071068,0,0,0.7071068],"scale":[4.67528725,9.419388,83.27551]},{"name":"Cube_025","mesh":24,"translation":[9.746704,5.63426447,1.76246929],"rotation":[-0.7071068,0,0,0.7071068],"scale":[4.67528725,9.419388,83.27551]},{"name":"Cube_026","mesh":25,"translation":[12.6439667,5.59089327,1.81509459],"rotation":[-0.7071068,0,0,0.7071068],"scale":[100,26.9921951,100]},{"name":"Cube_027","mesh":26,"translation":[12.0071411,5.63426447,1.76246929],"rotation":[-0.7071068,0,0,0.7071068],"scale":[4.67528725,9.419388,83.27551]},{"name":"Cube_028","mesh":27,"translation":[13.2567453,5.63426447,1.76246929],"rotation":[-0.7071068,0,0,0.7071068],"scale":[4.67528725,9.419388,83.27551]},{"name":"Cube_029","mesh":28,"translation":[9.133926,2.25538516,1.81509459],"rotation":[-0.7071068,0,0,0.7071068],"scale":[100,26.9921951,100]},{"name":"Cube_030","mesh":29,"translation":[8.4971,2.29875636,1.76246929],"rotation":[-0.7071068,0,0,0.7071068],"scale":[4.67528725,9.419388,83.27551]},{"name":"Cube_031","mesh":30,"translation":[9.746704,2.29875636,1.76246929],"rotation":[-0.7071068,0,0,0.7071068],"scale":[4.67528725,9.419388,83.27551]},{"name":"Cube_032","mesh":31,"translation":[12.6439667,2.25538516,1.81509459],"rotation":[-0.7071068,0,0,0.7071068],"scale":[100,26.9921951,100]},{"name":"Cube_033","mesh":32,"translation":[12.0071411,2.29875636,1.76246929],"rotation":[-0.7071068,0,0,0.7071068],"scale":[4.67528725,9.419388,83.27551]},{"name":"Cube_034","mesh":33,"translation":[13.2567453,2.29875636,1.76246929],"rotation":[-0.7071068,0,0,0.7071068],"scale":[4.67528725,9.419388,83.27551]},{"name":"Cube_035","mesh":34,"translation":[-12.7482538,5.59089327,1.81509459],"rotation":[-0.7071068,0,0,0.7071068],"scale":[100,26.9921951,100]},{"name":"Cube_036","mesh":35,"translation":[-13.3850813,5.63426447,1.76246929],"rotation":[-0.7071068,0,0,0.7071068],"scale":[4.67528725,9.419388,83.27551]},{"name":"Cube_037","mesh":36,"translation":[-12.1354771,5.63426447,1.76246929],"rotation":[-0.7071068,0,0,0.7071068],"scale":[4.67528725,9.419388,83.27551]},{"name":"Cube_038","mesh":37,"translation":[-9.238214,5.59089327,1.81509459],"rotation":[-0.7071068,0,0,0.7071068],"scale":[100,26.9921951,100]},{"name":"Cube_039","mesh":38,"translation":[-9.87504,5.63426447,1.76246929],"rotation":[-0.7071068,0,0,0.7071068],"scale":[4.67528725,9.419388,83.27551]},{"name":"Cube_040","mesh":39,"translation":[-8.625436,5.63426447,1.76246929],"rotation":[-0.7071068,0,0,0.7071068],"scale":[4.67528725,9.419388,83.27551]},{"name":"Cube_041","mesh":40,"translation":[-12.7482538,2.25538516,1.81509459],"rotation":[-0.7071068,0,0,0.7071068],"scale":[100,26.9921951,100]},{"name":"Cube_042","mesh":41,"translation":[-13.3850813,2.29875636,1.76246929],"rotation":[-0.7071068,0,0,0.7071068],"scale":[4.67528725,9.419388,83.27551]},{"name":"Cube_043","mesh":42,"translation":[-12.1354771,2.29875636,1.76246929],"rotation":[-0.7071068,0,0,0.7071068],"scale":[4.67528725,9.419388,83.27551]},{"name":"Cube_044","mesh":43,"translation":[-9.238214,2.25538516,1.81509459],"rotation":[-0.7071068,0,0,0.7071068],"scale":[100,26.9921951,100]},{"name":"Cube_045","mesh":44,"translation":[-9.87504,2.29875636,1.76246929],"rotation":[-0.7071068,0,0,0.7071068],"scale":[4.67528725,9.419388,83.27551]},{"name":"Cube_046","mesh":45,"translation":[-8.625436,2.29875636,1.76246929],"rotation":[-0.7071068,0,0,0.7071068],"scale":[4.67528725,9.419388,83.27551]},{"name":"Cube_050","mesh":46,"translation":[0,2.06085467,0.8774411],"rotation":[-0.7071068,0,0,0.7071068],"scale":[117.901207,100,100]},{"name":"NurbsPath","mesh":47,"translation":[0.1291908,3.0052135,1.88530481],"rotation":[-0.50000006,0.5,-0.5,0.50000006],"scale":[8.978276,30.891407,30.891407]},{"name":"NurbsPath_001","mesh":48,"translation":[-0.123800837,3.0052135,1.88530481],"rotation":[-0.50000006,0.5,-0.5,0.50000006],"scale":[8.978276,30.891407,30.891407]},{"name":"Plane__1_","mesh":49,"translation":[0,-0.24,0],"rotation":[-0.7071068,0,0,0.7071068],"scale":[1791.76746,1046.70618,952.1311]},{"name":"Text","mesh":50,"translation":[-2.61543036,5.49812365,6.26746559],"rotation":[-3.774895E-08,0,0,1],"scale":[185.9118,185.9118,185.9118]},{"name":"SCHOOL","children":[0,1,2,3,4,5,6,7,8,9,10,11,12,13,14,15,16,17,18,19,20,21,22,23,24,25,26,27,28,29,30,31,32,33,34,35,36,37,38,39,40,41,42,43,44,45,46,47,48,49,50],"translation":[0,0.7239999,-0.39],"rotation":[8.71576458E-33,-0.7071068,-0.7071068,8.659561E-17],"scale":[0.06,0.06,0.06]},{"name":"ImageTargetPreview","mesh":51},{"name":"ImageTargetPreviewRoot","children":[52]},{"name":"ImageTargetPreview","mesh":52},{"name":"ImageTargetPreviewRoot","children":[54]},{"name":"ImageTargetPreview","mesh":53},{"name":"ImageTargetPreviewRoot","children":[56]},{"name":"04","children":[51,53,55,57],"translation":[-2.69,0,8.82]}],"extensionsRequired":["KHR_materials_unlit"],"extensionsUsed":["KHR_materials_unlit"],"buffers":[{"uri":"04.bin","byteLength":1036128}],"bufferViews":[{"buffer":0,"byteLength":51252,"target":34963},{"buffer":0,"byteLength":72,"byteOffset":51252,"target":34963},{"buffer":0,"byteLength":72,"byteOffset":51324,"target":34963},{"buffer":0,"byteLength":72,"byteOffset":51396,"target":34963},{"buffer":0,"byteLength":72,"byteOffset":51468,"target":34963},{"buffer":0,"byteLength":432,"byteOffset":51540,"target":34963},{"buffer":0,"byteLength":2256,"byteOffset":51972,"target":34963},{"buffer":0,"byteLength":2256,"byteOffset":54228,"target":34963},{"buffer":0,"byteLength":2256,"byteOffset":56484,"target":34963},{"buffer":0,"byteLength":2256,"byteOffset":58740,"target":34963},{"buffer":0,"byteLength":2256,"byteOffset":60996,"target":34963},{"buffer":0,"byteLength":2256,"byteOffset":63252,"target":34963},{"buffer":0,"byteLength":2256,"byteOffset":65508,"target":34963},{"buffer":0,"byteLength":2256,"byteOffset":67764,"target":34963},{"buffer":0,"byteLength":288,"byteOffset":70020,"target":34963},{"buffer":0,"byteLength":1248,"byteOffset":70308,"target":34963},{"buffer":0,"byteLength":72,"byteOffset":71556,"target":34963},{"buffer":0,"byteLength":72,"byteOffset":71628,"target":34963},{"buffer":0,"byteLength":72,"byteOffset":71700,"target":34963},{"buffer":0,"byteLength":72,"byteOffset":71772,"target":34963},{"buffer":0,"byteLength":72,"byteOffset":71844,"target":34963},{"buffer":0,"byteLength":72,"byteOffset":71916,"target":34963},{"buffer":0,"byteLength":672,"byteOffset":71988,"target":34963},{"buffer":0,"byteLength":72,"byteOffset":72660,"target":34963},{"buffer":0,"byteLength":72,"byteOffset":72732,"target":34963},{"buffer":0,"byteLength":672,"byteOffset":72804,"target":34963},{"buffer":0,"byteLength":72,"byteOffset":73476,"target":34963},{"buffer":0,"byteLength":72,"byteOffset":73548,"target":34963},{"buffer":0,"byteLength":672,"byteOffset":73620,"target":34963},{"buffer":0,"byteLength":72,"byteOffset":74292,"target":34963},{"buffer":0,"byteLength":72,"byteOffset":74364,"target":34963},{"buffer":0,"byteLength":672,"byteOffset":74436,"target":34963},{"buffer":0,"byteLength":72,"byteOffset":75108,"target":34963},{"buffer":0,"byteLength":72,"byteOffset":75180,"target":34963},{"buffer":0,"byteLength":672,"byteOffset":75252,"target":34963},{"buffer":0,"byteLength":72,"byteOffset":75924,"target":34963},{"buffer":0,"byteLength":72,"byteOffset":75996,"target":34963},{"buffer":0,"byteLength":672,"byteOffset":76068,"target":34963},{"buffer":0,"byteLength":72,"byteOffset":76740,"target":34963},{"buffer":0,"byteLength":72,"byteOffset":76812,"target":34963},{"buffer":0,"byteLength":672,"byteOffset":76884,"target":34963},{"buffer":0,"byteLength":72,"byteOffset":77556,"target":34963},{"buffer":0,"byteLength":72,"byteOffset":77628,"target":34963},{"buffer":0,"byteLength":672,"byteOffset":77700,"target":34963},{"buffer":0,"byteLength":72,"byteOffset":78372,"target":34963},{"buffer":0,"byteLength":72,"byteOffset":78444,"target":34963},{"buffer":0,"byteLength":408,"byteOffset":78516,"target":34963},{"buffer":0,"byteLength":2160,"byteOffset":78924,"target":34963},{"buffer":0,"byteLength":2160,"byteOffset":81084,"target":34963},{"buffer":0,"byteLength":1608,"byteOffset":83244,"target":34963},{"buffer":0,"byteLength":11256,"byteOffset":84852,"target":34963},{"buffer":0,"byteLength":12,"byteOffset":96108,"target":34963},{"buffer":0,"byteLength":12,"byteOffset":96120,"target":34963},{"buffer":0,"byteLength":12,"byteOffset":96132,"target":34963},{"buffer":0,"byteLength":128,"byteOffset":96144,"byteStride":32,"target":34962},{"buffer":0,"byteLength":128,"byteOffset":96272,"byteStride":32,"target":34962},{"buffer":0,"byteLength":128,"byteOffset":96400,"byteStride":32,"target":34962},{"buffer":0,"byteLength":377136,"byteOffset":96528,"byteStride":48,"target":34962},{"buffer":0,"byteLength":1152,"byteOffset":473664,"byteStride":48,"target":34962},{"buffer":0,"byteLength":1152,"byteOffset":474816,"byteStride":48,"target":34962},{"buffer":0,"byteLength":1152,"byteOffset":475968,"byteStride":48,"target":34962},{"buffer":0,"byteLength":1152,"byteOffset":477120,"byteStride":48,"target":34962},{"buffer":0,"byteLength":4800,"byteOffset":478272,"byteStride":48,"target":34962},{"buffer":0,"byteLength":36864,"byteOffset":483072,"byteStride":48,"target":34962},{"buffer":0,"byteLength":36864,"byteOffset":519936,"byteStride":48,"target":34962},{"buffer":0,"byteLength":36864,"byteOffset":556800,"byteStride":48,"target":34962},{"buffer":0,"byteLength":36864,"byteOffset":593664,"byteStride":48,"target":34962},{"buffer":0,"byteLength":36864,"byteOffset":630528,"byteStride":48,"target":34962},{"buffer":0,"byteLength":36864,"byteOffset":667392,"byteStride":48,"target":34962},{"buffer":0,"byteLength":36864,"byteOffset":704256,"byteStride":48,"target":34962},{"buffer":0,"byteLength":36864,"byteOffset":741120,"byteStride":48,"target":34962},{"buffer":0,"byteLength":4608,"byteOffset":777984,"byteStride":48,"target":34962},{"buffer":0,"byteLength":12960,"byteOffset":782592,"byteStride":48,"target":34962},{"buffer":0,"byteLength":1152,"byteOffset":795552,"byteStride":48,"target":34962},{"buffer":0,"byteLength":1152,"byteOffset":796704,"byteStride":48,"target":34962},{"buffer":0,"byteLength":1152,"byteOffset":797856,"byteStride":48,"target":34962},{"buffer":0,"byteLength":1152,"byteOffset":799008,"byteStride":48,"target":34962},{"buffer":0,"byteLength":1152,"byteOffset":800160,"byteStride":48,"target":34962},{"buffer":0,"byteLength":1152,"byteOffset":801312,"byteStride":48,"target":34962},{"buffer":0,"byteLength":6336,"byteOffset":802464,"byteStride":48,"target":34962},{"buffer":0,"byteLength":1152,"byteOffset":808800,"byteStride":48,"target":34962},{"buffer":0,"byteLength":1152,"byteOffset":809952,"byteStride":48,"target":34962},{"buffer":0,"byteLength":6336,"byteOffset":811104,"byteStride":48,"target":34962},{"buffer":0,"byteLength":1152,"byteOffset":817440,"byteStride":48,"target":34962},{"buffer":0,"byteLength":1152,"byteOffset":818592,"byteStride":48,"target":34962},{"buffer":0,"byteLength":6336,"byteOffset":819744,"byteStride":48,"target":34962},{"buffer":0,"byteLength":1152,"byteOffset":826080,"byteStride":48,"target":34962},{"buffer":0,"byteLength":1152,"byteOffset":827232,"byteStride":48,"target":34962},{"buffer":0,"byteLength":6336,"byteOffset":828384,"byteStride":48,"target":34962},{"buffer":0,"byteLength":1152,"byteOffset":834720,"byteStride":48,"target":34962},{"buffer":0,"byteLength":1152,"byteOffset":835872,"byteStride":48,"target":34962},{"buffer":0,"byteLength":6336,"byteOffset":837024,"byteStride":48,"target":34962},{"buffer":0,"byteLength":1152,"byteOffset":843360,"byteStride":48,"target":34962},{"buffer":0,"byteLength":1152,"byteOffset":844512,"byteStride":48,"target":34962},{"buffer":0,"byteLength":6336,"byteOffset":845664,"byteStride":48,"target":34962},{"buffer":0,"byteLength":1152,"byteOffset":852000,"byteStride":48,"target":34962},{"buffer":0,"byteLength":1152,"byteOffset":853152,"byteStride":48,"target":34962},{"buffer":0,"byteLength":6336,"byteOffset":854304,"byteStride":48,"target":34962},{"buffer":0,"byteLength":1152,"byteOffset":860640,"byteStride":48,"target":34962},{"buffer":0,"byteLength":1152,"byteOffset":861792,"byteStride":48,"target":34962},{"buffer":0,"byteLength":6336,"byteOffset":862944,"byteStride":48,"target":34962},{"buffer":0,"byteLength":1152,"byteOffset":869280,"byteStride":48,"target":34962},{"buffer":0,"byteLength":1152,"byteOffset":870432,"byteStride":48,"target":34962},{"buffer":0,"byteLength":4608,"byteOffset":871584,"byteStride":48,"target":34962},{"buffer":0,"byteLength":27648,"byteOffset":876192,"byteStride":48,"target":34962},{"buffer":0,"byteLength":27648,"byteOffset":903840,"byteStride":48,"target":34962},{"buffer":0,"byteLength":13056,"byteOffset":931488,"byteStride":48,"target":34962},{"buffer":0,"byteLength":91584,"byteOffset":944544,"byteStride":48,"target":34962}],"accessors":[{"bufferView":57,"componentType":5126,"count":7857,"type":"VEC3","max":[0.0377877429,0.0121171391,0.0139066409],"min":[-0.0377877429,-0.0124286944,-0.01]},{"bufferView":57,"componentType":5126,"count":7857,"type":"VEC3","byteOffset":12},{"bufferView":57,"componentType":5126,"count":7857,"type":"VEC4","byteOffset":24},{"bufferView":57,"componentType":5126,"count":7857,"type":"VEC2","byteOffset":40},{"bufferView":0,"componentType":5123,"count":7680,"type":"SCALAR"},{"bufferView":0,"componentType":5123,"count":12573,"type":"SCALAR","byteOffset":15360},{"bufferView":0,"componentType":5123,"count":3210,"type":"SCALAR","byteOffset":40506},{"bufferView":0,"componentType":5123,"count":2163,"type":"SCALAR","byteOffset":46926},{"bufferView":58,"componentType":5126,"count":24,"type":"VEC3","max":[0.01,0.01,0.0754913762],"min":[-0.01,-0.01,-0.009999998]},{"bufferView":58,"componentType":5126,"count":24,"type":"VEC3","byteOffset":12},{"bufferView":58,"componentType":5126,"count":24,"type":"VEC4","byteOffset":24},{"bufferView":58,"componentType":5126,"count":24,"type":"VEC2","byteOffset":40},{"bufferView":1,"componentType":5123,"count":36,"type":"SCALAR"},{"bufferView":59,"componentType":5126,"count":24,"type":"VEC3","max":[0.01,0.009363406,0.0754913762],"min":[-0.01,-0.009363406,-0.009999998]},{"bufferView":59,"componentType":5126,"count":24,"type":"VEC3","byteOffset":12},{"bufferView":59,"componentType":5126,"count":24,"type":"VEC4","byteOffset":24},{"bufferView":59,"componentType":5126,"count":24,"type":"VEC2","byteOffset":40},{"bufferView":2,"componentType":5123,"count":36,"type":"SCALAR"},{"bufferView":60,"componentType":5126,"count":24,"type":"VEC3","max":[0.01,0.01,0.0754913762],"min":[-0.01,-0.01,-0.009999998]},{"bufferView":60,"componentType":5126,"count":24,"type":"VEC3","byteOffset":12},{"bufferView":60,"componentType":5126,"count":24,"type":"VEC4","byteOffset":24},{"bufferView":60,"componentType":5126,"count":24,"type":"VEC2","byteOffset":40},{"bufferView":3,"componentType":5123,"count":36,"type":"SCALAR"},{"bufferView":61,"componentType":5126,"count":24,"type":"VEC3","max":[0.01,0.009363406,0.0754913762],"min":[-0.01,-0.009363406,-0.009999998]},{"bufferView":61,"componentType":5126,"count":24,"type":"VEC3","byteOffset":12},{"bufferView":61,"componentType":5126,"count":24,"type":"VEC4","byteOffset":24},{"bufferView":61,"componentType":5126,"count":24,"type":"VEC2","byteOffset":40},{"bufferView":4,"componentType":5123,"count":36,"type":"SCALAR"},{"bufferView":62,"componentType":5126,"count":100,"type":"VEC3","max":[0.01,0.01,0.01],"min":[-0.01,-0.01,-0.01]},{"bufferView":62,"componentType":5126,"count":100,"type":"VEC3","byteOffset":12},{"bufferView":62,"componentType":5126,"count":100,"type":"VEC4","byteOffset":24},{"bufferView":62,"componentType":5126,"count":100,"type":"VEC2","byteOffset":40},{"bufferView":5,"componentType":5123,"count":216,"type":"SCALAR"},{"bufferView":63,"componentType":5126,"count":768,"type":"VEC3","max":[0.00420184433,0.00102396123,0.00351774413],"min":[-0.212181658,-0.00102396961,-0.00351780886]},{"bufferView":63,"componentType":5126,"count":768,"type":"VEC3","byteOffset":12},{"bufferView":63,"componentType":5126,"count":768,"type":"VEC4","byteOffset":24},{"bufferView":63,"componentType":5126,"count":768,"type":"VEC2","byteOffset":40},{"bufferView":6,"componentType":5123,"count":1128,"type":"SCALAR"},{"bufferView":64,"componentType":5126,"count":768,"type":"VEC3","max":[0.00420184433,0.00102396007,0.003517742],"min":[-0.249234632,-0.00102396938,-0.003517811]},{"bufferView":64,"componentType":5126,"count":768,"type":"VEC3","byteOffset":12},{"bufferView":64,"componentType":5126,"count":768,"type":"VEC4","byteOffset":24},{"bufferView":64,"componentType":5126,"count":768,"type":"VEC2","byteOffset":40},{"bufferView":7,"componentType":5123,"count":1128,"type":"SCALAR"},{"bufferView":65,"componentType":5126,"count":768,"type":"VEC3","max":[0.00420184433,0.00102396123,0.00351774413],"min":[-0.1213346,-0.00102396961,-0.00351780886]},{"bufferView":65,"componentType":5126,"count":768,"type":"VEC3","byteOffset":12},{"bufferView":65,"componentType":5126,"count":768,"type":"VEC4","byteOffset":24},{"bufferView":65,"componentType":5126,"count":768,"type":"VEC2","byteOffset":40},{"bufferView":8,"componentType":5123,"count":1128,"type":"SCALAR"},{"bufferView":66,"componentType":5126,"count":768,"type":"VEC3","max":[0.00420184433,0.00102396007,0.003517742],"min":[-0.131627217,-0.00102396938,-0.003517811]},{"bufferView":66,"componentType":5126,"count":768,"type":"VEC3","byteOffset":12},{"bufferView":66,"componentType":5126,"count":768,"type":"VEC4","byteOffset":24},{"bufferView":66,"componentType":5126,"count":768,"type":"VEC2","byteOffset":40},{"bufferView":9,"componentType":5123,"count":1128,"type":"SCALAR"},{"bufferView":67,"componentType":5126,"count":768,"type":"VEC3","max":[0.00420184433,0.00102396123,0.003517742],"min":[-0.113766141,-0.00102396961,-0.00351781328]},{"bufferView":67,"componentType":5126,"count":768,"type":"VEC3","byteOffset":12},{"bufferView":67,"componentType":5126,"count":768,"type":"VEC4","byteOffset":24},{"bufferView":67,"componentType":5126,"count":768,"type":"VEC2","byteOffset":40},{"bufferView":10,"componentType":5123,"count":1128,"type":"SCALAR"},{"bufferView":68,"componentType":5126,"count":768,"type":"VEC3","max":[0.00420184433,0.00102396007,0.0035177418],"min":[-0.138151735,-0.00102396938,-0.00351780886]},{"bufferView":68,"componentType":5126,"count":768,"type":"VEC3","byteOffset":12},{"bufferView":68,"componentType":5126,"count":768,"type":"VEC4","byteOffset":24},{"bufferView":68,"componentType":5126,"count":768,"type":"VEC2","byteOffset":40},{"bufferView":11,"componentType":5123,"count":1128,"type":"SCALAR"},{"bufferView":69,"componentType":5126,"count":768,"type":"VEC3","max":[0.00420184433,0.00102396123,0.003517742],"min":[-0.218648866,-0.00102396961,-0.00351781328]},{"bufferView":69,"componentType":5126,"count":768,"type":"VEC3","byteOffset":12},{"bufferView":69,"componentType":5126,"count":768,"type":"VEC4","byteOffset":24},{"bufferView":69,"componentType":5126,"count":768,"type":"VEC2","byteOffset":40},{"bufferView":12,"componentType":5123,"count":1128,"type":"SCALAR"},{"bufferView":70,"componentType":5126,"count":768,"type":"VEC3","max":[0.00420184433,0.00102396007,0.0035177418],"min":[-0.245092735,-0.00102396938,-0.00351780886]},{"bufferView":70,"componentType":5126,"count":768,"type":"VEC3","byteOffset":12},{"bufferView":70,"componentType":5126,"count":768,"type":"VEC4","byteOffset":24},{"bufferView":70,"componentType":5126,"count":768,"type":"VEC2","byteOffset":40},{"bufferView":13,"componentType":5123,"count":1128,"type":"SCALAR"},{"bufferView":71,"componentType":5126,"count":96,"type":"VEC3","max":[0.01,0.139342472,0.0639999956],"min":[-0.01,-0.0100000054,-0.009999998]},{"bufferView":71,"componentType":5126,"count":96,"type":"VEC3","byteOffset":12},{"bufferView":71,"componentType":5126,"count":96,"type":"VEC4","byteOffset":24},{"bufferView":71,"componentType":5126,"count":96,"type":"VEC2","byteOffset":40},{"bufferView":14,"componentType":5123,"count":144,"type":"SCALAR"},{"bufferView":72,"componentType":5126,"count":270,"type":"VEC3","max":[0.009670867,-0.009999998,0.009282159],"min":[-0.009670867,-0.07588931,-0.009282159]},{"bufferView":72,"componentType":5126,"count":270,"type":"VEC3","byteOffset":12},{"bufferView":72,"componentType":5126,"count":270,"type":"VEC4","byteOffset":24},{"bufferView":72,"componentType":5126,"count":270,"type":"VEC2","byteOffset":40},{"bufferView":15,"componentType":5123,"count":576,"type":"SCALAR"},{"bufferView":15,"componentType":5123,"count":48,"type":"SCALAR","byteOffset":1152},{"bufferView":73,"componentType":5126,"count":24,"type":"VEC3","max":[0.01,0.01,0.01],"min":[-0.01,-0.01,-0.01]},{"bufferView":73,"componentType":5126,"count":24,"type":"VEC3","byteOffset":12},{"bufferView":73,"componentType":5126,"count":24,"type":"VEC4","byteOffset":24},{"bufferView":73,"componentType":5126,"count":24,"type":"VEC2","byteOffset":40},{"bufferView":16,"componentType":5123,"count":36,"type":"SCALAR"},{"bufferView":74,"componentType":5126,"count":24,"type":"VEC3","max":[0.01,0.01,0.01],"min":[-0.01,-0.01,-0.01]},{"bufferView":74,"componentType":5126,"count":24,"type":"VEC3","byteOffset":12},{"bufferView":74,"componentType":5126,"count":24,"type":"VEC4","byteOffset":24},{"bufferView":74,"componentType":5126,"count":24,"type":"VEC2","byteOffset":40},{"bufferView":17,"componentType":5123,"count":36,"type":"SCALAR"},{"bufferView":75,"componentType":5126,"count":24,"type":"VEC3","max":[0.01,0.01,0.01],"min":[-0.01,-0.01,-0.01]},{"bufferView":75,"componentType":5126,"count":24,"type":"VEC3","byteOffset":12},{"bufferView":75,"componentType":5126,"count":24,"type":"VEC4","byteOffset":24},{"bufferView":75,"componentType":5126,"count":24,"type":"VEC2","byteOffset":40},{"bufferView":18,"componentType":5123,"count":36,"type":"SCALAR"},{"bufferView":76,"componentType":5126,"count":24,"type":"VEC3","max":[0.01,0.01,0.01],"min":[-0.01,-0.01,-0.01]},{"bufferView":76,"componentType":5126,"count":24,"type":"VEC3","byteOffset":12},{"bufferView":76,"componentType":5126,"count":24,"type":"VEC4","byteOffset":24},{"bufferView":76,"componentType":5126,"count":24,"type":"VEC2","byteOffset":40},{"bufferView":19,"componentType":5123,"count":36,"type":"SCALAR"},{"bufferView":77,"componentType":5126,"count":24,"type":"VEC3","max":[0.01,0.01,0.01],"min":[-0.01,-0.01,-0.01]},{"bufferView":77,"componentType":5126,"count":24,"type":"VEC3","byteOffset":12},{"bufferView":77,"componentType":5126,"count":24,"type":"VEC4","byteOffset":24},{"bufferView":77,"componentType":5126,"count":24,"type":"VEC2","byteOffset":40},{"bufferView":20,"componentType":5123,"count":36,"type":"SCALAR"},{"bufferView":78,"componentType":5126,"count":24,"type":"VEC3","max":[0.01,0.01,0.01],"min":[-0.01,-0.01,-0.01]},{"bufferView":78,"componentType":5126,"count":24,"type":"VEC3","byteOffset":12},{"bufferView":78,"componentType":5126,"count":24,"type":"VEC4","byteOffset":24},{"bufferView":78,"componentType":5126,"count":24,"type":"VEC2","byteOffset":40},{"bufferView":21,"componentType":5123,"count":36,"type":"SCALAR"},{"bufferView":79,"componentType":5126,"count":132,"type":"VEC3","max":[0.01,0.00224632351,0.01],"min":[-0.01,-0.00500334566,-0.01]},{"bufferView":79,"componentType":5126,"count":132,"type":"VEC3","byteOffset":12},{"bufferView":79,"componentType":5126,"count":132,"type":"VEC4","byteOffset":24},{"bufferView":79,"componentType":5126,"count":132,"type":"VEC2","byteOffset":40},{"bufferView":22,"componentType":5123,"count":288,"type":"SCALAR"},{"bufferView":22,"componentType":5123,"count":42,"type":"SCALAR","byteOffset":576},{"bufferView":22,"componentType":5123,"count":6,"type":"SCALAR","byteOffset":660},{"bufferView":80,"componentType":5126,"count":24,"type":"VEC3","max":[0.01,-0.004121082,0.01],"min":[-0.01,-0.01,-0.01]},{"bufferView":80,"componentType":5126,"count":24,"type":"VEC3","byteOffset":12},{"bufferView":80,"componentType":5126,"count":24,"type":"VEC4","byteOffset":24},{"bufferView":80,"componentType":5126,"count":24,"type":"VEC2","byteOffset":40},{"bufferView":23,"componentType":5123,"count":36,"type":"SCALAR"},{"bufferView":81,"componentType":5126,"count":24,"type":"VEC3","max":[0.01,-0.004121082,0.01],"min":[-0.01,-0.01,-0.01]},{"bufferView":81,"componentType":5126,"count":24,"type":"VEC3","byteOffset":12},{"bufferView":81,"componentType":5126,"count":24,"type":"VEC4","byteOffset":24},{"bufferView":81,"componentType":5126,"count":24,"type":"VEC2","byteOffset":40},{"bufferView":24,"componentType":5123,"count":36,"type":"SCALAR"},{"bufferView":82,"componentType":5126,"count":132,"type":"VEC3","max":[0.01,0.00224632351,0.01],"min":[-0.01,-0.00500334566,-0.01]},{"bufferView":82,"componentType":5126,"count":132,"type":"VEC3","byteOffset":12},{"bufferView":82,"componentType":5126,"count":132,"type":"VEC4","byteOffset":24},{"bufferView":82,"componentType":5126,"count":132,"type":"VEC2","byteOffset":40},{"bufferView":25,"componentType":5123,"count":288,"type":"SCALAR"},{"bufferView":25,"componentType":5123,"count":42,"type":"SCALAR","byteOffset":576},{"bufferView":25,"componentType":5123,"count":6,"type":"SCALAR","byteOffset":660},{"bufferView":83,"componentType":5126,"count":24,"type":"VEC3","max":[0.01,-0.004121082,0.01],"min":[-0.01,-0.01,-0.01]},{"bufferView":83,"componentType":5126,"count":24,"type":"VEC3","byteOffset":12},{"bufferView":83,"componentType":5126,"count":24,"type":"VEC4","byteOffset":24},{"bufferView":83,"componentType":5126,"count":24,"type":"VEC2","byteOffset":40},{"bufferView":26,"componentType":5123,"count":36,"type":"SCALAR"},{"bufferView":84,"componentType":5126,"count":24,"type":"VEC3","max":[0.01,-0.004121082,0.01],"min":[-0.01,-0.01,-0.01]},{"bufferView":84,"componentType":5126,"count":24,"type":"VEC3","byteOffset":12},{"bufferView":84,"componentType":5126,"count":24,"type":"VEC4","byteOffset":24},{"bufferView":84,"componentType":5126,"count":24,"type":"VEC2","byteOffset":40},{"bufferView":27,"componentType":5123,"count":36,"type":"SCALAR"},{"bufferView":85,"componentType":5126,"count":132,"type":"VEC3","max":[0.01,0.00224632351,0.01],"min":[-0.01,-0.00500334566,-0.01]},{"bufferView":85,"componentType":5126,"count":132,"type":"VEC3","byteOffset":12},{"bufferView":85,"componentType":5126,"count":132,"type":"VEC4","byteOffset":24},{"bufferView":85,"componentType":5126,"count":132,"type":"VEC2","byteOffset":40},{"bufferView":28,"componentType":5123,"count":288,"type":"SCALAR"},{"bufferView":28,"componentType":5123,"count":42,"type":"SCALAR","byteOffset":576},{"bufferView":28,"componentType":5123,"count":6,"type":"SCALAR","byteOffset":660},{"bufferView":86,"componentType":5126,"count":24,"type":"VEC3","max":[0.01,-0.004121082,0.01],"min":[-0.01,-0.01,-0.01]},{"bufferView":86,"componentType":5126,"count":24,"type":"VEC3","byteOffset":12},{"bufferView":86,"componentType":5126,"count":24,"type":"VEC4","byteOffset":24},{"bufferView":86,"componentType":5126,"count":24,"type":"VEC2","byteOffset":40},{"bufferView":29,"componentType":5123,"count":36,"type":"SCALAR"},{"bufferView":87,"componentType":5126,"count":24,"type":"VEC3","max":[0.01,-0.004121082,0.01],"min":[-0.01,-0.01,-0.01]},{"bufferView":87,"componentType":5126,"count":24,"type":"VEC3","byteOffset":12},{"bufferView":87,"componentType":5126,"count":24,"type":"VEC4","byteOffset":24},{"bufferView":87,"componentType":5126,"count":24,"type":"VEC2","byteOffset":40},{"bufferView":30,"componentType":5123,"count":36,"type":"SCALAR"},{"bufferView":88,"componentType":5126,"count":132,"type":"VEC3","max":[0.01,0.00224632351,0.01],"min":[-0.01,-0.00500334566,-0.01]},{"bufferView":88,"componentType":5126,"count":132,"type":"VEC3","byteOffset":12},{"bufferView":88,"componentType":5126,"count":132,"type":"VEC4","byteOffset":24},{"bufferView":88,"componentType":5126,"count":132,"type":"VEC2","byteOffset":40},{"bufferView":31,"componentType":5123,"count":288,"type":"SCALAR"},{"bufferView":31,"componentType":5123,"count":42,"type":"SCALAR","byteOffset":576},{"bufferView":31,"componentType":5123,"count":6,"type":"SCALAR","byteOffset":660},{"bufferView":89,"componentType":5126,"count":24,"type":"VEC3","max":[0.01,-0.004121082,0.01],"min":[-0.01,-0.01,-0.01]},{"bufferView":89,"componentType":5126,"count":24,"type":"VEC3","byteOffset":12},{"bufferView":89,"componentType":5126,"count":24,"type":"VEC4","byteOffset":24},{"bufferView":89,"componentType":5126,"count":24,"type":"VEC2","byteOffset":40},{"bufferView":32,"componentType":5123,"count":36,"type":"SCALAR"},{"bufferView":90,"componentType":5126,"count":24,"type":"VEC3","max":[0.01,-0.004121082,0.01],"min":[-0.01,-0.01,-0.01]},{"bufferView":90,"componentType":5126,"count":24,"type":"VEC3","byteOffset":12},{"bufferView":90,"componentType":5126,"count":24,"type":"VEC4","byteOffset":24},{"bufferView":90,"componentType":5126,"count":24,"type":"VEC2","byteOffset":40},{"bufferView":33,"componentType":5123,"count":36,"type":"SCALAR"},{"bufferView":91,"componentType":5126,"count":132,"type":"VEC3","max":[0.01,0.00224632351,0.01],"min":[-0.01,-0.00500334566,-0.01]},{"bufferView":91,"componentType":5126,"count":132,"type":"VEC3","byteOffset":12},{"bufferView":91,"componentType":5126,"count":132,"type":"VEC4","byteOffset":24},{"bufferView":91,"componentType":5126,"count":132,"type":"VEC2","byteOffset":40},{"bufferView":34,"componentType":5123,"count":288,"type":"SCALAR"},{"bufferView":34,"componentType":5123,"count":42,"type":"SCALAR","byteOffset":576},{"bufferView":34,"componentType":5123,"count":6,"type":"SCALAR","byteOffset":660},{"bufferView":92,"componentType":5126,"count":24,"type":"VEC3","max":[0.01,-0.004121082,0.01],"min":[-0.01,-0.01,-0.01]},{"bufferView":92,"componentType":5126,"count":24,"type":"VEC3","byteOffset":12},{"bufferView":92,"componentType":5126,"count":24,"type":"VEC4","byteOffset":24},{"bufferView":92,"componentType":5126,"count":24,"type":"VEC2","byteOffset":40},{"bufferView":35,"componentType":5123,"count":36,"type":"SCALAR"},{"bufferView":93,"componentType":5126,"count":24,"type":"VEC3","max":[0.01,-0.004121082,0.01],"min":[-0.01,-0.01,-0.01]},{"bufferView":93,"componentType":5126,"count":24,"type":"VEC3","byteOffset":12},{"bufferView":93,"componentType":5126,"count":24,"type":"VEC4","byteOffset":24},{"bufferView":93,"componentType":5126,"count":24,"type":"VEC2","byteOffset":40},{"bufferView":36,"componentType":5123,"count":36,"type":"SCALAR"},{"bufferView":94,"componentType":5126,"count":132,"type":"VEC3","max":[0.01,0.00224632351,0.01],"min":[-0.01,-0.00500334566,-0.01]},{"bufferView":94,"componentType":5126,"count":132,"type":"VEC3","byteOffset":12},{"bufferView":94,"componentType":5126,"count":132,"type":"VEC4","byteOffset":24},{"bufferView":94,"componentType":5126,"count":132,"type":"VEC2","byteOffset":40},{"bufferView":37,"componentType":5123,"count":288,"type":"SCALAR"},{"bufferView":37,"componentType":5123,"count":42,"type":"SCALAR","byteOffset":576},{"bufferView":37,"componentType":5123,"count":6,"type":"SCALAR","byteOffset":660},{"bufferView":95,"componentType":5126,"count":24,"type":"VEC3","max":[0.01,-0.004121082,0.01],"min":[-0.01,-0.01,-0.01]},{"bufferView":95,"componentType":5126,"count":24,"type":"VEC3","byteOffset":12},{"bufferView":95,"componentType":5126,"count":24,"type":"VEC4","byteOffset":24},{"bufferView":95,"componentType":5126,"count":24,"type":"VEC2","byteOffset":40},{"bufferView":38,"componentType":5123,"count":36,"type":"SCALAR"},{"bufferView":96,"componentType":5126,"count":24,"type":"VEC3","max":[0.01,-0.004121082,0.01],"min":[-0.01,-0.01,-0.01]},{"bufferView":96,"componentType":5126,"count":24,"type":"VEC3","byteOffset":12},{"bufferView":96,"componentType":5126,"count":24,"type":"VEC4","byteOffset":24},{"bufferView":96,"componentType":5126,"count":24,"type":"VEC2","byteOffset":40},{"bufferView":39,"componentType":5123,"count":36,"type":"SCALAR"},{"bufferView":97,"componentType":5126,"count":132,"type":"VEC3","max":[0.01,0.00224632351,0.01],"min":[-0.01,-0.00500334566,-0.01]},{"bufferView":97,"componentType":5126,"count":132,"type":"VEC3","byteOffset":12},{"bufferView":97,"componentType":5126,"count":132,"type":"VEC4","byteOffset":24},{"bufferView":97,"componentType":5126,"count":132,"type":"VEC2","byteOffset":40},{"bufferView":40,"componentType":5123,"count":288,"type":"SCALAR"},{"bufferView":40,"componentType":5123,"count":42,"type":"SCALAR","byteOffset":576},{"bufferView":40,"componentType":5123,"count":6,"type":"SCALAR","byteOffset":660},{"bufferView":98,"componentType":5126,"count":24,"type":"VEC3","max":[0.01,-0.004121082,0.01],"min":[-0.01,-0.01,-0.01]},{"bufferView":98,"componentType":5126,"count":24,"type":"VEC3","byteOffset":12},{"bufferView":98,"componentType":5126,"count":24,"type":"VEC4","byteOffset":24},{"bufferView":98,"componentType":5126,"count":24,"type":"VEC2","byteOffset":40},{"bufferView":41,"componentType":5123,"count":36,"type":"SCALAR"},{"bufferView":99,"componentType":5126,"count":24,"type":"VEC3","max":[0.01,-0.004121082,0.01],"min":[-0.01,-0.01,-0.01]},{"bufferView":99,"componentType":5126,"count":24,"type":"VEC3","byteOffset":12},{"bufferView":99,"componentType":5126,"count":24,"type":"VEC4","byteOffset":24},{"bufferView":99,"componentType":5126,"count":24,"type":"VEC2","byteOffset":40},{"bufferView":42,"componentType":5123,"count":36,"type":"SCALAR"},{"bufferView":100,"componentType":5126,"count":132,"type":"VEC3","max":[0.01,0.00224632351,0.01],"min":[-0.01,-0.00500334566,-0.01]},{"bufferView":100,"componentType":5126,"count":132,"type":"VEC3","byteOffset":12},{"bufferView":100,"componentType":5126,"count":132,"type":"VEC4","byteOffset":24},{"bufferView":100,"componentType":5126,"count":132,"type":"VEC2","byteOffset":40},{"bufferView":43,"componentType":5123,"count":288,"type":"SCALAR"},{"bufferView":43,"componentType":5123,"count":42,"type":"SCALAR","byteOffset":576},{"bufferView":43,"componentType":5123,"count":6,"type":"SCALAR","byteOffset":660},{"bufferView":101,"componentType":5126,"count":24,"type":"VEC3","max":[0.01,-0.004121082,0.01],"min":[-0.01,-0.01,-0.01]},{"bufferView":101,"componentType":5126,"count":24,"type":"VEC3","byteOffset":12},{"bufferView":101,"componentType":5126,"count":24,"type":"VEC4","byteOffset":24},{"bufferView":101,"componentType":5126,"count":24,"type":"VEC2","byteOffset":40},{"bufferView":44,"componentType":5123,"count":36,"type":"SCALAR"},{"bufferView":102,"componentType":5126,"count":24,"type":"VEC3","max":[0.01,-0.004121082,0.01],"min":[-0.01,-0.01,-0.01]},{"bufferView":102,"componentType":5126,"count":24,"type":"VEC3","byteOffset":12},{"bufferView":102,"componentType":5126,"count":24,"type":"VEC4","byteOffset":24},{"bufferView":102,"componentType":5126,"count":24,"type":"VEC2","byteOffset":40},{"bufferView":45,"componentType":5123,"count":36,"type":"SCALAR"},{"bufferView":103,"componentType":5126,"count":96,"type":"VEC3","max":[0.01,-0.007618604,0.0259476583],"min":[-0.01,-0.01,-0.01]},{"bufferView":103,"componentType":5126,"count":96,"type":"VEC3","byteOffset":12},{"bufferView":103,"componentType":5126,"count":96,"type":"VEC4","byteOffset":24},{"bufferView":103,"componentType":5126,"count":96,"type":"VEC2","byteOffset":40},{"bufferView":46,"componentType":5123,"count":192,"type":"SCALAR"},{"bufferView":46,"componentType":5123,"count":12,"type":"SCALAR","byteOffset":384},{"bufferView":104,"componentType":5126,"count":576,"type":"VEC3","max":[0.02089245,0.002298478,0.0009008703],"min":[-0.02089245,-0.001836393,-0.0009008703]},{"bufferView":104,"componentType":5126,"count":576,"type":"VEC3","byteOffset":12},{"bufferView":104,"componentType":5126,"count":576,"type":"VEC4","byteOffset":24},{"bufferView":104,"componentType":5126,"count":576,"type":"VEC2","byteOffset":40},{"bufferView":47,"componentType":5123,"count":1080,"type":"SCALAR"},{"bufferView":105,"componentType":5126,"count":576,"type":"VEC3","max":[0.02089245,0.002298478,0.0009008703],"min":[-0.02089245,-0.001836393,-0.0009008703]},{"bufferView":105,"componentType":5126,"count":576,"type":"VEC3","byteOffset":12},{"bufferView":105,"componentType":5126,"count":576,"type":"VEC4","byteOffset":24},{"bufferView":105,"componentType":5126,"count":576,"type":"VEC2","byteOffset":40},{"bufferView":48,"componentType":5123,"count":1080,"type":"SCALAR"},{"bufferView":106,"componentType":5126,"count":272,"type":"VEC3","max":[0.01,0.01,0.0003558332],"min":[-0.01,-0.01,0]},{"bufferView":106,"componentType":5126,"count":272,"type":"VEC3","byteOffset":12},{"bufferView":106,"componentType":5126,"count":272,"type":"VEC4","byteOffset":24},{"bufferView":106,"componentType":5126,"count":272,"type":"VEC2","byteOffset":40},{"bufferView":49,"componentType":5123,"count":804,"type":"SCALAR"},{"bufferView":107,"componentType":5126,"count":1908,"type":"VEC3","max":[0.02654,0.00691000046,0.0002],"min":[0.000399999321,-9.000022E-05,-0.0002]},{"bufferView":107,"componentType":5126,"count":1908,"type":"VEC3","byteOffset":12},{"bufferView":107,"componentType":5126,"count":1908,"type":"VEC4","byteOffset":24},{"bufferView":107,"componentType":5126,"count":1908,"type":"VEC2","byteOffset":40},{"bufferView":50,"componentType":5123,"count":5628,"type":"SCALAR"},{"bufferView":54,"componentType":5126,"count":4,"type":"VEC3","max":[0.5,0,0.5],"min":[-0.5,0,-0.5]},{"bufferView":54,"componentType":5126,"count":4,"type":"VEC3","byteOffset":12},{"bufferView":54,"componentType":5126,"count":4,"type":"VEC2","byteOffset":24},{"bufferView":51,"componentType":5123,"count":6,"type":"SCALAR"},{"bufferView":55,"componentType":5126,"count":4,"type":"VEC3","max":[0.5,0,0.5],"min":[-0.5,0,-0.5]},{"bufferView":55,"componentType":5126,"count":4,"type":"VEC3","byteOffset":12},{"bufferView":55,"componentType":5126,"count":4,"type":"VEC2","byteOffset":24},{"bufferView":52,"componentType":5123,"count":6,"type":"SCALAR"},{"bufferView":56,"componentType":5126,"count":4,"type":"VEC3","max":[0.5,0,0.5],"min":[-0.5,0,-0.5]},{"bufferView":56,"componentType":5126,"count":4,"type":"VEC3","byteOffset":12},{"bufferView":56,"componentType":5126,"count":4,"type":"VEC2","byteOffset":24},{"bufferView":53,"componentType":5123,"count":6,"type":"SCALAR"}],"images":[{"name":"04_scaled.jpg","uri":"04_scaled.jpg","mimeType":"image/jpeg"}],"materials":[{"name":"Edges","pbrMetallicRoughness":{"baseColorFactor":[0.424616128,0.113893092,0,1],"metallicFactor":0}},{"name":"Building","pbrMetallicRoughness":{"baseColorFactor":[0.8549927,0.476281583,0,1],"metallicFactor":0}},{"name":"Board","pbrMetallicRoughness":{"baseColorFactor":[0.4350246,0.409203023,1,1],"metallicFactor":0}},{"name":"Top_edge","pbrMetallicRoughness":{"baseColorFactor":[1,0.5903313,0.325915784,1],"metallicFactor":0}},{"name":"Pillar","pbrMetallicRoughness":{"baseColorFactor":[0.366252542,0.135633275,0.0137020722,1],"metallicFactor":0}},{"name":"Window 1","pbrMetallicRoughness":{"baseColorFactor":[0.38132602,0.262250662,0.250158221,1],"metallicFactor":0}},{"name":"Wall 1","pbrMetallicRoughness":{"baseColorFactor":[1,0.332262874,0.2531317,1],"metallicFactor":0}},{"name":"Wall_001 1","pbrMetallicRoughness":{"baseColorFactor":[0.661875546,0.37266916,0.277836621,1],"metallicFactor":0}},{"name":"Stairs","pbrMetallicRoughness":{"baseColorFactor":[0.17582421,0.17582421,0.17582421,1],"metallicFactor":0}},{"name":"Windows","pbrMetallicRoughness":{"baseColorFactor":[0.4764207,0.364244431,0.364244431,1],"metallicFactor":0}},{"name":"Glass","pbrMetallicRoughness":{"baseColorFactor":[0.5209957,0.6795426,0.768151164,1],"metallicFactor":0}},{"name":"Down_window","pbrMetallicRoughness":{"baseColorFactor":[0.639313638,0.543007851,0.5584241,1],"metallicFactor":0}},{"name":"Door","pbrMetallicRoughness":{"baseColorFactor":[0.388296664,0.2925424,0.221106485,1],"metallicFactor":0}},{"name":"Push","pbrMetallicRoughness":{"baseColorFactor":[0.614615,0.461043715,0.3886337,1],"metallicFactor":0}},{"name":"Handle","pbrMetallicRoughness":{"baseColorFactor":[0.325987041,0.191273615,0.147086933,1],"metallicFactor":0}},{"name":"FLOOR","pbrMetallicRoughness":{"baseColorFactor":[0.5600193,0.5600193,0.5600193,1],"metallicFactor":0}},{"name":"Text","pbrMetallicRoughness":{"baseColorFactor":[0.0534330346,0.0534330346,0.0534330346,1],"metallicFactor":0}},{"name":"04Material\n25600","pbrMetallicRoughness":{"metallicFactor":0,"baseColorTexture":{"index":0}},"extensions":{"KHR_materials_unlit":{}}},{"name":"04Material\n25600","pbrMetallicRoughness":{"metallicFactor":0,"baseColorTexture":{"index":0}},"extensions":{"KHR_materials_unlit":{}}},{"name":"04Material\n25600","pbrMetallicRoughness":{"metallicFactor":0,"baseColorTexture":{"index":0}},"extensions":{"KHR_materials_unlit":{}}}],"meshes":[{"name":"Cube","primitives":[{"attributes":{"POSITION":0,"NORMAL":1,"TANGENT":2,"TEXCOORD_0":3},"indices":4,"material":0},{"attributes":{"POSITION":0,"NORMAL":1,"TANGENT":2,"TEXCOORD_0":3},"indices":5,"material":1},{"attributes":{"POSITION":0,"NORMAL":1,"TANGENT":2,"TEXCOORD_0":3},"indices":6,"material":2},{"attributes":{"POSITION":0,"NORMAL":1,"TANGENT":2,"TEXCOORD_0":3},"indices":7,"material":3}]},{"name":"Cube_001","primitives":[{"attributes":{"POSITION":8,"NORMAL":9,"TANGENT":10,"TEXCOORD_0":11},"indices":12,"material":4}]},{"name":"Cube_002","primitives":[{"attributes":{"POSITION":13,"NORMAL":14,"TANGENT":15,"TEXCOORD_0":16},"indices":17,"material":4}]},{"name":"Cube_003","primitives":[{"attributes":{"POSITION":18,"NORMAL":19,"TANGENT":20,"TEXCOORD_0":21},"indices":22,"material":4}]},{"name":"Cube_004","primitives":[{"attributes":{"POSITION":23,"NORMAL":24,"TANGENT":25,"TEXCOORD_0":26},"indices":27,"material":4}]},{"name":"Cube_006","primitives":[{"attributes":{"POSITION":28,"NORMAL":29,"TANGENT":30,"TEXCOORD_0":31},"indices":32,"material":5}]},{"name":"Cube_007","primitives":[{"attributes":{"POSITION":33,"NORMAL":34,"TANGENT":35,"TEXCOORD_0":36},"indices":37,"material":6}]},{"name":"Cube_008","primitives":[{"attributes":{"POSITION":38,"NORMAL":39,"TANGENT":40,"TEXCOORD_0":41},"indices":42,"material":7}]},{"name":"Cube_009","primitives":[{"attributes":{"POSITION":43,"NORMAL":44,"TANGENT":45,"TEXCOORD_0":46},"indices":47,"material":6}]},{"name":"Cube_010","primitives":[{"attributes":{"POSITION":48,"NORMAL":49,"TANGENT":50,"TEXCOORD_0":51},"indices":52,"material":7}]},{"name":"Cube_011","primitives":[{"attributes":{"POSITION":53,"NORMAL":54,"TANGENT":55,"TEXCOORD_0":56},"indices":57,"material":7}]},{"name":"Cube_012","primitives":[{"attributes":{"POSITION":58,"NORMAL":59,"TANGENT":60,"TEXCOORD_0":61},"indices":62,"material":6}]},{"name":"Cube_013","primitives":[{"attributes":{"POSITION":63,"NORMAL":64,"TANGENT":65,"TEXCOORD_0":66},"indices":67,"material":7}]},{"name":"Cube_014","primitives":[{"attributes":{"POSITION":68,"NORMAL":69,"TANGENT":70,"TEXCOORD_0":71},"indices":72,"material":6}]},{"name":"Cube_015","primitives":[{"attributes":{"POSITION":73,"NORMAL":74,"TANGENT":75,"TEXCOORD_0":76},"indices":77,"material":8}]},{"name":"Cube_016","primitives":[{"attributes":{"POSITION":78,"NORMAL":79,"TANGENT":80,"TEXCOORD_0":81},"indices":82,"material":9},{"attributes":{"POSITION":78,"NORMAL":79,"TANGENT":80,"TEXCOORD_0":81},"indices":83,"material":10}]},{"name":"Cube_017","primitives":[{"attributes":{"POSITION":84,"NORMAL":85,"TANGENT":86,"TEXCOORD_0":87},"indices":88,"material":5}]},{"name":"Cube_018","primitives":[{"attributes":{"POSITION":89,"NORMAL":90,"TANGENT":91,"TEXCOORD_0":92},"indices":93,"material":5}]},{"name":"Cube_019","primitives":[{"attributes":{"POSITION":94,"NORMAL":95,"TANGENT":96,"TEXCOORD_0":97},"indices":98,"material":5}]},{"name":"Cube_020","primitives":[{"attributes":{"POSITION":99,"NORMAL":100,"TANGENT":101,"TEXCOORD_0":102},"indices":103,"material":5}]},{"name":"Cube_021","primitives":[{"attributes":{"POSITION":104,"NORMAL":105,"TANGENT":106,"TEXCOORD_0":107},"indices":108,"material":5}]},{"name":"Cube_022","primitives":[{"attributes":{"POSITION":109,"NORMAL":110,"TANGENT":111,"TEXCOORD_0":112},"indices":113,"material":5}]},{"name":"Cube_023","primitives":[{"attributes":{"POSITION":114,"NORMAL":115,"TANGENT":116,"TEXCOORD_0":117},"indices":118,"material":9},{"attributes":{"POSITION":114,"NORMAL":115,"TANGENT":116,"TEXCOORD_0":117},"indices":119,"material":11},{"attributes":{"POSITION":114,"NORMAL":115,"TANGENT":116,"TEXCOORD_0":117},"indices":120,"material":10}]},{"name":"Cube_024","primitives":[{"attributes":{"POSITION":121,"NORMAL":122,"TANGENT":123,"TEXCOORD_0":124},"indices":125,"material":5}]},{"name":"Cube_025","primitives":[{"attributes":{"POSITION":126,"NORMAL":127,"TANGENT":128,"TEXCOORD_0":129},"indices":130,"material":5}]},{"name":"Cube_026","primitives":[{"attributes":{"POSITION":131,"NORMAL":132,"TANGENT":133,"TEXCOORD_0":134},"indices":135,"material":9},{"attributes":{"POSITION":131,"NORMAL":132,"TANGENT":133,"TEXCOORD_0":134},"indices":136,"material":11},{"attributes":{"POSITION":131,"NORMAL":132,"TANGENT":133,"TEXCOORD_0":134},"indices":137,"material":10}]},{"name":"Cube_027","primitives":[{"attributes":{"POSITION":138,"NORMAL":139,"TANGENT":140,"TEXCOORD_0":141},"indices":142,"material":5}]},{"name":"Cube_028","primitives":[{"attributes":{"POSITION":143,"NORMAL":144,"TANGENT":145,"TEXCOORD_0":146},"indices":147,"material":5}]},{"name":"Cube_029","primitives":[{"attributes":{"POSITION":148,"NORMAL":149,"TANGENT":150,"TEXCOORD_0":151},"indices":152,"material":9},{"attributes":{"POSITION":148,"NORMAL":149,"TANGENT":150,"TEXCOORD_0":151},"indices":153,"material":11},{"attributes":{"POSITION":148,"NORMAL":149,"TANGENT":150,"TEXCOORD_0":151},"indices":154,"material":10}]},{"name":"Cube_030","primitives":[{"attributes":{"POSITION":155,"NORMAL":156,"TANGENT":157,"TEXCOORD_0":158},"indices":159,"material":5}]},{"name":"Cube_031","primitives":[{"attributes":{"POSITION":160,"NORMAL":161,"TANGENT":162,"TEXCOORD_0":163},"indices":164,"material":5}]},{"name":"Cube_032","primitives":[{"attributes":{"POSITION":165,"NORMAL":166,"TANGENT":167,"TEXCOORD_0":168},"indices":169,"material":9},{"attributes":{"POSITION":165,"NORMAL":166,"TANGENT":167,"TEXCOORD_0":168},"indices":170,"material":11},{"attributes":{"POSITION":165,"NORMAL":166,"TANGENT":167,"TEXCOORD_0":168},"indices":171,"material":10}]},{"name":"Cube_033","primitives":[{"attributes":{"POSITION":172,"NORMAL":173,"TANGENT":174,"TEXCOORD_0":175},"indices":176,"material":5}]},{"name":"Cube_034","primitives":[{"attributes":{"POSITION":177,"NORMAL":178,"TANGENT":179,"TEXCOORD_0":180},"indices":181,"material":5}]},{"name":"Cube_035","primitives":[{"attributes":{"POSITION":182,"NORMAL":183,"TANGENT":184,"TEXCOORD_0":185},"indices":186,"material":9},{"attributes":{"POSITION":182,"NORMAL":183,"TANGENT":184,"TEXCOORD_0":185},"indices":187,"material":11},{"attributes":{"POSITION":182,"NORMAL":183,"TANGENT":184,"TEXCOORD_0":185},"indices":188,"material":10}]},{"name":"Cube_036","primitives":[{"attributes":{"POSITION":189,"NORMAL":190,"TANGENT":191,"TEXCOORD_0":192},"indices":193,"material":5}]},{"name":"Cube_037","primitives":[{"attributes":{"POSITION":194,"NORMAL":195,"TANGENT":196,"TEXCOORD_0":197},"indices":198,"material":5}]},{"name":"Cube_038","primitives":[{"attributes":{"POSITION":199,"NORMAL":200,"TANGENT":201,"TEXCOORD_0":202},"indices":203,"material":9},{"attributes":{"POSITION":199,"NORMAL":200,"TANGENT":201,"TEXCOORD_0":202},"indices":204,"material":11},{"attributes":{"POSITION":199,"NORMAL":200,"TANGENT":201,"TEXCOORD_0":202},"indices":205,"material":10}]},{"name":"Cube_039","primitives":[{"attributes":{"POSITION":206,"NORMAL":207,"TANGENT":208,"TEXCOORD_0":209},"indices":210,"material":5}]},{"name":"Cube_040","primitives":[{"attributes":{"POSITION":211,"NORMAL":212,"TANGENT":213,"TEXCOORD_0":214},"indices":215,"material":5}]},{"name":"Cube_041","primitives":[{"attributes":{"POSITION":216,"NORMAL":217,"TANGENT":218,"TEXCOORD_0":219},"indices":220,"material":9},{"attributes":{"POSITION":216,"NORMAL":217,"TANGENT":218,"TEXCOORD_0":219},"indices":221,"material":11},{"attributes":{"POSITION":216,"NORMAL":217,"TANGENT":218,"TEXCOORD_0":219},"indices":222,"material":10}]},{"name":"Cube_042","primitives":[{"attributes":{"POSITION":223,"NORMAL":224,"TANGENT":225,"TEXCOORD_0":226},"indices":227,"material":5}]},{"name":"Cube_043","primitives":[{"attributes":{"POSITION":228,"NORMAL":229,"TANGENT":230,"TEXCOORD_0":231},"indices":232,"material":5}]},{"name":"Cube_044","primitives":[{"attributes":{"POSITION":233,"NORMAL":234,"TANGENT":235,"TEXCOORD_0":236},"indices":237,"material":9},{"attributes":{"POSITION":233,"NORMAL":234,"TANGENT":235,"TEXCOORD_0":236},"indices":238,"material":11},{"attributes":{"POSITION":233,"NORMAL":234,"TANGENT":235,"TEXCOORD_0":236},"indices":239,"material":10}]},{"name":"Cube_045","primitives":[{"attributes":{"POSITION":240,"NORMAL":241,"TANGENT":242,"TEXCOORD_0":243},"indices":244,"material":5}]},{"name":"Cube_046","primitives":[{"attributes":{"POSITION":245,"NORMAL":246,"TANGENT":247,"TEXCOORD_0":248},"indices":249,"material":5}]},{"name":"Cube_050","primitives":[{"attributes":{"POSITION":250,"NORMAL":251,"TANGENT":252,"TEXCOORD_0":253},"indices":254,"material":12},{"attributes":{"POSITION":250,"NORMAL":251,"TANGENT":252,"TEXCOORD_0":253},"indices":255,"material":13}]},{"name":"NurbsPath","primitives":[{"attributes":{"POSITION":256,"NORMAL":257,"TANGENT":258,"TEXCOORD_0":259},"indices":260,"material":14}]},{"name":"NurbsPath_001","primitives":[{"attributes":{"POSITION":261,"NORMAL":262,"TANGENT":263,"TEXCOORD_0":264},"indices":265,"material":14}]},{"name":"Plane__1_","primitives":[{"attributes":{"POSITION":266,"NORMAL":267,"TANGENT":268,"TEXCOORD_0":269},"indices":270,"material":15}]},{"name":"Text","primitives":[{"attributes":{"POSITION":271,"NORMAL":272,"TANGENT":273,"TEXCOORD_0":274},"indices":275,"material":16}]},{"name":"ImageTargetMesh25600","primitives":[{"attributes":{"POSITION":276,"NORMAL":277,"TEXCOORD_0":278},"indices":279,"material":17}]},{"name":"ImageTargetMesh25600","primitives":[{"attributes":{"POSITION":280,"NORMAL":281,"TEXCOORD_0":282},"indices":283,"material":18}]},{"name":"ImageTargetMesh25600","primitives":[{"attributes":{"POSITION":284,"NORMAL":285,"TEXCOORD_0":286},"indices":287,"material":19}]}],"scene":0,"scenes":[{"name":"04","nodes":[58]}],"textures":[{"source":0}]}