{"asset":{"version":"2.0","generator":"Unity 2022.3.28f1 glTFast 6.14.1"},"nodes":[{"name":"Building_Sky_big_color01","mesh":0,"translation":[-0.005354999,0.00455500046,9.594154E-05],"rotation":[0.7049904,0.054667633,0.054667633,0.7049904],"scale":[0.0005,0.0009999998,0.000499999966]},{"name":"government_building_police_station","mesh":1,"translation":[0.004235001,0.000584999565,0.00042593776],"rotation":[0.705898,-0.0413296036,-0.0413296036,0.705897868],"scale":[0.00065,0.00129999965,0.000649999944]},{"name":"post_office","mesh":2,"translation":[-0.004990002,-0.005275001,9.593678E-05],"rotation":[0.6169159,0.345564455,0.345564455,0.6169159],"scale":[0.000499999966,0.0009999999,0.0005]},{"name":"INFRASTRUCTURES","children":[0,1,2],"mesh":3,"translation":[0.09899999,1.03,-0.418],"rotation":[0,0,-1,6.123234E-17],"scale":[90,90,45.00001]},{"name":"ImageTargetPreview","mesh":4},{"name":"ImageTargetPreviewRoot","children":[4]},{"name":"ImageTargetPreview","mesh":5},{"name":"ImageTargetPreviewRoot","children":[6]},{"name":"ImageTargetPreview","mesh":6},{"name":"ImageTargetPreviewRoot","children":[8]},{"name":"11","children":[3,5,7,9],"translation":[-13.33,0,-6.61]}],"extensionsRequired":["KHR_materials_unlit"],"extensionsUsed":["KHR_materials_unlit"],"buffers":[{"uri":"11.bin","byteLength":724132}],"bufferViews":[{"buffer":0,"byteLength":2688,"target":34963},{"buffer":0,"byteLength":36552,"byteOffset":2688,"target":34963},{"buffer":0,"byteLength":8064,"byteOffset":39240,"target":34963},{"buffer":0,"byteLength":1608,"byteOffset":47304,"target":34963},{"buffer":0,"byteLength":12,"byteOffset":48912,"target":34963},{"buffer":0,"byteLength":12,"byteOffset":48924,"target":34963},{"buffer":0,"byteLength":12,"byteOffset":48936,"target":34963},{"buffer":0,"byteLength":128,"byteOffset":48948,"byteStride":32,"target":34962},{"buffer":0,"byteLength":128,"byteOffset":49076,"byteStride":32,"target":34962},{"buffer":0,"byteLength":128,"byteOffset":49204,"byteStride":32,"target":34962},{"buffer":0,"byteLength":38640,"byteOffset":49332,"byteStride":48,"target":34962},{"buffer":0,"byteLength":438816,"byteOffset":87972,"byteStride":48,"target":34962},{"buffer":0,"byteLength":13056,"byteOffset":526788,"byteStride":48,"target":34962},{"buffer":0,"byteLength":184288,"byteOffset":539844,"byteStride":104,"target":34962}],"accessors":[{"bufferView":10,"componentType":5126,"count":805,"type":"VEC3","max":[6.82987165,24.8023376,6.272703],"min":[-6.829867,-3.81469727E-06,-6.02374458]},{"bufferView":10,"componentType":5126,"count":805,"type":"VEC3","byteOffset":12},{"bufferView":10,"componentType":5126,"count":805,"type":"VEC4","byteOffset":24},{"bufferView":10,"componentType":5126,"count":805,"type":"VEC2","byteOffset":40},{"bufferView":0,"componentType":5123,"count":1344,"type":"SCALAR"},{"bufferView":11,"componentType":5126,"count":9142,"type":"VEC3","max":[7.65437174,9.286739,6.128443],"min":[-7.65437174,0,-3.12166]},{"bufferView":11,"componentType":5126,"count":9142,"type":"VEC3","byteOffset":12},{"bufferView":11,"componentType":5126,"count":9142,"type":"VEC4","byteOffset":24},{"bufferView":11,"componentType":5126,"count":9142,"type":"VEC2","byteOffset":40},{"bufferView":1,"componentType":5123,"count":2124,"type":"SCALAR"},{"bufferView":1,"componentType":5123,"count":16080,"type":"SCALAR","byteOffset":4248},{"bufferView":1,"componentType":5123,"count":72,"type":"SCALAR","byteOffset":36408},{"bufferView":13,"componentType":5126,"count":1772,"type":"VEC3","max":[5.267871,8.625278,4.0961504],"min":[-5.267871,0,-4.0961504]},{"bufferView":13,"componentType":5126,"count":1772,"type":"VEC3","byteOffset":12},{"bufferView":13,"componentType":5126,"count":1772,"type":"VEC4","byteOffset":24},{"bufferView":13,"componentType":5126,"count":1772,"type":"VEC2","byteOffset":40},{"bufferView":13,"componentType":5126,"count":1772,"type":"VEC2","byteOffset":48},{"bufferView":13,"componentType":5126,"count":1772,"type":"VEC2","byteOffset":56},{"bufferView":13,"componentType":5126,"count":1772,"type":"VEC2","byteOffset":64},{"bufferView":13,"componentType":5126,"count":1772,"type":"VEC2","byteOffset":72},{"bufferView":13,"componentType":5126,"count":1772,"type":"VEC2","byteOffset":80},{"bufferView":13,"componentType":5126,"count":1772,"type":"VEC2","byteOffset":88},{"bufferView":13,"componentType":5126,"count":1772,"type":"VEC2","byteOffset":96},{"bufferView":2,"componentType":5123,"count":4032,"type":"SCALAR"},{"bufferView":12,"componentType":5126,"count":272,"type":"VEC3","max":[0.01,0.01,0.0003558332],"min":[-0.01,-0.01,0]},{"bufferView":12,"componentType":5126,"count":272,"type":"VEC3","byteOffset":12},{"bufferView":12,"componentType":5126,"count":272,"type":"VEC4","byteOffset":24},{"bufferView":12,"componentType":5126,"count":272,"type":"VEC2","byteOffset":40},{"bufferView":3,"componentType":5123,"count":804,"type":"SCALAR"},{"bufferView":7,"componentType":5126,"count":4,"type":"VEC3","max":[0.5,0,0.5],"min":[-0.5,0,-0.5]},{"bufferView":7,"componentType":5126,"count":4,"type":"VEC3","byteOffset":12},{"bufferView":7,"componentType":5126,"count":4,"type":"VEC2","byteOffset":24},{"bufferView":4,"componentType":5123,"count":6,"type":"SCALAR"},{"bufferView":8,"componentType":5126,"count":4,"type":"VEC3","max":[0.5,0,0.5],"min":[-0.5,0,-0.5]},{"bufferView":8,"componentType":5126,"count":4,"type":"VEC3","byteOffset":12},{"bufferView":8,"componentType":5126,"count":4,"type":"VEC2","byteOffset":24},{"bufferView":5,"componentType":5123,"count":6,"type":"SCALAR"},{"bufferView":9,"componentType":5126,"count":4,"type":"VEC3","max":[0.5,0,0.5],"min":[-0.5,0,-0.5]},{"bufferView":9,"componentType":5126,"count":4,"type":"VEC3","byteOffset":12},{"bufferView":9,"componentType":5126,"count":4,"type":"VEC2","byteOffset":24},{"bufferView":6,"componentType":5123,"count":6,"type":"SCALAR"}],"images":[{"name":"Building Sky_big_color01.png","uri":"Building Sky_big_color01.png","mimeType":"image/png"},{"name":"color-palette-2.png","uri":"color-palette-2.png","mimeType":"image/png"},{"name":"police-station-heliport-texture.png","uri":"police-station-heliport-texture.png","mimeType":"image/png"},{"name":"texture_main.png","uri":"texture_main.png","mimeType":"image/png"},{"name":"11_scaled.jpg","uri":"11_scaled.jpg","mimeType":"image/jpeg"}],"materials":[{"name":"Building_Sky_big_color01","pbrMetallicRoughness":{"metallicFactor":0,"baseColorTexture":{"index":0}}},{"name":"police_station_windows_mat","pbrMetallicRoughness":{"baseColorFactor":[0.0782845542,0.0782845542,0.0782845542,1],"metallicFactor":0}},{"name":"main_color_palette_mat","pbrMetallicRoughness":{"metallicFactor":0,"baseColorTexture":{"index":1}}},{"name":"police_station_heliport_mat","pbrMetallicRoughness":{"metallicFactor":0,"baseColorTexture":{"index":2}}},{"name":"mat_main","pbrMetallicRoughness":{"metallicFactor":0,"baseColorTexture":{"index":3}}},{"name":"civil_truck_A_grid_doors_mat","pbrMetallicRoughness":{"baseColorFactor":[0.7991026,0.577580035,0.2874409,1],"metallicFactor":0}},{"name":"11Material\n25496","pbrMetallicRoughness":{"metallicFactor":0,"baseColorTexture":{"index":4}},"extensions":{"KHR_materials_unlit":{}}},{"name":"11Material\n25496","pbrMetallicRoughness":{"metallicFactor":0,"baseColorTexture":{"index":4}},"extensions":{"KHR_materials_unlit":{}}},{"name":"11Material\n25496","pbrMetallicRoughness":{"metallicFactor":0,"baseColorTexture":{"index":4}},"extensions":{"KHR_materials_unlit":{}}}],"meshes":[{"name":"Building_Sky_big_color01","primitives":[{"attributes":{"POSITION":0,"NORMAL":1,"TANGENT":2,"TEXCOORD_0":3},"indices":4,"material":0}]},{"name":"government_building_police_station","primitives":[{"attributes":{"POSITION":5,"NORMAL":6,"TANGENT":7,"TEXCOORD_0":8},"indices":9,"material":1},{"attributes":{"POSITION":5,"NORMAL":6,"TANGENT":7,"TEXCOORD_0":8},"indices":10,"material":2},{"attributes":{"POSITION":5,"NORMAL":6,"TANGENT":7,"TEXCOORD_0":8},"indices":11,"material":3}]},{"name":"post_office","primitives":[{"attributes":{"POSITION":12,"NORMAL":13,"TANGENT":14,"TEXCOORD_0":15,"TEXCOORD_1":16,"TEXCOORD_2":17,"TEXCOORD_3":18,"TEXCOORD_4":19,"TEXCOORD_5":20,"TEXCOORD_6":21,"TEXCOORD_7":22},"indices":23,"material":4}]},{"name":"INFRASTRUCTURES","primitives":[{"attributes":{"POSITION":24,"NORMAL":25,"TANGENT":26,"TEXCOORD_0":27},"indices":28,"material":5}]},{"name":"ImageTargetMesh25496","primitives":[{"attributes":{"POSITION":29,"NORMAL":30,"TEXCOORD_0":31},"indices":32,"material":6}]},{"name":"ImageTargetMesh25496","primitives":[{"attributes":{"POSITION":33,"NORMAL":34,"TEXCOORD_0":35},"indices":36,"material":7}]},{"name":"ImageTargetMesh25496","primitives":[{"attributes":{"POSITION":37,"NORMAL":38,"TEXCOORD_0":39},"indices":40,"material":8}]}],"samplers":[{"wrapS":33071,"wrapT":33071}],"scene":0,"scenes":[{"name":"11","nodes":[10]}],"textures":[{"source":0,"sampler":0},{"source":1,"sampler":0},{"source":2,"sampler":0},{"source":3,"sampler":0},{"source":4}]}