{"asset":{"version":"2.0","generator":"Unity 2022.3.28f1 glTFast 6.14.1"},"nodes":[{"name":"BaseHuman","mesh":0,"translation":[9.80035547E-05,0.0006935696,-8.31170255E-05],"rotation":[-8.940698E-08,-1.11758833E-08,0.119556129,0.9928275],"scale":[0.156997889,0.20561029,0.220532045],"skin":0},{"name":"BaseHuman_1","mesh":1,"translation":[-0.00394357368,-0.00310795056,-8.31170255E-05],"rotation":[-8.940699E-08,-1.117588E-08,0.09925584,0.995062],"scale":[0.15758197,0.204086229,0.22053194],"skin":1},{"name":"BaseHuman_3","mesh":2,"translation":[0.001566069,-0.005530206,-8.311676E-05],"rotation":[-8.940697E-08,7.45058E-09,-0.102544412,0.994728446],"scale":[0.157494679,0.204315647,0.22053194],"skin":2},{"name":"Head_end","translation":[0,0.005158337,0]},{"name":"Head","children":[3],"translation":[-3.49245958E-12,0.00195343513,-2.38542269E-10],"rotation":[-0.115399346,-0.0001983275,0.00300096814,0.9933146],"scale":[0.99999994,0.99999994,0.99999994]},{"name":"Neck","children":[4],"translation":[1.30967231E-12,0.009521058,2.53930921E-11],"rotation":[0.08210647,8.08844E-06,0.0001408604,0.9966236],"scale":[1,1.00000012,1.00000012]},{"name":"Fingers_L_end","translation":[0,0.00162841554,0]},{"name":"Fingers_L","children":[6],"translation":[-7.4505796E-10,0.00209138333,1.86264511E-11],"rotation":[-0.627352059,0.0107120322,-0.105104111,0.771536052],"scale":[0.99999994,1.00000012,1.00000024]},{"name":"MiddleHand_L","children":[7],"translation":[-1.49011609E-10,0.00202119513,-5.587935E-10],"rotation":[0.0341194347,-0.009062325,0.000488291844,0.999376535],"scale":[0.99999994,1,1.00000012]},{"name":"Thumb2_L_end","translation":[0,0.00184693,0]},{"name":"Thumb2_L","children":[9],"translation":[5.96046434E-10,0.00156702532,-7.4505796E-10],"rotation":[-0.414007455,-0.8379357,0.176949292,0.3084649],"scale":[0.9999999,0.9999998,0.999999762]},{"name":"Thumb1_L","children":[10],"translation":[0.0009553676,0.0007704745,-0.000190326638],"rotation":[-0.127050862,-0.8886151,0.12711598,-0.421975046],"scale":[1.00000012,0.99999994,1]},{"name":"Palm_L","children":[8,11],"translation":[-1.49011609E-10,0.00821869448,-5.21540644E-10],"rotation":[-0.0915872157,0.0118114864,-0.0010549057,0.995726466],"scale":[1,0.99999994,1]},{"name":"LowerArm_L","children":[12],"translation":[-6.33299357E-10,0.00742473,3.282912E-10],"rotation":[-0.0336048044,-0.0176892746,-0.18155,0.9826482],"scale":[0.9999999,1.00000012,1.00000012]},{"name":"UpperArm_L","children":[13],"translation":[-1.983717E-09,0.00315858424,8.405186E-10],"rotation":[-0.564152,-0.312505454,-0.6732204,0.361727983],"scale":[1.00000012,1.00000024,1.00000024]},{"name":"Shoulder_L","children":[14],"translation":[0.00246169046,0.00483653229,0.00030734454],"rotation":[0.0747454241,0.0304807518,-0.376361847,0.922949553],"scale":[1,1,1.00000012]},{"name":"Fingers_R_end","translation":[0,0.00200685579,0]},{"name":"Fingers_R","children":[16],"translation":[-1.11758706E-10,0.00229243981,-1.39698378E-10],"rotation":[-0.5675212,0.02062972,0.0581926256,0.82104063],"scale":[0.99999994,1.00000012,1]},{"name":"Thumb2_R_end","translation":[0,0.00184693,0]},{"name":"Thumb2_R","children":[18],"translation":[-1.49011609E-10,0.00156702916,-1.34110445E-09],"rotation":[0.09193248,-0.8556646,-0.5031182,-0.07911093],"scale":[1,0.9999999,0.9999999]},{"name":"Thumb1_R","children":[19],"translation":[-0.00128886441,-0.0007000994,-0.000165862235],"rotation":[0.194684312,-0.8634474,-0.03409538,-0.4641057],"scale":[1.00000012,1.00000024,1.00000012]},{"name":"MiddleHand_R","children":[17,20],"translation":[7.45058043E-11,0.00213322463,-2.70083539E-10],"rotation":[0.03343018,0.009062408,-0.0004784616,0.999399841],"scale":[1,1.00000012,1]},{"name":"Palm_R","children":[21],"translation":[1.11758706E-10,0.008312068,-1.03376807E-09],"rotation":[-0.0878326148,-0.0118210046,0.00101115531,0.9960646],"scale":[0.99999994,0.99999994,0.99999994]},{"name":"LowerArm_R","children":[22],"translation":[2.23517413E-10,0.006825552,9.825453E-10],"rotation":[-0.03663893,-0.0356387869,0.0592783,0.9969321],"scale":[0.99999994,1,1]},{"name":"UpperArm_R","children":[23],"translation":[5.494803E-10,0.00315858517,1.21071916E-10],"rotation":[0.59656316,-0.350051254,-0.636852741,-0.340580523],"scale":[0.9999999,1.00000024,1.00000048]},{"name":"Shoulder_R","children":[24],"translation":[-0.00231965049,0.00482846331,0.0003788404],"rotation":[0.0747456253,-0.0304801669,0.376361817,0.922949553]},{"name":"Torso","children":[5,15,25],"translation":[3.20142133E-12,0.007706758,-6.639311E-11],"rotation":[0.011243578,-8.31911962E-07,2.760484E-09,0.9999368],"scale":[1,1,0.99999994]},{"name":"Abdomen","children":[26],"translation":[8.14907256E-12,0.003933567,1.13650457E-10],"rotation":[0.08057472,4.36527159E-07,4.991713E-08,0.9967486]},{"name":"Hips","children":[27],"translation":[-2.05049873E-05,-0.0016270061,-0.00112671684],"rotation":[-0.09921342,-2.66444573E-07,-4.452936E-08,0.9950662],"scale":[1,0.99999994,1]},{"name":"LowerLeg_L_end","translation":[0,0.0129618011,0]},{"name":"LowerLeg_L","children":[29],"translation":[7.45058043E-11,0.008284609,7.4505796E-10],"rotation":[0.2303388,1.07668932E-08,-4.211051E-08,0.9731105],"scale":[1.00000012,1.00000048,1]},{"name":"UpperLeg_L","children":[30],"translation":[0.002996446,0.000337779435,-0.00182561169],"rotation":[0.981627,0.05459207,-0.162538424,0.08372247],"scale":[0.99999994,1.00000036,1.00000632]},{"name":"LowerLeg_R_end","translation":[0,0.0129200621,0]},{"name":"LowerLeg_R","children":[32],"translation":[-5.96046434E-10,0.00832634047,1.58324839E-10],"rotation":[0.246602044,-1.11115774E-07,2.35445334E-08,0.9691168],"scale":[0.99999994,0.9999998,1.00000012]},{"name":"UpperLeg_R","children":[33],"translation":[-0.00319736777,0.0003377797,-0.00182561646],"rotation":[0.9938355,-0.0169993658,-0.009405939,0.109149292],"scale":[0.9999999,1.0000006,1.00000918]},{"name":"Body","children":[28,31,34],"translation":[1.07378912E-06,0.0207996443,0.002854702],"rotation":[-0.000517633,0.00364294136,2.44280036E-05,0.999993265],"scale":[0.9999999,1,1]},{"name":"Foot_L_end","translation":[0,0.003255489,0]},{"name":"Foot_L","children":[36],"translation":[0.00383639243,0.000600924,-0.00148670538],"rotation":[-0.138043523,-0.6825933,-0.7050899,0.133636326],"scale":[0.99999994,0.9999998,1]},{"name":"Foot_R_end","translation":[0,0.00325548975,0]},{"name":"Foot_R","children":[38],"translation":[-0.00398397632,0.000600924,-0.000673433],"rotation":[0.0853200257,-0.6906282,-0.71339345,-0.08260236],"scale":[0.99999994,0.9999999,1]},{"name":"PoleTarget_L_end","translation":[0,0.00309120771,0]},{"name":"PoleTarget_L","children":[40],"translation":[0.008241551,0.0108235106,0.0132812653],"rotation":[1.04224923E-18,-1.22235988E-07,-2.84216184E-12,1]},{"name":"PoleTarget_R_end","translation":[0,0.00309120771,0]},{"name":"PoleTarget_R","children":[42],"translation":[-0.00319619477,0.0109649636,0.018037945],"rotation":[1.04224923E-18,-1.22235988E-07,-2.84216184E-12,1]},{"name":"Bone","children":[35,37,39,41,43],"translation":[-3.195463E-05,2.79434016E-06,-5.885174E-05],"rotation":[0.706984758,1.68616523E-07,-1.6855833E-07,0.7072288]},{"name":"HumanArmature","children":[44],"translation":[9.80035547E-05,0.0006935695,0.000380000245],"rotation":[-8.940698E-08,-1.11758833E-08,0.119556129,0.9928275],"scale":[0.156997889,0.20561029,0.220532045]},{"name":"Head_end_1","translation":[0,0.005158337,0]},{"name":"Head_1","children":[46],"translation":[-3.49245958E-12,0.00195343513,-2.38542269E-10],"rotation":[-0.115399227,-0.000198526875,0.003000945,0.9933146],"scale":[0.99999994,0.99999994,0.99999994]},{"name":"Neck_1","children":[47],"translation":[1.30967231E-12,0.009521058,2.53930921E-11],"rotation":[0.08210647,8.08832647E-06,0.000140861783,0.9966236],"scale":[1,1.00000012,1.00000012]},{"name":"Fingers_L_end_1","translation":[0,0.00162841554,0]},{"name":"Fingers_L_1","children":[49],"translation":[-7.4505796E-10,0.00209138333,1.86264511E-11],"rotation":[-0.6273521,0.010712021,-0.105104059,0.771535933],"scale":[0.99999994,1.00000012,1.00000024]},{"name":"MiddleHand_L_1","children":[50],"translation":[-1.49011609E-10,0.00202119513,-5.587935E-10],"rotation":[0.03411944,-0.009062325,0.000488291844,0.999376535],"scale":[0.99999994,1,1.00000012]},{"name":"Thumb2_L_end_1","translation":[0,0.00184693,0]},{"name":"Thumb2_L_1","children":[52],"translation":[5.96046434E-10,0.00156702532,-7.4505796E-10],"rotation":[-0.414007485,-0.8379356,0.176949412,0.308464885],"scale":[0.9999999,0.9999998,0.999999762]},{"name":"Thumb1_L_1","children":[53],"translation":[0.0009553676,0.0007704745,-0.000190326638],"rotation":[-0.127050817,-0.8886151,0.12711589,-0.4219751],"scale":[1.00000012,0.99999994,1]},{"name":"Palm_L_1","children":[51,54],"translation":[-1.49011609E-10,0.00821869448,-5.21540644E-10],"rotation":[-0.09158718,0.0118114864,-0.001054906,0.995726466],"scale":[1,0.99999994,1]},{"name":"LowerArm_L_1","children":[55],"translation":[-6.33299357E-10,0.00742473,3.282912E-10],"rotation":[-0.03360478,-0.0176892746,-0.18155,0.9826482],"scale":[0.9999999,1.00000012,1.00000012]},{"name":"UpperArm_L_1","children":[56],"translation":[-1.983717E-09,0.00315858424,8.405186E-10],"rotation":[-0.564152,-0.312505454,-0.673220456,0.361728072],"scale":[1.00000012,1.00000024,1.00000024]},{"name":"Shoulder_L_1","children":[57],"translation":[0.00246169046,0.00483653229,0.00030734454],"rotation":[0.0747454241,0.0304807518,-0.376361847,0.922949553],"scale":[1,1,1.00000012]},{"name":"Fingers_R_end_1","translation":[0,0.00200685579,0]},{"name":"Fingers_R_1","children":[59],"translation":[-1.11758706E-10,0.00229243981,-1.39698378E-10],"rotation":[-0.567521155,0.0206296463,0.058192566,0.8210407],"scale":[0.99999994,1.00000012,1]},{"name":"Thumb2_R_end_1","translation":[0,0.00184693,0]},{"name":"Thumb2_R_1","children":[61],"translation":[-1.49011609E-10,0.00156702916,-1.34110445E-09],"rotation":[0.09193241,-0.8556646,-0.5031183,-0.07911085],"scale":[1,0.9999999,0.9999999]},{"name":"Thumb1_R_1","children":[62],"translation":[-0.00128886441,-0.0007000994,-0.000165862235],"rotation":[0.194684282,-0.8634474,-0.0340954177,-0.4641057],"scale":[1.00000012,1.00000024,1.00000012]},{"name":"MiddleHand_R_1","children":[60,63],"translation":[7.45058043E-11,0.00213322463,-2.70083539E-10],"rotation":[0.0334299654,0.00906240847,-0.000478459668,0.9993999],"scale":[1,1.00000012,1]},{"name":"Palm_R_1","children":[64],"translation":[1.11758706E-10,0.008312068,-1.03376807E-09],"rotation":[-0.0878326148,-0.0118210046,0.00101115531,0.9960646],"scale":[0.99999994,0.99999994,0.99999994]},{"name":"LowerArm_R_1","children":[65],"translation":[2.23517413E-10,0.006825552,9.825453E-10],"rotation":[-0.036638923,-0.03563879,0.0592781752,0.9969321],"scale":[0.99999994,1,1]},{"name":"UpperArm_R_1","children":[66],"translation":[5.494803E-10,0.00315858517,1.21071916E-10],"rotation":[0.596562743,-0.350050747,-0.6368532,-0.340580881],"scale":[0.9999999,1.00000024,1.00000048]},{"name":"Shoulder_R_1","children":[67],"translation":[-0.00231965049,0.00482846331,0.0003788404],"rotation":[0.07474566,-0.0304801539,0.376361847,0.9229495]},{"name":"Torso_1","children":[48,58,68],"translation":[3.20142133E-12,0.007706758,-6.639311E-11],"rotation":[0.0112435771,-8.31911962E-07,2.760486E-09,0.9999368],"scale":[1,1,0.99999994]},{"name":"Abdomen_1","children":[69],"translation":[8.14907256E-12,0.003933567,1.13650457E-10],"rotation":[0.0805747956,4.36527131E-07,4.99170945E-08,0.996748567]},{"name":"Hips_1","children":[70],"translation":[-2.05049873E-05,-0.0016270061,-0.00112671684],"rotation":[-0.09921337,-2.66444573E-07,-4.45293473E-08,0.9950662],"scale":[1,0.99999994,1]},{"name":"LowerLeg_L_end_1","translation":[0,0.0129618011,0]},{"name":"LowerLeg_L_1","children":[72],"translation":[7.45058043E-11,0.008284609,7.4505796E-10],"rotation":[0.230338812,1.07668932E-08,-4.211051E-08,0.9731105],"scale":[1.00000012,1.00000048,1]},{"name":"UpperLeg_L_1","children":[73],"translation":[0.002996446,0.000337779435,-0.00182561169],"rotation":[0.981627,0.054592073,-0.162538409,0.0837225243],"scale":[0.99999994,1.00000036,1.00000632]},{"name":"LowerLeg_R_end_1","translation":[0,0.0129200621,0]},{"name":"LowerLeg_R_1","children":[75],"translation":[-5.96046434E-10,0.00832634047,1.58324839E-10],"rotation":[0.246602044,-1.11115781E-07,2.35445334E-08,0.969116867],"scale":[0.99999994,0.9999998,1.00000012]},{"name":"UpperLeg_R_1","children":[76],"translation":[-0.00319736777,0.0003377797,-0.00182561646],"rotation":[0.9938355,-0.01699947,-0.00940593053,0.109149121],"scale":[0.9999999,1.0000006,1.00000918]},{"name":"Body_1","children":[71,74,77],"translation":[1.07378912E-06,0.0207996443,0.002854702],"rotation":[-0.000517633,0.00364294136,2.44280036E-05,0.999993265],"scale":[0.9999999,1,1]},{"name":"Foot_L_end_1","translation":[0,0.003255489,0]},{"name":"Foot_L_1","children":[79],"translation":[0.00383639243,0.000600924,-0.00148670538],"rotation":[-0.138043553,-0.6825933,-0.7050899,0.13363637],"scale":[0.99999994,0.9999998,1]},{"name":"Foot_R_end_1","translation":[0,0.00325548975,0]},{"name":"Foot_R_1","children":[81],"translation":[-0.00398397632,0.000600924,-0.000673433],"rotation":[0.08532003,-0.6906282,-0.71339345,-0.08260236],"scale":[0.99999994,0.9999999,1]},{"name":"PoleTarget_L_end_1","translation":[0,0.00309120771,0]},{"name":"PoleTarget_L_1","children":[83],"translation":[0.008241551,0.0108235106,0.0132812653],"rotation":[-5.19130074E-19,-1.16415293E-07,-8.73503E-18,1]},{"name":"PoleTarget_R_end_1","translation":[0,0.00309120771,0]},{"name":"PoleTarget_R_1","children":[85],"translation":[-0.00319619477,0.0109649636,0.018037945],"rotation":[-5.19130074E-19,-1.16415293E-07,-8.73503E-18,1]},{"name":"Bone_1","children":[78,80,82,84,86],"translation":[-3.195463E-05,2.79434016E-06,-5.885174E-05],"rotation":[0.706984758,1.68616509E-07,-1.68558344E-07,0.7072288]},{"name":"HumanArmature_1","children":[87],"translation":[-0.00394357368,-0.00310795056,0.000379999983],"rotation":[-8.940699E-08,-1.117588E-08,0.09925584,0.995062],"scale":[0.15758197,0.204086229,0.22053194]},{"name":"Head_end_3","translation":[0,0.005158337,0]},{"name":"Head_3","children":[89],"translation":[-3.49245958E-12,0.00195343513,-2.38542269E-10],"rotation":[-0.115399279,-0.000198318754,0.003000969,0.9933146],"scale":[0.99999994,0.99999994,0.99999994]},{"name":"Neck_3","children":[90],"translation":[1.30967231E-12,0.009521058,2.53930921E-11],"rotation":[0.08210647,8.088601E-06,0.000140858465,0.9966236],"scale":[1,1.00000012,1.00000012]},{"name":"Fingers_L_end_3","translation":[0,0.00162841554,0]},{"name":"Fingers_L_3","children":[92],"translation":[-7.4505796E-10,0.00209138333,1.86264511E-11],"rotation":[-0.6273522,0.010711805,-0.105104052,0.771535933],"scale":[0.99999994,1.00000012,1.00000024]},{"name":"MiddleHand_L_3","children":[93],"translation":[-1.49011609E-10,0.00202119513,-5.587935E-10],"rotation":[0.0341195539,-0.009062327,0.0004883777,0.999376535],"scale":[0.99999994,1,1.00000012]},{"name":"Thumb2_L_end_3","translation":[0,0.00184693,0]},{"name":"Thumb2_L_3","children":[95],"translation":[5.96046434E-10,0.00156702532,-7.4505796E-10],"rotation":[-0.4140075,-0.8379357,0.176949322,0.3084648],"scale":[0.9999999,0.9999998,0.999999762]},{"name":"Thumb1_L_3","children":[96],"translation":[0.0009553676,0.0007704745,-0.000190326638],"rotation":[-0.127050847,-0.8886151,0.127116,-0.421975017],"scale":[1.00000012,0.99999994,1]},{"name":"Palm_L_3","children":[94,97],"translation":[-1.49011609E-10,0.00821869448,-5.21540644E-10],"rotation":[-0.09158713,0.0118114864,-0.00105490664,0.995726466],"scale":[1,0.99999994,1]},{"name":"LowerArm_L_3","children":[98],"translation":[-6.33299357E-10,0.00742473,3.282912E-10],"rotation":[-0.03360487,-0.0176892933,-0.18155,0.9826482],"scale":[0.9999999,1.00000012,1.00000012]},{"name":"UpperArm_L_3","children":[99],"translation":[-1.983717E-09,0.00315858424,8.405186E-10],"rotation":[-0.5641521,-0.312505722,-0.6732203,0.361728],"scale":[1.00000012,1.00000024,1.00000024]},{"name":"Shoulder_L_3","children":[100],"translation":[0.00246169046,0.00483653229,0.00030734454],"rotation":[0.07474534,0.0304807872,-0.376361877,0.922949553],"scale":[1,1,1.00000012]},{"name":"Fingers_R_end_3","translation":[0,0.00200685579,0]},{"name":"Fingers_R_3","children":[102],"translation":[-1.11758706E-10,0.00229243981,-1.39698378E-10],"rotation":[-0.5675211,0.0206295773,0.05819247,0.82104075],"scale":[0.99999994,1.00000012,1]},{"name":"Thumb2_R_end_3","translation":[0,0.00184693,0]},{"name":"Thumb2_R_3","children":[104],"translation":[-1.49011609E-10,0.00156702916,-1.34110445E-09],"rotation":[0.09193242,-0.855664551,-0.5031184,-0.07911069],"scale":[1,0.9999999,0.9999999]},{"name":"Thumb1_R_3","children":[105],"translation":[-0.00128886441,-0.0007000994,-0.000165862235],"rotation":[0.194684193,-0.8634474,-0.03409546,-0.4641057],"scale":[1.00000012,1.00000024,1.00000012]},{"name":"MiddleHand_R_3","children":[103,106],"translation":[7.45058043E-11,0.00213322463,-2.70083539E-10],"rotation":[0.0334301,0.009062302,-0.000478565955,0.9993999],"scale":[1,1.00000012,1]},{"name":"Palm_R_3","children":[107],"translation":[1.11758706E-10,0.008312068,-1.03376807E-09],"rotation":[-0.08783265,-0.0118210046,0.00101115485,0.9960646],"scale":[0.99999994,0.99999994,0.99999994]},{"name":"LowerArm_R_3","children":[108],"translation":[2.23517413E-10,0.006825552,9.825453E-10],"rotation":[-0.0366390534,-0.0356387459,0.0592781045,0.9969321],"scale":[0.99999994,1,1]},{"name":"UpperArm_R_3","children":[109],"translation":[5.494803E-10,0.00315858517,1.21071916E-10],"rotation":[0.596562743,-0.350050777,-0.636853158,-0.340581149],"scale":[0.9999999,1.00000024,1.00000048]},{"name":"Shoulder_R_3","children":[110],"translation":[-0.00231965049,0.00482846331,0.0003788404],"rotation":[0.0747456253,-0.03048018,0.376362026,0.922949433]},{"name":"Torso_3","children":[91,101,111],"translation":[3.20142133E-12,0.007706758,-6.639311E-11],"rotation":[0.0112435836,-8.31911962E-07,2.76048673E-09,0.9999368],"scale":[1,1,0.99999994]},{"name":"Abdomen_3","children":[112],"translation":[8.14907256E-12,0.003933567,1.13650457E-10],"rotation":[0.08057466,4.36527159E-07,4.99171549E-08,0.9967486]},{"name":"Hips_3","children":[113],"translation":[-2.05049873E-05,-0.0016270061,-0.00112671684],"rotation":[-0.09921332,-2.66444573E-07,-4.45293331E-08,0.9950662],"scale":[1,0.99999994,1]},{"name":"LowerLeg_L_end_3","translation":[0,0.0129618011,0]},{"name":"LowerLeg_L_3","children":[115],"translation":[7.45058043E-11,0.008284609,7.4505796E-10],"rotation":[0.2303388,1.07668932E-08,-4.211051E-08,0.9731105],"scale":[1.00000012,1.00000048,1]},{"name":"UpperLeg_L_3","children":[116],"translation":[0.002996446,0.000337779435,-0.00182561169],"rotation":[0.981627,0.05459208,-0.1625384,0.0837225],"scale":[0.99999994,1.00000036,1.00000632]},{"name":"LowerLeg_R_end_3","translation":[0,0.0129200621,0]},{"name":"LowerLeg_R_3","children":[118],"translation":[-5.96046434E-10,0.00832634047,1.58324839E-10],"rotation":[0.246602044,-1.11115781E-07,2.35445334E-08,0.969116867],"scale":[0.99999994,0.9999998,1.00000012]},{"name":"UpperLeg_R_3","children":[119],"translation":[-0.00319736777,0.0003377797,-0.00182561646],"rotation":[0.9938355,-0.0169993415,-0.009405944,0.109149165],"scale":[0.9999999,1.0000006,1.00000918]},{"name":"Body_3","children":[114,117,120],"translation":[1.07378912E-06,0.0207996443,0.002854702],"rotation":[-0.000517633,0.00364294136,2.44279981E-05,0.999993265],"scale":[0.9999999,1,1]},{"name":"Foot_L_end_3","translation":[0,0.003255489,0]},{"name":"Foot_L_3","children":[122],"translation":[0.00383639243,0.000600924,-0.00148670538],"rotation":[-0.138043568,-0.6825933,-0.7050899,0.133636385],"scale":[0.99999994,0.9999998,1]},{"name":"Foot_R_end_3","translation":[0,0.00325548975,0]},{"name":"Foot_R_3","children":[124],"translation":[-0.00398397632,0.000600924,-0.000673433],"rotation":[0.08532003,-0.6906282,-0.71339345,-0.08260236],"scale":[0.99999994,0.9999999,1]},{"name":"PoleTarget_L_end_3","translation":[0,0.00309120771,0]},{"name":"PoleTarget_L_3","children":[126],"translation":[0.008241551,0.0108235106,0.0132812653],"rotation":[-4.0728537E-18,-1.16415308E-07,-2.842171E-12,1]},{"name":"PoleTarget_R_end_3","translation":[0,0.00309120771,0]},{"name":"PoleTarget_R_3","children":[128],"translation":[-0.00319619477,0.0109649636,0.018037945],"rotation":[-4.0728537E-18,-1.16415308E-07,-2.842171E-12,1]},{"name":"Bone_3","children":[121,123,125,127,129],"translation":[-3.195463E-05,2.79434016E-06,-5.885174E-05],"rotation":[0.706984758,1.68616609E-07,-1.68558358E-07,0.7072288]},{"name":"HumanArmature_3","children":[130],"translation":[0.001566069,-0.005530206,0.000379999983],"rotation":[-8.940697E-08,7.45058E-09,-0.102544412,0.994728446],"scale":[0.157494679,0.204315647,0.22053194]},{"name":"Male_Casual","translation":[9.80035547E-05,0.0006935695,0.000380000245],"rotation":[0.702035069,0.0845387056,0.0845387056,0.702035069],"scale":[0.00156997889,0.00220531924,0.0020561018]},{"name":"Male_Casual__1_","translation":[-0.00394357368,-0.00310795056,0.000379999983],"rotation":[0.703615069,0.07018438,0.07018438,0.703615069],"scale":[0.00157581992,0.00220531947,0.00204086141]},{"name":"BaseHuman_2","mesh":3,"translation":[0.0085017,-0.209999859,0.004100678],"rotation":[-0.706339955,-0.032923013,-0.032923013,0.706339955],"scale":[100,100,100],"skin":3},{"name":"Head_end_2","translation":[0,0.005158337,0]},{"name":"Head_2","children":[135],"translation":[-3.49245958E-12,0.00195343513,-2.38542269E-10],"rotation":[-0.115399353,-0.000198401729,0.00300095952,0.9933146],"scale":[0.99999994,0.99999994,0.99999994]},{"name":"Neck_2","children":[136],"translation":[1.30967231E-12,0.009521058,2.53930921E-11],"rotation":[0.08210647,8.088967E-06,0.000140854,0.9966236],"scale":[1,1.00000012,1.00000012]},{"name":"Fingers_L_end_2","translation":[0,0.00162841554,0]},{"name":"Fingers_L_2","children":[138],"translation":[-7.4505796E-10,0.00209138333,1.86264511E-11],"rotation":[-0.627352,0.0107119419,-0.105104119,0.771536052],"scale":[0.99999994,1.00000012,1.00000024]},{"name":"MiddleHand_L_2","children":[139],"translation":[-1.49011609E-10,0.00202119513,-5.587935E-10],"rotation":[0.0341194347,-0.009062325,0.000488291844,0.999376535],"scale":[0.99999994,1,1.00000012]},{"name":"Thumb2_L_end_2","translation":[0,0.00184693,0]},{"name":"Thumb2_L_2","children":[141],"translation":[5.96046434E-10,0.00156702532,-7.4505796E-10],"rotation":[-0.414007485,-0.8379357,0.176949292,0.3084648],"scale":[0.9999999,0.9999998,0.999999762]},{"name":"Thumb1_L_2","children":[142],"translation":[0.0009553676,0.0007704745,-0.000190326638],"rotation":[-0.127050862,-0.8886151,0.12711595,-0.421975076],"scale":[1.00000012,0.99999994,1]},{"name":"Palm_L_2","children":[140,143],"translation":[-1.49011609E-10,0.00821869448,-5.21540644E-10],"rotation":[-0.09158713,0.0118114864,-0.00105490664,0.995726466],"scale":[1,0.99999994,1]},{"name":"LowerArm_L_2","children":[144],"translation":[-6.33299357E-10,0.00742473,3.282912E-10],"rotation":[-0.0336050019,-0.0176893063,-0.181550041,0.9826482],"scale":[0.9999999,1.00000012,1.00000012]},{"name":"UpperArm_L_2","children":[145],"translation":[-1.983717E-09,0.00315858424,8.405186E-10],"rotation":[-0.564152,-0.3125055,-0.673220456,0.361728],"scale":[1.00000012,1.00000024,1.00000024]},{"name":"Shoulder_L_2","children":[146],"translation":[0.00246169046,0.00483653229,0.00030734454],"rotation":[0.0747454241,0.0304807518,-0.376361847,0.922949553],"scale":[1,1,1.00000012]},{"name":"Fingers_R_end_2","translation":[0,0.00200685579,0]},{"name":"Fingers_R_2","children":[148],"translation":[-1.11758706E-10,0.00229243981,-1.39698378E-10],"rotation":[-0.5675212,0.0206295867,0.0581924543,0.82104063],"scale":[0.99999994,1.00000012,1]},{"name":"Thumb2_R_end_2","translation":[0,0.00184693,0]},{"name":"Thumb2_R_2","children":[150],"translation":[-1.49011609E-10,0.00156702916,-1.34110445E-09],"rotation":[0.09193233,-0.8556647,-0.5031183,-0.07911083],"scale":[1,0.9999999,0.9999999]},{"name":"Thumb1_R_2","children":[151],"translation":[-0.00128886441,-0.0007000994,-0.000165862235],"rotation":[0.194684356,-0.8634474,-0.034095373,-0.4641057],"scale":[1.00000012,1.00000024,1.00000012]},{"name":"MiddleHand_R_2","children":[149,152],"translation":[7.45058043E-11,0.00213322463,-2.70083539E-10],"rotation":[0.0334300958,0.00906240847,-0.000478460774,0.9993999],"scale":[1,1.00000012,1]},{"name":"Palm_R_2","children":[153],"translation":[1.11758706E-10,0.008312068,-1.03376807E-09],"rotation":[-0.0878326148,-0.0118210046,0.00101115531,0.9960646],"scale":[0.99999994,0.99999994,0.99999994]},{"name":"LowerArm_R_2","children":[154],"translation":[2.23517413E-10,0.006825552,9.825453E-10],"rotation":[-0.0366390273,-0.0356387943,0.059278138,0.9969321],"scale":[0.99999994,1,1]},{"name":"UpperArm_R_2","children":[155],"translation":[5.494803E-10,0.00315858517,1.21071916E-10],"rotation":[0.596562862,-0.350050718,-0.6368532,-0.340580761],"scale":[0.9999999,1.00000024,1.00000048]},{"name":"Shoulder_R_2","children":[156],"translation":[-0.00231965049,0.00482846331,0.0003788404],"rotation":[0.07474563,-0.0304801725,0.376361936,0.9229495]},{"name":"Torso_2","children":[137,147,157],"translation":[3.20142133E-12,0.007706758,-6.639311E-11],"rotation":[0.01124359,-8.31911962E-07,2.76049561E-09,0.9999368],"scale":[1,1,0.99999994]},{"name":"Abdomen_2","children":[158],"translation":[8.14907256E-12,0.003933567,1.13650457E-10],"rotation":[0.080574736,4.36527131E-07,4.991712E-08,0.996748567]},{"name":"Hips_2","children":[159],"translation":[-2.05049873E-05,-0.0016270061,-0.00112671684],"rotation":[-0.09921335,-2.66444573E-07,-4.452934E-08,0.9950662],"scale":[1,0.99999994,1]},{"name":"LowerLeg_L_end_2","translation":[0,0.0129618011,0]},{"name":"LowerLeg_L_2","children":[161],"translation":[7.45058043E-11,0.008284609,7.4505796E-10],"rotation":[0.2303388,1.07668949E-08,-4.211051E-08,0.9731105],"scale":[1.00000012,1.00000048,1]},{"name":"UpperLeg_L_2","children":[162],"translation":[0.002996446,0.000337779435,-0.00182561169],"rotation":[0.981627,0.05459207,-0.162538424,0.08372253],"scale":[0.99999994,1.00000036,1.00000632]},{"name":"LowerLeg_R_end_2","translation":[0,0.0129200621,0]},{"name":"LowerLeg_R_2","children":[164],"translation":[-5.96046434E-10,0.00832634047,1.58324839E-10],"rotation":[0.246602044,-1.11115774E-07,2.35445334E-08,0.9691168],"scale":[0.99999994,0.9999998,1.00000012]},{"name":"UpperLeg_R_2","children":[165],"translation":[-0.00319736777,0.0003377797,-0.00182561646],"rotation":[0.9938355,-0.016999431,-0.009405932,0.10914918],"scale":[0.9999999,1.0000006,1.00000918]},{"name":"Body_2","children":[160,163,166],"translation":[1.07378912E-06,0.0207996443,0.002854702],"rotation":[-0.000517633,0.00364294136,2.4428E-05,0.999993265],"scale":[0.9999999,1,1]},{"name":"Foot_L_end_2","translation":[0,0.003255489,0]},{"name":"Foot_L_2","children":[168],"translation":[0.00383639243,0.000600924,-0.00148670538],"rotation":[-0.1380436,-0.6825933,-0.7050899,0.133636415],"scale":[0.99999994,0.9999998,1]},{"name":"Foot_R_end_2","translation":[0,0.00325548975,0]},{"name":"Foot_R_2","children":[170],"translation":[-0.00398397632,0.000600924,-0.000673433],"rotation":[0.0853200555,-0.6906282,-0.71339345,-0.08260236],"scale":[0.99999994,0.9999999,1]},{"name":"PoleTarget_L_end_2","translation":[0,0.00309120771,0]},{"name":"PoleTarget_L_2","children":[172],"translation":[0.008241551,0.0108235106,0.0132812653],"rotation":[4.745777E-12,-1.19209162E-07,-6.449262E-13,1]},{"name":"PoleTarget_R_end_2","translation":[0,0.00309120771,0]},{"name":"PoleTarget_R_2","children":[174],"translation":[-0.00319619477,0.0109649636,0.018037945],"rotation":[4.745777E-12,-1.19209162E-07,-6.449262E-13,1]},{"name":"Bone_2","children":[167,169,171,173,175],"translation":[-3.195463E-05,2.79434016E-06,-5.885174E-05],"rotation":[0.7069847,2.41532E-07,-1.79036476E-07,0.707228839]},{"name":"HumanArmature_2","children":[176],"rotation":[-0.706984758,0,0,0.7072288],"scale":[100,100,100]},{"name":"Male_Casual__2_","children":[134,177],"translation":[0.006594154,-0.00309999962,0.000379999983],"rotation":[0.7071068,0,0,0.7071068],"scale":[0.00158880919,0.00220531924,0.00200605788]},{"name":"Male_Casual__3_","translation":[0.001566069,-0.005530206,0.000379999983],"rotation":[0.7033793,-0.0725094751,-0.0725094751,0.7033793],"scale":[0.00157494633,0.00220531924,0.00204315549]},{"name":"BaseHuman_4","mesh":4,"translation":[0,-0.21,0],"rotation":[-0.706984758,0,0,0.7072288],"scale":[100,100,100],"skin":4},{"name":"Head_end_4","translation":[0,0.005158337,0]},{"name":"Head_4","children":[181],"translation":[-3.49245958E-12,0.00195343513,-2.38542269E-10],"rotation":[-0.115399219,-0.000198328955,0.003000968,0.9933146],"scale":[0.99999994,0.99999994,0.99999994]},{"name":"Neck_4","children":[182],"translation":[1.30967231E-12,0.009521058,2.53930921E-11],"rotation":[0.08210647,8.086911E-06,0.000140878954,0.9966236],"scale":[1,1.00000012,1.00000012]},{"name":"Fingers_L_end_4","translation":[0,0.00162841554,0]},{"name":"Fingers_L_4","children":[184],"translation":[-7.4505796E-10,0.00209138333,1.86264511E-11],"rotation":[-0.6273521,0.010711927,-0.105104059,0.771535933],"scale":[0.99999994,1.00000012,1.00000024]},{"name":"MiddleHand_L_4","children":[185],"translation":[-1.49011609E-10,0.00202119513,-5.587935E-10],"rotation":[0.03411944,-0.009062325,0.000488291844,0.999376535],"scale":[0.99999994,1,1.00000012]},{"name":"Thumb2_L_end_4","translation":[0,0.00184693,0]},{"name":"Thumb2_L_4","children":[187],"translation":[5.96046434E-10,0.00156702532,-7.4505796E-10],"rotation":[-0.4140076,-0.8379357,0.176949367,0.308464676],"scale":[0.9999999,0.9999998,0.999999762]},{"name":"Thumb1_L_4","children":[188],"translation":[0.0009553676,0.0007704745,-0.000190326638],"rotation":[-0.127050862,-0.8886151,0.127115935,-0.421975076],"scale":[1.00000012,0.99999994,1]},{"name":"Palm_L_4","children":[186,189],"translation":[-1.49011609E-10,0.00821869448,-5.21540644E-10],"rotation":[-0.09158717,0.0118114864,-0.00105490617,0.995726466],"scale":[1,0.99999994,1]},{"name":"LowerArm_L_4","children":[190],"translation":[-6.33299357E-10,0.00742473,3.282912E-10],"rotation":[-0.03360499,-0.0176893044,-0.181550026,0.9826482],"scale":[0.9999999,1.00000012,1.00000012]},{"name":"UpperArm_L_4","children":[191],"translation":[-1.983717E-09,0.00315858424,8.405186E-10],"rotation":[-0.564151943,-0.3125054,-0.6732204,0.361728162],"scale":[1.00000012,1.00000024,1.00000024]},{"name":"Shoulder_L_4","children":[192],"translation":[0.00246169046,0.00483653229,0.00030734454],"rotation":[0.0747454241,0.0304807518,-0.376361847,0.922949553],"scale":[1,1,1.00000012]},{"name":"Fingers_R_end_4","translation":[0,0.00200685579,0]},{"name":"Fingers_R_4","children":[194],"translation":[-1.11758706E-10,0.00229243981,-1.39698378E-10],"rotation":[-0.5675213,0.0206296276,0.0581925,0.82104063],"scale":[0.99999994,1.00000012,1]},{"name":"Thumb2_R_end_4","translation":[0,0.00184693,0]},{"name":"Thumb2_R_4","children":[196],"translation":[-1.49011609E-10,0.00156702916,-1.34110445E-09],"rotation":[0.0919323862,-0.8556646,-0.503118336,-0.0791108459],"scale":[1,0.9999999,0.9999999]},{"name":"Thumb1_R_4","children":[197],"translation":[-0.00128886441,-0.0007000994,-0.000165862235],"rotation":[0.194684342,-0.8634474,-0.0340953954,-0.4641057],"scale":[1.00000012,1.00000024,1.00000012]},{"name":"MiddleHand_R_4","children":[195,198],"translation":[7.45058043E-11,0.00213322463,-2.70083539E-10],"rotation":[0.0334301777,0.009062408,-0.0004784616,0.999399841],"scale":[1,1.00000012,1]},{"name":"Palm_R_4","children":[199],"translation":[1.11758706E-10,0.008312068,-1.03376807E-09],"rotation":[-0.0878326148,-0.0118210046,0.00101115531,0.9960646],"scale":[0.99999994,0.99999994,0.99999994]},{"name":"LowerArm_R_4","children":[200],"translation":[2.23517413E-10,0.006825552,9.825453E-10],"rotation":[-0.03663891,-0.0356387943,0.0592780635,0.9969321],"scale":[0.99999994,1,1]},{"name":"UpperArm_R_4","children":[201],"translation":[5.494803E-10,0.00315858517,1.21071916E-10],"rotation":[0.596562743,-0.350050867,-0.6368531,-0.34058103],"scale":[0.9999999,1.00000024,1.00000048]},{"name":"Shoulder_R_4","children":[202],"translation":[-0.00231965049,0.00482846331,0.0003788404],"rotation":[0.07474555,-0.0304802042,0.3763619,0.9229495]},{"name":"Torso_4","children":[183,193,203],"translation":[3.20142133E-12,0.007706758,-6.639311E-11],"rotation":[0.0112435929,-8.31911962E-07,2.76049517E-09,0.9999368],"scale":[1,1,0.99999994]},{"name":"Abdomen_4","children":[204],"translation":[8.14907256E-12,0.003933567,1.13650457E-10],"rotation":[0.08057466,4.36527159E-07,4.99171549E-08,0.9967486]},{"name":"Hips_4","children":[205],"translation":[-2.05049873E-05,-0.0016270061,-0.00112671684],"rotation":[-0.0992133245,-2.66444573E-07,-4.45293331E-08,0.9950662],"scale":[1,0.99999994,1]},{"name":"LowerLeg_L_end_4","translation":[0,0.0129618011,0]},{"name":"LowerLeg_L_4","children":[207],"translation":[7.45058043E-11,0.008284609,7.4505796E-10],"rotation":[0.2303388,1.07668932E-08,-4.211051E-08,0.9731105],"scale":[1.00000012,1.00000048,1]},{"name":"UpperLeg_L_4","children":[208],"translation":[0.002996446,0.000337779435,-0.00182561169],"rotation":[0.981627,0.05459207,-0.162538409,0.0837224945],"scale":[0.99999994,1.00000036,1.00000632]},{"name":"LowerLeg_R_end_4","translation":[0,0.0129200621,0]},{"name":"LowerLeg_R_4","children":[210],"translation":[-5.96046434E-10,0.00832634047,1.58324839E-10],"rotation":[0.246602044,-1.11115781E-07,2.35445334E-08,0.9691168],"scale":[0.99999994,0.9999998,1.00000012]},{"name":"UpperLeg_R_4","children":[211],"translation":[-0.00319736777,0.0003377797,-0.00182561646],"rotation":[0.9938355,-0.0169994365,-0.009405936,0.109149083],"scale":[0.9999999,1.0000006,1.00000918]},{"name":"Body_4","children":[206,209,212],"translation":[1.07378912E-06,0.0207996443,0.002854702],"rotation":[-0.000517633,0.00364294136,2.44280127E-05,0.999993265],"scale":[0.9999999,1,1]},{"name":"Foot_L_end_4","translation":[0,0.003255489,0]},{"name":"Foot_L_4","children":[214],"translation":[0.00383639243,0.000600924,-0.00148670538],"rotation":[-0.138043717,-0.6825932,-0.705089867,0.133636534],"scale":[0.99999994,0.9999998,1]},{"name":"Foot_R_end_4","translation":[0,0.00325548975,0]},{"name":"Foot_R_4","children":[216],"translation":[-0.00398397632,0.000600924,-0.000673433],"rotation":[0.08531994,-0.6906282,-0.7133934,-0.0826024562],"scale":[0.99999994,0.9999999,1]},{"name":"PoleTarget_L_end_4","translation":[0,0.00309120771,0]},{"name":"PoleTarget_L_4","children":[218],"translation":[0.008241551,0.0108235106,0.0132812653],"rotation":[-5.140329E-12,-1.0477374E-07,9.420237E-12,1]},{"name":"PoleTarget_R_end_4","translation":[0,0.00309120771,0]},{"name":"PoleTarget_R_4","children":[220],"translation":[-0.00319619477,0.0109649636,0.018037945],"rotation":[-5.140329E-12,-1.0477374E-07,9.420237E-12,1]},{"name":"Bone_4","children":[213,215,217,219,221],"translation":[-3.195463E-05,2.79434016E-06,-5.885174E-05],"rotation":[0.706984758,1.68616523E-07,-1.68558358E-07,0.7072288]},{"name":"HumanArmature_4","children":[222],"rotation":[-0.706984758,0,0,0.7072288],"scale":[100,100,100]},{"name":"Male_Casual__4_","children":[180,223],"translation":[-0.006824054,0.00182625919,0.000380000245],"rotation":[0.6925004,0.1429796,0.1429796,0.6925004],"scale":[0.00153526722,0.00220531947,0.002141814]},{"name":"DISCRIMINATION","children":[0,1,2,45,88,131,132,133,178,179,224],"mesh":5,"translation":[0.047,0.9139999,-0.392999977],"rotation":[0,0,-1,6.123234E-17],"scale":[100,79.20058,72.04441]},{"name":"ImageTargetPreview","mesh":6},{"name":"ImageTargetPreviewRoot","children":[226]},{"name":"ImageTargetPreview","mesh":7},{"name":"ImageTargetPreviewRoot","children":[228]},{"name":"ImageTargetPreview","mesh":8},{"name":"ImageTargetPreviewRoot","children":[230]},{"name":"10","children":[225,227,229,231],"translation":[-16.32,0,8.84]}],"extensionsRequired":["KHR_materials_unlit"],"extensionsUsed":["KHR_materials_unlit"],"buffers":[{"uri":"10.bin","byteLength":1419584}],"bufferViews":[{"buffer":0,"byteLength":1984},{"buffer":0,"byteLength":1984,"byteOffset":1984},{"buffer":0,"byteLength":1984,"byteOffset":3968},{"buffer":0,"byteLength":1984,"byteOffset":5952},{"buffer":0,"byteLength":1984,"byteOffset":7936},{"buffer":0,"byteLength":1608,"byteOffset":9920,"target":34963},{"buffer":0,"byteLength":12,"byteOffset":11528,"target":34963},{"buffer":0,"byteLength":12,"byteOffset":11540,"target":34963},{"buffer":0,"byteLength":12,"byteOffset":11552,"target":34963},{"buffer":0,"byteLength":11076,"byteOffset":11564,"target":34963},{"buffer":0,"byteLength":11076,"byteOffset":22640,"target":34963},{"buffer":0,"byteLength":11076,"byteOffset":33716,"target":34963},{"buffer":0,"byteLength":11076,"byteOffset":44792,"target":34963},{"buffer":0,"byteLength":11076,"byteOffset":55868,"target":34963},{"buffer":0,"byteLength":128,"byteOffset":66944,"byteStride":32,"target":34962},{"buffer":0,"byteLength":128,"byteOffset":67072,"byteStride":32,"target":34962},{"buffer":0,"byteLength":128,"byteOffset":67200,"byteStride":32,"target":34962},{"buffer":0,"byteLength":13056,"byteOffset":67328,"byteStride":48,"target":34962},{"buffer":0,"byteLength":148800,"byteOffset":80384,"byteStride":40,"target":34962},{"buffer":0,"byteLength":119040,"byteOffset":229184,"byteStride":32,"target":34962},{"buffer":0,"byteLength":148800,"byteOffset":348224,"byteStride":40,"target":34962},{"buffer":0,"byteLength":119040,"byteOffset":497024,"byteStride":32,"target":34962},{"buffer":0,"byteLength":148800,"byteOffset":616064,"byteStride":40,"target":34962},{"buffer":0,"byteLength":119040,"byteOffset":764864,"byteStride":32,"target":34962},{"buffer":0,"byteLength":148800,"byteOffset":883904,"byteStride":40,"target":34962},{"buffer":0,"byteLength":119040,"byteOffset":1032704,"byteStride":32,"target":34962},{"buffer":0,"byteLength":148800,"byteOffset":1151744,"byteStride":40,"target":34962},{"buffer":0,"byteLength":119040,"byteOffset":1300544,"byteStride":32,"target":34962}],"accessors":[{"bufferView":18,"componentType":5126,"count":3720,"type":"VEC3","max":[0.0259858239,0.003993991,0.04844611],"min":[-0.0259858239,-0.00543381553,3.35946679E-05]},{"bufferView":18,"componentType":5126,"count":3720,"type":"VEC3","byteOffset":12},{"bufferView":18,"componentType":5126,"count":3720,"type":"VEC4","byteOffset":24},{"bufferView":19,"componentType":5126,"count":3720,"type":"VEC4"},{"bufferView":19,"componentType":5123,"count":3720,"type":"VEC4","byteOffset":16},{"bufferView":0,"componentType":5126,"count":31,"type":"MAT4"},{"bufferView":20,"componentType":5126,"count":3720,"type":"VEC3","max":[0.0259858239,0.003993991,0.04844611],"min":[-0.0259858239,-0.00543381553,3.35946679E-05]},{"bufferView":20,"componentType":5126,"count":3720,"type":"VEC3","byteOffset":12},{"bufferView":20,"componentType":5126,"count":3720,"type":"VEC4","byteOffset":24},{"bufferView":21,"componentType":5126,"count":3720,"type":"VEC4"},{"bufferView":21,"componentType":5123,"count":3720,"type":"VEC4","byteOffset":16},{"bufferView":1,"componentType":5126,"count":31,"type":"MAT4"},{"bufferView":22,"componentType":5126,"count":3720,"type":"VEC3","max":[0.0259858239,0.003993991,0.04844611],"min":[-0.0259858239,-0.00543381553,3.35946679E-05]},{"bufferView":22,"componentType":5126,"count":3720,"type":"VEC3","byteOffset":12},{"bufferView":22,"componentType":5126,"count":3720,"type":"VEC4","byteOffset":24},{"bufferView":23,"componentType":5126,"count":3720,"type":"VEC4"},{"bufferView":23,"componentType":5123,"count":3720,"type":"VEC4","byteOffset":16},{"bufferView":2,"componentType":5126,"count":31,"type":"MAT4"},{"bufferView":24,"componentType":5126,"count":3720,"type":"VEC3","max":[0.0259858239,0.003993991,0.04844611],"min":[-0.0259858239,-0.00543381553,3.35946679E-05]},{"bufferView":24,"componentType":5126,"count":3720,"type":"VEC3","byteOffset":12},{"bufferView":24,"componentType":5126,"count":3720,"type":"VEC4","byteOffset":24},{"bufferView":25,"componentType":5126,"count":3720,"type":"VEC4"},{"bufferView":25,"componentType":5123,"count":3720,"type":"VEC4","byteOffset":16},{"bufferView":3,"componentType":5126,"count":31,"type":"MAT4"},{"bufferView":26,"componentType":5126,"count":3720,"type":"VEC3","max":[0.0259858239,0.003993991,0.04844611],"min":[-0.0259858239,-0.00543381553,3.35946679E-05]},{"bufferView":26,"componentType":5126,"count":3720,"type":"VEC3","byteOffset":12},{"bufferView":26,"componentType":5126,"count":3720,"type":"VEC4","byteOffset":24},{"bufferView":27,"componentType":5126,"count":3720,"type":"VEC4"},{"bufferView":27,"componentType":5123,"count":3720,"type":"VEC4","byteOffset":16},{"bufferView":4,"componentType":5126,"count":31,"type":"MAT4"},{"bufferView":17,"componentType":5126,"count":272,"type":"VEC3","max":[0.01,0.01,0.0003558332],"min":[-0.01,-0.01,0]},{"bufferView":17,"componentType":5126,"count":272,"type":"VEC3","byteOffset":12},{"bufferView":17,"componentType":5126,"count":272,"type":"VEC4","byteOffset":24},{"bufferView":17,"componentType":5126,"count":272,"type":"VEC2","byteOffset":40},{"bufferView":5,"componentType":5123,"count":804,"type":"SCALAR"},{"bufferView":14,"componentType":5126,"count":4,"type":"VEC3","max":[0.5,0,0.5],"min":[-0.5,0,-0.5]},{"bufferView":14,"componentType":5126,"count":4,"type":"VEC3","byteOffset":12},{"bufferView":14,"componentType":5126,"count":4,"type":"VEC2","byteOffset":24},{"bufferView":6,"componentType":5123,"count":6,"type":"SCALAR"},{"bufferView":15,"componentType":5126,"count":4,"type":"VEC3","max":[0.5,0,0.5],"min":[-0.5,0,-0.5]},{"bufferView":15,"componentType":5126,"count":4,"type":"VEC3","byteOffset":12},{"bufferView":15,"componentType":5126,"count":4,"type":"VEC2","byteOffset":24},{"bufferView":7,"componentType":5123,"count":6,"type":"SCALAR"},{"bufferView":16,"componentType":5126,"count":4,"type":"VEC3","max":[0.5,0,0.5],"min":[-0.5,0,-0.5]},{"bufferView":16,"componentType":5126,"count":4,"type":"VEC3","byteOffset":12},{"bufferView":16,"componentType":5126,"count":4,"type":"VEC2","byteOffset":24},{"bufferView":8,"componentType":5123,"count":6,"type":"SCALAR"},{"bufferView":9,"componentType":5123,"count":954,"type":"SCALAR"},{"bufferView":9,"componentType":5123,"count":2676,"type":"SCALAR","byteOffset":1908},{"bufferView":9,"componentType":5123,"count":288,"type":"SCALAR","byteOffset":7260},{"bufferView":9,"componentType":5123,"count":870,"type":"SCALAR","byteOffset":7836},{"bufferView":9,"componentType":5123,"count":84,"type":"SCALAR","byteOffset":9576},{"bufferView":9,"componentType":5123,"count":666,"type":"SCALAR","byteOffset":9744},{"bufferView":10,"componentType":5123,"count":954,"type":"SCALAR"},{"bufferView":10,"componentType":5123,"count":2676,"type":"SCALAR","byteOffset":1908},{"bufferView":10,"componentType":5123,"count":288,"type":"SCALAR","byteOffset":7260},{"bufferView":10,"componentType":5123,"count":870,"type":"SCALAR","byteOffset":7836},{"bufferView":10,"componentType":5123,"count":84,"type":"SCALAR","byteOffset":9576},{"bufferView":10,"componentType":5123,"count":666,"type":"SCALAR","byteOffset":9744},{"bufferView":11,"componentType":5123,"count":954,"type":"SCALAR"},{"bufferView":11,"componentType":5123,"count":2676,"type":"SCALAR","byteOffset":1908},{"bufferView":11,"componentType":5123,"count":288,"type":"SCALAR","byteOffset":7260},{"bufferView":11,"componentType":5123,"count":870,"type":"SCALAR","byteOffset":7836},{"bufferView":11,"componentType":5123,"count":84,"type":"SCALAR","byteOffset":9576},{"bufferView":11,"componentType":5123,"count":666,"type":"SCALAR","byteOffset":9744},{"bufferView":12,"componentType":5123,"count":954,"type":"SCALAR"},{"bufferView":12,"componentType":5123,"count":2676,"type":"SCALAR","byteOffset":1908},{"bufferView":12,"componentType":5123,"count":288,"type":"SCALAR","byteOffset":7260},{"bufferView":12,"componentType":5123,"count":870,"type":"SCALAR","byteOffset":7836},{"bufferView":12,"componentType":5123,"count":84,"type":"SCALAR","byteOffset":9576},{"bufferView":12,"componentType":5123,"count":666,"type":"SCALAR","byteOffset":9744},{"bufferView":13,"componentType":5123,"count":954,"type":"SCALAR"},{"bufferView":13,"componentType":5123,"count":2676,"type":"SCALAR","byteOffset":1908},{"bufferView":13,"componentType":5123,"count":288,"type":"SCALAR","byteOffset":7260},{"bufferView":13,"componentType":5123,"count":870,"type":"SCALAR","byteOffset":7836},{"bufferView":13,"componentType":5123,"count":84,"type":"SCALAR","byteOffset":9576},{"bufferView":13,"componentType":5123,"count":666,"type":"SCALAR","byteOffset":9744}],"images":[{"name":"10_scaled.jpg","uri":"10_scaled.jpg","mimeType":"image/jpeg"}],"materials":[{"name":"Shirt","pbrMetallicRoughness":{"baseColorFactor":[0.130710632,0.171151727,0.186409131,1],"metallicFactor":0}},{"name":"TRASH_FLOOR 2","pbrMetallicRoughness":{"baseColorFactor":[0.673177958,0.335124254,0.0572402,1],"metallicFactor":0}},{"name":"Std_Lower_Teeth","pbrMetallicRoughness":{"metallicFactor":0}},{"name":"Eyes 1","pbrMetallicRoughness":{"baseColorFactor":[0.0203142054,0.0203142054,0.0203142054,1],"metallicFactor":0}},{"name":"Socks 1","pbrMetallicRoughness":{"baseColorFactor":[0.405653566,0.3478341,0.3478341,1],"metallicFactor":0}},{"name":"Hair 1","pbrMetallicRoughness":{"baseColorFactor":[0.0417730846,0.02797982,0.02881827,1],"metallicFactor":0}},{"name":"Skin","pbrMetallicRoughness":{"baseColorFactor":[0.39753747,0.254824758,0.13292107,1],"metallicFactor":0}},{"name":"FLOOR 1","pbrMetallicRoughness":{"baseColorFactor":[0.5600193,0.5600193,0.5600193,1],"metallicFactor":0}},{"name":"TABLE_FLOOR 2","pbrMetallicRoughness":{"baseColorFactor":[0.07920033,0.301212043,0.165908664,1],"metallicFactor":0}},{"name":"TABLE 2","pbrMetallicRoughness":{"baseColorFactor":[0.2411783,0.05784572,0.0167663917,1],"metallicFactor":0}},{"name":"Pants 1","pbrMetallicRoughness":{"baseColorFactor":[0.04857401,0.0423531234,0.0423531234,1],"metallicFactor":0}},{"name":"Material_008 1","pbrMetallicRoughness":{"baseColorFactor":[1,0.9141305,0.5589763,1],"metallicFactor":0}},{"name":"Material_002_1 1","pbrMetallicRoughness":{"baseColorFactor":[0.15792647,0.04620259,0.0128089152,1],"metallicFactor":0}},{"name":"Std_Nails","pbrMetallicRoughness":{"metallicFactor":0}},{"name":"WELL_FLOOR","pbrMetallicRoughness":{"baseColorFactor":[0.817612767,0.1315399,0.11084073,1],"metallicFactor":0}},{"name":"10Material\n25676","pbrMetallicRoughness":{"metallicFactor":0,"baseColorTexture":{"index":0}},"extensions":{"KHR_materials_unlit":{}}},{"name":"10Material\n25676","pbrMetallicRoughness":{"metallicFactor":0,"baseColorTexture":{"index":0}},"extensions":{"KHR_materials_unlit":{}}},{"name":"10Material\n25676","pbrMetallicRoughness":{"metallicFactor":0,"baseColorTexture":{"index":0}},"extensions":{"KHR_materials_unlit":{}}}],"meshes":[{"name":"BaseHuman","primitives":[{"attributes":{"POSITION":0,"NORMAL":1,"TANGENT":2,"JOINTS_0":4,"WEIGHTS_0":3},"indices":47,"material":0},{"attributes":{"POSITION":0,"NORMAL":1,"TANGENT":2,"JOINTS_0":4,"WEIGHTS_0":3},"indices":48,"material":1},{"attributes":{"POSITION":0,"NORMAL":1,"TANGENT":2,"JOINTS_0":4,"WEIGHTS_0":3},"indices":49,"material":2},{"attributes":{"POSITION":0,"NORMAL":1,"TANGENT":2,"JOINTS_0":4,"WEIGHTS_0":3},"indices":50,"material":3},{"attributes":{"POSITION":0,"NORMAL":1,"TANGENT":2,"JOINTS_0":4,"WEIGHTS_0":3},"indices":51,"material":4},{"attributes":{"POSITION":0,"NORMAL":1,"TANGENT":2,"JOINTS_0":4,"WEIGHTS_0":3},"indices":52,"material":5}]},{"name":"BaseHuman_1","primitives":[{"attributes":{"POSITION":6,"NORMAL":7,"TANGENT":8,"JOINTS_0":10,"WEIGHTS_0":9},"indices":53,"material":0},{"attributes":{"POSITION":6,"NORMAL":7,"TANGENT":8,"JOINTS_0":10,"WEIGHTS_0":9},"indices":54,"material":6},{"attributes":{"POSITION":6,"NORMAL":7,"TANGENT":8,"JOINTS_0":10,"WEIGHTS_0":9},"indices":55,"material":7},{"attributes":{"POSITION":6,"NORMAL":7,"TANGENT":8,"JOINTS_0":10,"WEIGHTS_0":9},"indices":56,"material":3},{"attributes":{"POSITION":6,"NORMAL":7,"TANGENT":8,"JOINTS_0":10,"WEIGHTS_0":9},"indices":57,"material":4},{"attributes":{"POSITION":6,"NORMAL":7,"TANGENT":8,"JOINTS_0":10,"WEIGHTS_0":9},"indices":58,"material":5}]},{"name":"BaseHuman_3","primitives":[{"attributes":{"POSITION":12,"NORMAL":13,"TANGENT":14,"JOINTS_0":16,"WEIGHTS_0":15},"indices":59,"material":8},{"attributes":{"POSITION":12,"NORMAL":13,"TANGENT":14,"JOINTS_0":16,"WEIGHTS_0":15},"indices":60,"material":9},{"attributes":{"POSITION":12,"NORMAL":13,"TANGENT":14,"JOINTS_0":16,"WEIGHTS_0":15},"indices":61,"material":10},{"attributes":{"POSITION":12,"NORMAL":13,"TANGENT":14,"JOINTS_0":16,"WEIGHTS_0":15},"indices":62,"material":3},{"attributes":{"POSITION":12,"NORMAL":13,"TANGENT":14,"JOINTS_0":16,"WEIGHTS_0":15},"indices":63,"material":4},{"attributes":{"POSITION":12,"NORMAL":13,"TANGENT":14,"JOINTS_0":16,"WEIGHTS_0":15},"indices":64,"material":5}]},{"name":"BaseHuman_2","primitives":[{"attributes":{"POSITION":18,"NORMAL":19,"TANGENT":20,"JOINTS_0":22,"WEIGHTS_0":21},"indices":65,"material":0},{"attributes":{"POSITION":18,"NORMAL":19,"TANGENT":20,"JOINTS_0":22,"WEIGHTS_0":21},"indices":66,"material":11},{"attributes":{"POSITION":18,"NORMAL":19,"TANGENT":20,"JOINTS_0":22,"WEIGHTS_0":21},"indices":67,"material":10},{"attributes":{"POSITION":18,"NORMAL":19,"TANGENT":20,"JOINTS_0":22,"WEIGHTS_0":21},"indices":68,"material":3},{"attributes":{"POSITION":18,"NORMAL":19,"TANGENT":20,"JOINTS_0":22,"WEIGHTS_0":21},"indices":69,"material":4},{"attributes":{"POSITION":18,"NORMAL":19,"TANGENT":20,"JOINTS_0":22,"WEIGHTS_0":21},"indices":70,"material":5}]},{"name":"BaseHuman_4","primitives":[{"attributes":{"POSITION":24,"NORMAL":25,"TANGENT":26,"JOINTS_0":28,"WEIGHTS_0":27},"indices":71,"material":12},{"attributes":{"POSITION":24,"NORMAL":25,"TANGENT":26,"JOINTS_0":28,"WEIGHTS_0":27},"indices":72,"material":6},{"attributes":{"POSITION":24,"NORMAL":25,"TANGENT":26,"JOINTS_0":28,"WEIGHTS_0":27},"indices":73,"material":13},{"attributes":{"POSITION":24,"NORMAL":25,"TANGENT":26,"JOINTS_0":28,"WEIGHTS_0":27},"indices":74,"material":3},{"attributes":{"POSITION":24,"NORMAL":25,"TANGENT":26,"JOINTS_0":28,"WEIGHTS_0":27},"indices":75,"material":4},{"attributes":{"POSITION":24,"NORMAL":25,"TANGENT":26,"JOINTS_0":28,"WEIGHTS_0":27},"indices":76,"material":5}]},{"name":"DISCRIMINATION","primitives":[{"attributes":{"POSITION":30,"NORMAL":31,"TANGENT":32,"TEXCOORD_0":33},"indices":34,"material":14}]},{"name":"ImageTargetMesh25676","primitives":[{"attributes":{"POSITION":35,"NORMAL":36,"TEXCOORD_0":37},"indices":38,"material":15}]},{"name":"ImageTargetMesh25676","primitives":[{"attributes":{"POSITION":39,"NORMAL":40,"TEXCOORD_0":41},"indices":42,"material":16}]},{"name":"ImageTargetMesh25676","primitives":[{"attributes":{"POSITION":43,"NORMAL":44,"TEXCOORD_0":45},"indices":46,"material":17}]}],"scene":0,"scenes":[{"name":"10","nodes":[232]}],"skins":[{"inverseBindMatrices":5,"joints":[44,37,35,28,27,26,5,4,15,14,13,12,8,7,11,10,25,24,23,22,21,20,19,17,31,30,34,33,41,39,43]},{"inverseBindMatrices":11,"joints":[87,80,78,71,70,69,48,47,58,57,56,55,51,50,54,53,68,67,66,65,64,63,62,60,74,73,77,76,84,82,86]},{"inverseBindMatrices":17,"joints":[130,123,121,114,113,112,91,90,101,100,99,98,94,93,97,96,111,110,109,108,107,106,105,103,117,116,120,119,127,125,129]},{"inverseBindMatrices":23,"joints":[176,169,167,160,159,158,137,136,147,146,145,144,140,139,143,142,157,156,155,154,153,152,151,149,163,162,166,165,173,171,175]},{"inverseBindMatrices":29,"joints":[222,215,213,206,205,204,183,182,193,192,191,190,186,185,189,188,203,202,201,200,199,198,197,195,209,208,212,211,219,217,221]}],"textures":[{"source":0}]}