{"asset":{"version":"2.0","generator":"Unity 2022.3.28f1 glTFast 6.14.1"},"nodes":[{"name":"WORK","mesh":0,"translation":[0,0.669999957,-0.442],"rotation":[0,-0.7071068,-0.7071068,8.659561E-17],"scale":[0.1,0.1,0.1]},{"name":"ImageTargetPreview","mesh":1},{"name":"ImageTargetPreviewRoot","children":[1]},{"name":"ImageTargetPreview","mesh":2},{"name":"ImageTargetPreviewRoot","children":[3]},{"name":"ImageTargetPreview","mesh":3},{"name":"ImageTargetPreviewRoot","children":[5]},{"name":"08","children":[0,2,4,6],"translation":[-9.95,-0.05,8.13]}],"extensionsRequired":["KHR_materials_unlit"],"extensionsUsed":["KHR_materials_unlit"],"buffers":[{"uri":"08.bin","byteLength":115812}],"bufferViews":[{"buffer":0,"byteLength":13536,"target":34963},{"buffer":0,"byteLength":12,"byteOffset":13536,"target":34963},{"buffer":0,"byteLength":12,"byteOffset":13548,"target":34963},{"buffer":0,"byteLength":12,"byteOffset":13560,"target":34963},{"buffer":0,"byteLength":128,"byteOffset":13572,"byteStride":32,"target":34962},{"buffer":0,"byteLength":128,"byteOffset":13700,"byteStride":32,"target":34962},{"buffer":0,"byteLength":128,"byteOffset":13828,"byteStride":32,"target":34962},{"buffer":0,"byteLength":101856,"byteOffset":13956,"byteStride":48,"target":34962}],"accessors":[{"bufferView":7,"componentType":5126,"count":2122,"type":"VEC3","max":[7.16439867,8.644222,6.02446461],"min":[-7.16439867,0,-6.02446461]},{"bufferView":7,"componentType":5126,"count":2122,"type":"VEC3","byteOffset":12},{"bufferView":7,"componentType":5126,"count":2122,"type":"VEC4","byteOffset":24},{"bufferView":7,"componentType":5126,"count":2122,"type":"VEC2","byteOffset":40},{"bufferView":0,"componentType":5123,"count":6636,"type":"SCALAR"},{"bufferView":0,"componentType":5123,"count":120,"type":"SCALAR","byteOffset":13272},{"bufferView":0,"componentType":5123,"count":12,"type":"SCALAR","byteOffset":13512},{"bufferView":4,"componentType":5126,"count":4,"type":"VEC3","max":[0.5,0,0.5],"min":[-0.5,0,-0.5]},{"bufferView":4,"componentType":5126,"count":4,"type":"VEC3","byteOffset":12},{"bufferView":4,"componentType":5126,"count":4,"type":"VEC2","byteOffset":24},{"bufferView":1,"componentType":5123,"count":6,"type":"SCALAR"},{"bufferView":5,"componentType":5126,"count":4,"type":"VEC3","max":[0.5,0,0.5],"min":[-0.5,0,-0.5]},{"bufferView":5,"componentType":5126,"count":4,"type":"VEC3","byteOffset":12},{"bufferView":5,"componentType":5126,"count":4,"type":"VEC2","byteOffset":24},{"bufferView":2,"componentType":5123,"count":6,"type":"SCALAR"},{"bufferView":6,"componentType":5126,"count":4,"type":"VEC3","max":[0.5,0,0.5],"min":[-0.5,0,-0.5]},{"bufferView":6,"componentType":5126,"count":4,"type":"VEC3","byteOffset":12},{"bufferView":6,"componentType":5126,"count":4,"type":"VEC2","byteOffset":24},{"bufferView":3,"componentType":5123,"count":6,"type":"SCALAR"}],"images":[{"name":"color-palette-2 1.png","uri":"color-palette-2 1.png","mimeType":"image/png"},{"name":"office-building-B-texture.png","uri":"office-building-B-texture.png","mimeType":"image/png"},{"name":"08_scaled.jpg","uri":"08_scaled.jpg","mimeType":"image/jpeg"}],"materials":[{"name":"main_color_palette_mat 1","pbrMetallicRoughness":{"metallicFactor":0,"baseColorTexture":{"index":0}}},{"name":"office_building_B_windows_mat","pbrMetallicRoughness":{"baseColorFactor":[0.100958526,0.100958526,0.100958526,1],"metallicFactor":0}},{"name":"office_building_B_texture_mat","pbrMetallicRoughness":{"metallicFactor":0,"baseColorTexture":{"index":1}}},{"name":"08Material\n25590","pbrMetallicRoughness":{"metallicFactor":0,"baseColorTexture":{"index":2}},"extensions":{"KHR_materials_unlit":{}}},{"name":"08Material\n25590","pbrMetallicRoughness":{"metallicFactor":0,"baseColorTexture":{"index":2}},"extensions":{"KHR_materials_unlit":{}}},{"name":"08Material\n25590","pbrMetallicRoughness":{"metallicFactor":0,"baseColorTexture":{"index":2}},"extensions":{"KHR_materials_unlit":{}}}],"meshes":[{"name":"WORK","primitives":[{"attributes":{"POSITION":0,"NORMAL":1,"TANGENT":2,"TEXCOORD_0":3},"indices":4,"material":0},{"attributes":{"POSITION":0,"NORMAL":1,"TANGENT":2,"TEXCOORD_0":3},"indices":5,"material":1},{"attributes":{"POSITION":0,"NORMAL":1,"TANGENT":2,"TEXCOORD_0":3},"indices":6,"material":2}]},{"name":"ImageTargetMesh25590","primitives":[{"attributes":{"POSITION":7,"NORMAL":8,"TEXCOORD_0":9},"indices":10,"material":3}]},{"name":"ImageTargetMesh25590","primitives":[{"attributes":{"POSITION":11,"NORMAL":12,"TEXCOORD_0":13},"indices":14,"material":4}]},{"name":"ImageTargetMesh25590","primitives":[{"attributes":{"POSITION":15,"NORMAL":16,"TEXCOORD_0":17},"indices":18,"material":5}]}],"samplers":[{"wrapS":33071,"wrapT":33071}],"scene":0,"scenes":[{"name":"08","nodes":[7]}],"textures":[{"source":0,"sampler":0},{"source":1,"sampler":0},{"source":2}]}