{"asset":{"version":"2.0","generator":"Unity 2022.3.28f1 glTFast 6.14.1"},"nodes":[{"name":"Chicken_001_2","mesh":0,"translation":[2.15988782E-09,-9.668729E-10,1.1467749E-09],"skin":0},{"name":"spine_end","translation":[1.39698386E-09,0.0650292858,-1.17724994E-08],"rotation":[-4.31164224E-08,-1.117585E-08,2.29337989E-08,1],"scale":[1,0.9999999,0.9999999]},{"name":"spine","children":[1],"translation":[2.09547579E-09,0.0907551646,-2.1289452E-08],"rotation":[-0.141562089,4.93918062E-09,-3.82198877E-08,0.9899294],"scale":[1,0.9999997,0.9999999]},{"name":"spine_001","children":[2],"translation":[1.62981451E-09,-0.012952989,0.008439142],"rotation":[-0.0007662804,-0.5168867,-0.8560519,0.00161849777],"scale":[0.99999994,0.9999998,0.9999999]},{"name":"Wing_002_L_end","translation":[3.7252903E-09,0.07307468,-6.98491931E-09],"rotation":[-2.72032452E-07,1.23087078E-08,-1.91930226E-07,1]},{"name":"Wing_002_L","children":[4],"translation":[-4.78466973E-08,0.07368394,2.60770321E-08],"rotation":[0.005329185,0.06612707,-0.180063277,0.981415331],"scale":[0.9999989,1.00000024,0.999999464]},{"name":"Wing_001_L","children":[5],"translation":[9.633368E-08,0.101718642,7.29633E-08],"rotation":[-0.16453433,-0.06674276,-0.269849926,0.9463905],"scale":[1.00000036,1.00000012,1.00000072]},{"name":"Wing_L","children":[6],"translation":[-0.0210049748,0.0475514121,0.0242748763],"rotation":[0.8669551,-0.294938445,-0.010430078,-0.401611],"scale":[0.999999642,1,0.9999991]},{"name":"shoulder_L","children":[7],"translation":[-0.0417575724,0.02683685,-0.000818729633],"rotation":[-0.320928067,4.4717288E-07,-8.03879345E-08,0.9471036],"scale":[1,1.00000024,1.00000036]},{"name":"Wing_002_R_end","translation":[-3.7252903E-09,0.07307472,-2.09547579E-09],"rotation":[-1.01116647E-07,3.858049E-08,-9.616219E-08,1],"scale":[1,1,1.00000012]},{"name":"Wing_002_R","children":[9],"translation":[-9.709038E-08,0.07368391,2.88127922E-09],"rotation":[0.00185512844,-0.0663163438,0.128369153,0.989505],"scale":[0.99999994,1.00000024,0.999999464]},{"name":"Wing_001_R","children":[10],"translation":[-2.00234354E-08,0.101718612,5.26197255E-08],"rotation":[-0.164495185,0.06684204,0.269283682,0.946551561],"scale":[0.9999995,0.999999166,0.999999762]},{"name":"Wing_R","children":[11],"translation":[0.0247406475,0.0472577959,0.0243474618],"rotation":[0.8732549,0.2701288,-0.0295404084,-0.4044548],"scale":[1.00000048,1.0000006,1.00000012]},{"name":"shoulder_R","children":[12],"translation":[0.0417575724,0.02683684,-0.0008187874],"rotation":[-0.320928067,-2.30346743E-07,1.4848392E-07,0.9471036],"scale":[1,1.00000036,1.00000024]},{"name":"scull_end","translation":[3.7252903E-09,0.0615193732,-3.434252E-09],"rotation":[-2.39556215E-07,-0.0414791331,7.690028E-09,0.999139369],"scale":[1,0.99999994,0.99999994]},{"name":"scull","children":[14],"translation":[2.79396772E-09,0.0488632657,-3.34111974E-08],"rotation":[-0.623490632,0.009965754,-0.007948045,0.7817269],"scale":[1,1.00000036,1.00000024]},{"name":"spine_007","children":[15],"translation":[0,0.044334963,2.49128789E-08],"rotation":[-0.07556172,0.006883892,-0.000495906861,0.9971173],"scale":[1,0.9999992,0.9999992]},{"name":"spine_006","children":[16],"translation":[2.79396772E-09,0.05673155,-1.53668225E-08],"rotation":[0.0101706982,0.008440153,0.000304066954,0.9999126],"scale":[1,1.00000012,1.00000024]},{"name":"spine_005","children":[17],"translation":[4.656613E-10,0.07203511,-3.27709131E-08],"rotation":[0.435533553,0.00835529249,0.004666839,0.9001216],"scale":[0.99999994,1,1.00000012]},{"name":"spine_004","children":[8,13,18],"translation":[-1.16415322E-09,0.07870921,1.27474777E-08],"rotation":[4.90359453E-05,0.01041065,6.83080943E-05,0.9999458],"scale":[0.99999994,0.9999996,0.999999464]},{"name":"spine_003","children":[19],"translation":[1.16415322E-09,0.07803936,-7.861672E-09],"rotation":[0.028283162,0.012742036,0.000360714068,0.9995187],"scale":[1,1.00000036,1.00000024]},{"name":"toe_L_end","translation":[-4.627509E-09,0.07452199,-1.32422429E-09],"rotation":[1.85440729E-08,1.05382547E-08,-5.18517957E-08,1],"scale":[1,0.9999999,0.99999994]},{"name":"toe_L","children":[21],"translation":[0,0.047871545,3.259629E-09],"rotation":[0.5526305,-0.0299301874,0.12885344,0.8228612],"scale":[0.999999762,1.00000036,1.00000024]},{"name":"foot_L","children":[22],"translation":[-0.00257303077,0.0484586768,0.0108558936],"rotation":[0.564212263,0.0192460921,0.0201843176,0.8251586],"scale":[1,0.9999999,0.9999992]},{"name":"shin_L","children":[23],"translation":[-3.958121E-09,0.0857934058,-2.09547579E-09],"rotation":[-0.358071327,0.00141267909,-0.0631965,0.931552052],"scale":[0.9999996,0.9999999,0.999999464]},{"name":"thigh_L","children":[24],"translation":[-0.070475094,0.0416048,-0.0563873462],"rotation":[-0.809386253,-0.00305723585,-0.00602291152,0.587237835],"scale":[1.00000012,1.00000036,0.9999998]},{"name":"toe_R_end","translation":[-8.65839E-09,0.0745219737,1.86264515E-09],"rotation":[-3.68137663E-08,-1.23996271E-08,1.23145028E-07,1],"scale":[0.99999994,0.99999994,0.99999994]},{"name":"toe_R","children":[26],"translation":[2.85217538E-09,0.04787154,-6.98491931E-10],"rotation":[0.05096698,0.07441417,-0.146224633,0.9851311],"scale":[0.9999998,0.9999993,1.00000024]},{"name":"foot_R","children":[27],"translation":[-2.96859071E-09,0.04972635,-2.09547579E-09],"rotation":[0.393537432,-4.5588E-09,5.72383847E-08,0.9193086],"scale":[1,0.999999464,0.9999994]},{"name":"shin_R","children":[28],"translation":[-2.561137E-09,0.08579316,-2.32830644E-09],"rotation":[0.181339413,0.004832305,-0.03647887,0.9827319],"scale":[0.9999997,1.00000036,1.00000036]},{"name":"thigh_R","children":[29],"translation":[0.0704513043,0.08126607,-0.08534068],"rotation":[-0.6991571,0.004026247,0.005423218,0.7149362],"scale":[1.00000024,1.00000024,0.9999999]},{"name":"spine_002","children":[3,20,25,30],"translation":[-9.873516E-09,0.235010639,0.149121433],"rotation":[-0.6683598,0.0222785734,0.0143736517,0.7433655],"scale":[0.99999994,0.999999642,0.9999997]},{"name":"Root","children":[31],"rotation":[1.629207E-07,-1,4.371145E-08,-4.37113741E-08]},{"name":"Chicken_001_rig","children":[32]},{"name":"Chicken_001_1","children":[0,33]},{"name":"Chicken_001","children":[34],"translation":[-14.2249994,2.19046569,6.466668],"rotation":[0,0.316476434,0,0.9486004],"scale":[2.5211668,7.203333,2.5211668]},{"name":"Chicken_001_4","mesh":1,"translation":[2.15988782E-09,-9.668729E-10,1.1467749E-09],"skin":1},{"name":"spine_end_1","translation":[1.39698386E-09,0.0650292858,-1.17724994E-08],"rotation":[-3.0260292E-08,-5.3550604E-09,-3.49288876E-10,1],"scale":[1,0.9999999,0.9999999]},{"name":"spine_1","children":[37],"translation":[2.09547579E-09,0.0907551646,-2.1289452E-08],"rotation":[-0.14156203,4.939179E-09,-3.82198877E-08,0.9899294],"scale":[1,0.9999997,0.9999999]},{"name":"spine_001_1","children":[38],"translation":[1.62981451E-09,-0.012952989,0.008439142],"rotation":[-0.0007662817,-0.5168867,-0.8560519,0.00161852583],"scale":[0.99999994,0.9999998,0.9999999]},{"name":"Wing_002_L_end_1","translation":[3.7252903E-09,0.07307468,-6.98491931E-09],"rotation":[-2.78909624E-07,2.14562412E-08,-1.61530892E-07,1]},{"name":"Wing_002_L_1","children":[40],"translation":[-4.78466973E-08,0.07368394,2.60770321E-08],"rotation":[0.00532918656,0.06612709,-0.180063277,0.981415331],"scale":[0.9999989,1.00000024,0.999999464]},{"name":"Wing_001_L_1","children":[41],"translation":[9.633368E-08,0.101718642,7.29633E-08],"rotation":[-0.16453433,-0.06674276,-0.269849926,0.9463905],"scale":[1.00000036,1.00000012,1.00000072]},{"name":"Wing_L_1","children":[42],"translation":[-0.0210049748,0.0475514121,0.0242748763],"rotation":[0.8669551,-0.2949384,-0.0104300547,-0.401611],"scale":[0.999999642,1,0.9999991]},{"name":"shoulder_L_1","children":[43],"translation":[-0.0417575724,0.02683685,-0.000818729633],"rotation":[-0.320928067,4.4717288E-07,-8.038793E-08,0.9471036],"scale":[1,1.00000024,1.00000036]},{"name":"Wing_002_R_end_1","translation":[-3.7252903E-09,0.07307472,-2.09547579E-09],"rotation":[-7.254875E-08,1.34328628E-08,-1.3203298E-07,1],"scale":[1,1,1.00000012]},{"name":"Wing_002_R_1","children":[45],"translation":[-9.709038E-08,0.07368391,2.88127922E-09],"rotation":[0.00185512844,-0.0663163438,0.128369153,0.989505],"scale":[0.99999994,1.00000024,0.999999464]},{"name":"Wing_001_R_1","children":[46],"translation":[-2.00234354E-08,0.101718612,5.26197255E-08],"rotation":[-0.16449517,0.06684203,0.269283682,0.946551561],"scale":[0.9999995,0.999999166,0.999999762]},{"name":"Wing_R_1","children":[47],"translation":[0.0247406475,0.0472577959,0.0243474618],"rotation":[0.8732549,0.2701288,-0.0295404065,-0.4044548],"scale":[1.00000048,1.0000006,1.00000012]},{"name":"shoulder_R_1","children":[48],"translation":[0.0417575724,0.02683684,-0.0008187874],"rotation":[-0.320928067,-2.30346743E-07,1.4848392E-07,0.9471036],"scale":[1,1.00000036,1.00000024]},{"name":"scull_end_1","translation":[3.7252903E-09,0.0615193732,-3.434252E-09],"rotation":[-2.39556215E-07,-0.0414791331,7.690027E-09,0.999139369],"scale":[1,0.99999994,0.99999994]},{"name":"scull_1","children":[50],"translation":[2.79396772E-09,0.0488632657,-3.34111974E-08],"rotation":[-0.623490632,0.009965741,-0.007948034,0.7817269],"scale":[1,1.00000036,1.00000024]},{"name":"spine_007_1","children":[51],"translation":[0,0.044334963,2.49128789E-08],"rotation":[-0.07556152,0.00688386057,-0.000495907,0.9971173],"scale":[1,0.9999992,0.9999992]},{"name":"spine_006_1","children":[52],"translation":[2.79396772E-09,0.05673155,-1.53668225E-08],"rotation":[0.0101707056,0.008440175,0.00030406774,0.9999126],"scale":[1,1.00000012,1.00000024]},{"name":"spine_005_1","children":[53],"translation":[4.656613E-10,0.07203511,-3.27709131E-08],"rotation":[0.435533583,0.008355304,0.004666872,0.9001216],"scale":[0.99999994,1,1.00000012]},{"name":"spine_004_1","children":[44,49,54],"translation":[-1.16415322E-09,0.07870921,1.27474777E-08],"rotation":[4.89869344E-05,0.0104106553,6.830864E-05,0.9999458],"scale":[0.99999994,0.9999996,0.999999464]},{"name":"spine_003_1","children":[55],"translation":[1.16415322E-09,0.07803936,-7.861672E-09],"rotation":[0.028283162,0.012742036,0.0003607141,0.9995187],"scale":[1,1.00000036,1.00000024]},{"name":"toe_L_end_1","translation":[-4.627509E-09,0.07452199,-1.32422429E-09],"rotation":[3.06246157E-08,1.635905E-08,-4.021027E-08,1],"scale":[1,0.9999999,0.99999994]},{"name":"toe_L_1","children":[57],"translation":[0,0.047871545,3.259629E-09],"rotation":[0.552630544,-0.0299301986,0.12885344,0.8228612],"scale":[0.999999762,1.00000036,1.00000024]},{"name":"foot_L_1","children":[58],"translation":[-0.00257303077,0.0484586768,0.0108558936],"rotation":[0.5642123,0.0192462523,0.0201841276,0.825158536],"scale":[1,0.9999999,0.9999992]},{"name":"shin_L_1","children":[59],"translation":[-3.958121E-09,0.0857934058,-2.09547579E-09],"rotation":[-0.358071268,0.001412689,-0.06319649,0.931552052],"scale":[0.9999996,0.9999999,0.999999464]},{"name":"thigh_L_1","children":[60],"translation":[-0.070475094,0.0416048,-0.0563873462],"rotation":[-0.8093863,-0.00305723539,-0.00602291152,0.5872378],"scale":[1.00000012,1.00000036,0.9999998]},{"name":"toe_R_end_1","translation":[-8.65839E-09,0.0745219737,1.86264515E-09],"rotation":[-6.00018746E-09,-1.48569379E-09,1.1150351E-07,1],"scale":[0.99999994,0.99999994,0.99999994]},{"name":"toe_R_1","children":[62],"translation":[2.85217538E-09,0.04787154,-6.98491931E-10],"rotation":[0.0509668551,0.07441409,-0.146224737,0.9851311],"scale":[0.9999998,0.9999993,1.00000024]},{"name":"foot_R_1","children":[63],"translation":[-2.96859071E-09,0.04972635,-2.09547579E-09],"rotation":[0.393537432,-4.55880844E-09,5.72383918E-08,0.9193086],"scale":[1,0.999999464,0.9999994]},{"name":"shin_R_1","children":[64],"translation":[-2.561137E-09,0.08579316,-2.32830644E-09],"rotation":[0.181339443,0.004832305,-0.03647887,0.9827319],"scale":[0.9999997,1.00000036,1.00000036]},{"name":"thigh_R_1","children":[65],"translation":[0.0704513043,0.08126607,-0.08534068],"rotation":[-0.6991571,0.004026247,0.005423218,0.7149362],"scale":[1.00000024,1.00000024,0.9999999]},{"name":"spine_002_1","children":[39,56,61,66],"translation":[-9.873516E-09,0.235010639,0.149121433],"rotation":[-0.6683597,0.0222785734,0.0143736545,0.7433656],"scale":[0.99999994,0.999999642,0.9999997]},{"name":"Root_1","children":[67],"rotation":[1.629207E-07,-1,4.37114451E-08,-4.37113776E-08]},{"name":"Chicken_001_rig_1","children":[68]},{"name":"Chicken_001_3","children":[36,69]},{"name":"Chicken_001__1_","children":[70],"translation":[-14.2749977,2.302418,3.636668],"rotation":[0,0.06828514,0,0.9976659],"scale":[2.34289479,6.69398546,2.34289479]},{"name":"Deer_001_2","mesh":2,"translation":[-5.545263E-10,-5.65561E-09,3.76831366E-09],"skin":2},{"name":"toe_L_4","translation":[7.21775E-09,0.3389845,3.7252903E-09],"rotation":[0.08270452,-0.06860773,0.0143354479,0.994106352],"scale":[1.00000024,0.9999999,0.9999998]},{"name":"foot_L_4","children":[73],"translation":[-3.7252903E-09,0.275202066,2.04890966E-08],"rotation":[0.6170118,-0.0185274258,0.00118968543,0.7867349],"scale":[0.99999994,1,1.00000036]},{"name":"shin_L_4","children":[74],"translation":[1.72294676E-08,0.33333838,3.213063E-08],"rotation":[0.9198112,-0.03319614,0.07453498,-0.383783758],"scale":[0.999999642,0.999999464,0.9999994]},{"name":"thigh_L_4","children":[75],"translation":[2.60770321E-08,0.232490018,8.6613E-08],"rotation":[0.6258626,0.01222977,0.011141615,0.779757857],"scale":[0.99999994,0.99999994,1]},{"name":"shoulder_L_4","children":[76],"translation":[-0.127008691,-0.04201474,-0.0110728862],"rotation":[-0.786994,0.08795589,-0.0148637332,0.6104779],"scale":[1,1.00000048,1.00000036]},{"name":"toe_R_4","translation":[-2.23517418E-08,0.338984549,5.58793545E-09],"rotation":[-0.09666489,0.118567474,0.00707071,0.9882043],"scale":[1.00000024,0.9999999,0.99999994]},{"name":"foot_R_4","children":[78],"translation":[-8.84756446E-09,0.275202185,-2.42143869E-08],"rotation":[0.6830646,0.0294341762,-0.01741268,0.729556859],"scale":[0.9999999,1,1.00000012]},{"name":"shin_R_4","children":[79],"translation":[-1.0477379E-08,0.33333838,6.7288056E-08],"rotation":[0.93138206,0.037860617,-0.0658286139,-0.356034636],"scale":[0.9999996,0.9999994,0.999999464]},{"name":"thigh_R_4","children":[80],"translation":[-1.49011612E-08,0.232489869,5.21540642E-08],"rotation":[0.671383142,-7.30432248E-08,2.74619424E-07,0.741110444],"scale":[0.99999994,1,1]},{"name":"shoulder_R_4","children":[81],"translation":[0.127008662,-0.04201476,-0.0110728247],"rotation":[-0.7866854,-0.114456274,0.0450233929,0.604978263],"scale":[0.99999994,1.00000036,1.00000036]},{"name":"spine_4","translation":[1.86264515E-09,0.104024038,-5.819311E-08],"rotation":[-0.252474725,0.009340105,0.00531224161,0.96754384],"scale":[1,0.9999992,1.00000024]},{"name":"spine_001_4","children":[83],"translation":[-1.28056854E-09,0.1615149,2.307388E-09],"rotation":[0.03633093,-0.008622604,-0.01490291,0.9991915],"scale":[1,0.99999994,0.99999994]},{"name":"spine_002_4","children":[84],"translation":[4.6321702E-10,-0.1021188,-0.001991555],"rotation":[0.893468738,0.005892159,-0.00630206335,-0.449042559],"scale":[0.99999994,1.00000107,1.00000072]},{"name":"front_toe_L_2","translation":[-9.313226E-09,0.27555424,-7.4505806E-08],"rotation":[0.01962717,-0.07572803,-0.110698707,0.99077034],"scale":[1.00000024,1.00000024,0.9999999]},{"name":"front_foot_L_2","children":[86],"translation":[-1.67638063E-08,0.2863933,3.7252903E-08],"rotation":[-0.6039805,0.108792879,-0.185239,0.7675013],"scale":[1,1.0000006,0.999999762]},{"name":"front_shin_L_2","children":[87],"translation":[-3.88827175E-08,0.228625119,-1.16415322E-08],"rotation":[0.9128369,-0.05247133,0.023193283,0.404274166],"scale":[0.9999995,0.9999991,0.999999642]},{"name":"front_thigh_L_2","children":[88],"translation":[5.21540642E-08,0.3082003,-2.23517418E-08],"rotation":[-0.6128526,-1.05189478E-07,2.67541054E-07,0.790197253],"scale":[1,1.00000012,1.00000012]},{"name":"front_shoulder_L_2","children":[89],"translation":[-0.122342192,0.149751738,0.00672871573],"rotation":[0.893963754,-0.09279297,0.07954491,-0.431150615],"scale":[1.00000012,1.00000012,1.00000012]},{"name":"front_toe_R_2","translation":[-1.67638063E-08,0.27555424,-7.07805157E-08],"rotation":[0.01302071,0.0276631732,0.04458027,0.998537838],"scale":[1.00000024,1.00000012,0.9999997]},{"name":"front_foot_R_2","children":[91],"translation":[-3.16649675E-08,0.286393523,3.7252903E-08],"rotation":[-0.5074654,-0.004662282,0.07111842,0.8587196],"scale":[1,1.00000036,1]},{"name":"front_shin_R_2","children":[92],"translation":[-1.49011612E-08,0.228625238,-5.58793545E-08],"rotation":[0.615412652,0.004445268,-0.0016761031,0.7881908],"scale":[0.999999642,0.9999997,0.999999]},{"name":"front_thigh_R_2","children":[93],"translation":[-2.42143869E-08,0.308200151,-3.35276127E-08],"rotation":[-0.7060109,-0.2614125,-0.00437042164,0.658174038],"scale":[0.99999994,1.00000012,1.00000012]},{"name":"front_shoulder_R_2","children":[94],"translation":[0.122342154,0.147009611,-0.007825664],"rotation":[-0.6541736,-0.0103219822,-0.181634784,0.73413837],"scale":[0.99999994,1.00000012,1.00000036]},{"name":"ear_L_2","translation":[-0.116737567,-0.0860308,0.0830651447],"rotation":[0.8012983,-0.499587357,-0.0127196833,0.328894883],"scale":[0.999999762,0.9999992,0.9999994]},{"name":"ear_R_2","translation":[0.116737552,-0.08603089,0.0830652],"rotation":[0.807893,0.139036745,-0.393158078,0.416418582],"scale":[0.999999762,0.9999993,0.99999994]},{"name":"scull_4","children":[96,97],"translation":[-5.506706E-13,0.142775059,-6.703268E-08],"rotation":[-0.4751991,-1.08634026E-07,-2.41414455E-07,0.8798783],"scale":[1,0.9999995,0.9999995]},{"name":"spine_008_2","children":[98],"translation":[9.663381E-13,0.162050456,8.937832E-08],"rotation":[-0.249775782,-2.87041019E-07,5.09511437E-07,0.96830374],"scale":[1,1.00000048,1.00000036]},{"name":"spine_007_4","children":[99],"translation":[7.95807864E-13,0.2120914,4.46917952E-08],"rotation":[0.2944211,-1.64321739E-06,8.462293E-07,0.9556758],"scale":[1,0.99999994,0.9999997]},{"name":"spine_006_4","children":[100],"translation":[1.47266519E-08,0.223202839,-0.0632900745],"rotation":[0.245859548,-9.259604E-07,3.70546672E-07,0.969305456],"scale":[1.00000012,1,1]},{"name":"spine_005_4","children":[90,95,101],"translation":[-5.400125E-13,0.193845361,-5.57909274E-09],"rotation":[0.220946983,-9.440524E-07,-1.93698526E-07,0.9752858],"scale":[0.9999999,1.00000036,1.00000024]},{"name":"spine_004_4","children":[102],"translation":[3.410605E-13,0.177584246,1.11834266E-08],"rotation":[0.0347266048,7.1951646E-12,8.075525E-09,0.999396861],"scale":[1,1.00000024,1.00000024]},{"name":"spine_003_4","children":[77,82,85,103],"translation":[-1.88400475E-06,0.905101061,0.266487062],"rotation":[-0.617436469,1.15362513E-06,3.58005468E-06,0.7866208],"scale":[1,0.9999998,0.9999998]},{"name":"Root_4","children":[104],"rotation":[4.37113954E-08,-1,6.556712E-08,-4.37113918E-08]},{"name":"Deer_001_rig","children":[105]},{"name":"Deer_001_1","children":[72,106]},{"name":"Deer_001","children":[107],"translation":[3.59924316,2.02678347,10.8781185],"rotation":[-8.555578E-17,-0.8078667,-8.555578E-17,0.5893653],"scale":[1.66666663,4.76190472,1.66666663]},{"name":"Horse_001_2","mesh":3,"translation":[-5.91351246E-10,6.565317E-26,6.56531769E-26],"skin":3},{"name":"toe_L_end_2","translation":[0,0.3440623,0]},{"name":"toe_L_2","children":[110],"translation":[-1.67987309E-07,0.344063342,4.95812856E-07],"rotation":[0.119794153,0.0122098923,-0.007777292,0.9926932],"scale":[0.9999998,0.9999996,0.9999997]},{"name":"foot_L_2","children":[111],"translation":[-1.67638063E-08,0.34658286,-1.823355E-08],"rotation":[0.404337227,0.01169246,0.0291686375,0.914069951],"scale":[0.9999994,1.00000083,1.00000024]},{"name":"shin_L_2","children":[112],"translation":[2.6600901E-08,0.417802721,1.08106178E-07],"rotation":[-0.6104726,-0.0200651623,-0.0306111854,0.7911912],"scale":[1.00000024,1.00000024,1.00000012]},{"name":"thigh_L_2","children":[113],"translation":[-9.313226E-09,0.396014273,1.38534233E-07],"rotation":[0.752332747,-0.02276303,-0.02245082,0.658007],"scale":[0.9999997,0.9999996,1.0000006]},{"name":"shoulder_L_2","children":[114],"translation":[-0.111278675,-0.04367783,-0.00565372],"rotation":[0.9018991,-0.0269631222,-0.01722405,-0.4307603],"scale":[0.9999999,0.9999999,0.9999998]},{"name":"toe_R_end_2","translation":[0,0.3440631,0]},{"name":"toe_R_2","children":[116],"translation":[3.33238859E-09,0.344063252,4.51109372E-10],"rotation":[0.2912814,0.009602234,-0.0102905631,0.9565339],"scale":[0.9999998,0.9999999,0.999999642]},{"name":"foot_R_2","children":[117],"translation":[-2.04890966E-08,0.3465826,-2.29629222E-08],"rotation":[0.351285368,-0.0107563967,-0.02802435,0.935787141],"scale":[0.9999994,1.0000006,1.00000048]},{"name":"shin_R_2","children":[118],"translation":[-3.3294782E-08,0.4178033,7.06386345E-08],"rotation":[-0.592440665,0.0179582033,0.02315236,0.805081069],"scale":[1.00000012,1.00000012,1.00000036]},{"name":"thigh_R_2","children":[119],"translation":[2.04890966E-08,0.396014243,-4.23460733E-08],"rotation":[0.6437054,0.0168981627,0.0193412881,0.7648423],"scale":[0.9999995,1.00000036,0.9999997]},{"name":"shoulder_R_2","children":[120],"translation":[0.111278616,-0.0436778143,-0.0056534973],"rotation":[0.9142118,0.02360211,0.009698545,-0.4044326],"scale":[1.00000024,0.9999997,1.00000036]},{"name":"spine_end_end","translation":[0,0.190382645,0]},{"name":"spine_end_2","children":[122],"translation":[2.23517418E-08,0.190382376,-3.7252903E-09],"rotation":[1.41655221E-07,5.70443026E-09,1.45585444E-09,1],"scale":[1.00000024,1.00000024,1.00000024]},{"name":"spine_2","children":[123],"translation":[-2.23517418E-08,0.177457839,-1.06054358E-07],"rotation":[-0.130379677,2.249721E-07,6.90416044E-08,0.9914642],"scale":[0.9999999,1.00000012,1.00000012]},{"name":"spine_001_2","children":[124],"translation":[3.7252903E-09,0.19701606,-4.51691449E-08],"rotation":[-0.111612454,0.005571745,-0.0414694361,0.992870569],"scale":[0.99999994,1,0.999999642]},{"name":"spine_002_2","children":[125],"translation":[-1.86264515E-08,0.220390961,5.47152E-09],"rotation":[0.163492218,0.00748131424,-0.03976062,0.9857147],"scale":[1,1.00000024,0.9999999]},{"name":"spine_003_2","children":[126],"translation":[1.05092113E-08,0.295204818,-4.76138666E-08],"rotation":[0.428581417,0.01807053,-0.0177825913,0.9031474],"scale":[1,0.999999762,1.00000012]},{"name":"spine_004_2","children":[127],"translation":[1.111998E-08,-0.146595716,-0.0112793446],"rotation":[0.9608779,0.0348978043,-0.000327952672,-0.274764836],"scale":[1,1.00000072,1.00000036]},{"name":"front_toe_L_end","translation":[0,0.319112957,0]},{"name":"front_toe_L","children":[129],"translation":[2.537854E-08,0.319112957,5.548354E-07],"rotation":[0.5905967,-0.0144005409,-0.00687213754,0.8068091],"scale":[0.999999762,0.9999996,0.9999995]},{"name":"front_foot_L","children":[130],"translation":[-3.7252903E-09,0.326742232,-1.36438757E-07],"rotation":[-0.3449141,-0.009249665,0.022396991,0.9383214],"scale":[1.00000072,1.00000012,1.00000036]},{"name":"front_shin_L","children":[131],"translation":[3.7252903E-09,0.275387019,-3.3294782E-08],"rotation":[0.424597472,0.0105167227,-0.0167616848,0.905166],"scale":[0.9999995,1.00000036,0.9999992]},{"name":"front_thigh_L","children":[132],"translation":[7.916242E-09,0.3547474,1.58324838E-08],"rotation":[-0.541932344,0.0132382512,-0.0142597845,0.8401969],"scale":[0.999999464,0.999999762,1.00000036]},{"name":"front_shoulder_L","children":[133],"translation":[-0.134266824,0.271121442,-0.0152398106],"rotation":[-0.5830836,0.009423098,0.0179399289,0.8121594],"scale":[0.9200005,0.920000136,0.9199992]},{"name":"front_toe_R_end","translation":[0,0.319113553,0]},{"name":"front_toe_R","children":[135],"translation":[-6.00004569E-06,0.3191051,3.549643E-05],"rotation":[0.420280427,-0.08056924,0.0151534695,0.903683245],"scale":[1,0.9999998,0.99999994]},{"name":"front_foot_R","children":[136],"translation":[-5.122274E-09,0.326742232,-3.60421836E-07],"rotation":[-0.438366145,0.06843683,-0.0202194,0.8959591],"scale":[1.00000024,1.00000048,0.9999992]},{"name":"front_shin_R","children":[137],"translation":[1.21071935E-08,0.2753868,9.778887E-09],"rotation":[0.464291841,-0.0111971358,-0.00182097813,0.8856096],"scale":[0.9999999,1,0.999999166]},{"name":"front_thigh_R","children":[138],"translation":[-4.656613E-09,0.3547474,-1.34110451E-07],"rotation":[-0.324691385,-0.001528018,0.00695070345,0.9457933],"scale":[0.9999993,0.9999997,1.00000048]},{"name":"front_shoulder_R","children":[139],"translation":[0.134266809,0.2711215,-0.0152394064],"rotation":[-0.5722882,0.00719421543,-0.007480531,0.8199869],"scale":[0.850000262,0.850000739,0.8499994]},{"name":"ear_L_end_end","translation":[0,0.0911970139,0]},{"name":"ear_L_end","children":[141],"translation":[-6.33299351E-08,0.0911969244,-6.650589E-08],"rotation":[-4.411297E-07,2.08272141E-07,6.86840963E-07,1],"scale":[0.9999994,0.9999997,0.999999]},{"name":"ear_L","children":[142],"translation":[-0.0648794845,0.05176582,0.111130916],"rotation":[0.6750393,-0.137946337,0.176915392,0.7028468],"scale":[1.00000036,1.00000024,1.00000119]},{"name":"ear_R_end_end","translation":[0,0.0911975652,0]},{"name":"ear_R_end","children":[144],"translation":[-1.04308128E-07,0.09119709,5.16884029E-08],"rotation":[7.581915E-08,6.52046239E-09,4.69135379E-08,1],"scale":[1,0.999999762,0.9999998]},{"name":"ear_R","children":[145],"translation":[0.06487911,0.051766146,0.111130618],"rotation":[0.669613838,0.135443613,-0.14507933,0.7156985],"scale":[0.99999994,0.999999464,1.00000083]},{"name":"scull_2","children":[143,146],"translation":[-9.313226E-09,0.205616012,1.25437509E-07],"rotation":[-0.260614038,-1.44095921E-07,-2.26815317E-07,0.9654431],"scale":[0.999999762,0.9999992,0.9999989]},{"name":"spine_010","children":[147],"translation":[1.11758709E-08,0.193894953,-7.246854E-09],"rotation":[-0.105761163,7.960885E-08,-1.0583296E-07,0.994391561],"scale":[1,1.00000072,1.00000072]},{"name":"spine_009","children":[148],"translation":[2.80920176E-10,0.2068819,-1.451408E-07],"rotation":[-0.154578269,-0.0172883365,-0.0196080767,0.987634659],"scale":[0.9999998,0.999999762,0.9999997]},{"name":"spine_008","children":[149],"translation":[4.641379E-08,0.4044299,-0.03919055],"rotation":[-0.304561555,-1.16313075E-08,-3.21583741E-07,0.9524927],"scale":[1,0.99999994,1.00000024]},{"name":"spine_007_2","children":[134,140,150],"translation":[-1.02375E-09,0.257660538,-5.027323E-08],"rotation":[0.0320777223,-1.08995675E-08,2.75081273E-08,0.999485433],"scale":[0.99999994,0.999999642,0.9999997]},{"name":"spine_006_2","children":[151],"translation":[1.08579812E-13,0.247108012,-1.871958E-07],"rotation":[0.06611005,0.00263801,-0.0128209228,0.9977265],"scale":[1,1.00000048,1.00000048]},{"name":"spine_005_2","children":[115,121,128,152],"translation":[2.00009751E-08,1.29573572,0.2236507],"rotation":[-0.7955694,2.77963977E-07,-4.00480985E-07,0.605862439],"scale":[1,0.999999464,0.9999994]},{"name":"Root_2","children":[153],"rotation":[6.299033E-15,-1,6.556708E-08,-4.371139E-08]},{"name":"Horse_001_rig","children":[154],"translation":[0,-6.565317E-26,-6.56531769E-26]},{"name":"Horse_001_1","children":[109,155]},{"name":"Horse_001","children":[156],"translation":[7.283337,2.026779,-2.1833322],"scale":[1.66666663,4.76190472,1.66666663]},{"name":"Horse_001_4","mesh":4,"translation":[-5.91351246E-10,6.565317E-26,6.56531769E-26],"skin":4},{"name":"toe_L_end_3","translation":[0,0.3440623,0]},{"name":"toe_L_3","children":[159],"translation":[-1.67987309E-07,0.344063342,4.95812856E-07],"rotation":[0.119794138,0.0122098941,-0.00777729042,0.9926932],"scale":[0.9999998,0.9999996,0.9999997]},{"name":"foot_L_3","children":[160],"translation":[-1.67638063E-08,0.34658286,-1.823355E-08],"rotation":[0.404337227,0.0116924746,0.02916863,0.914069951],"scale":[0.9999994,1.00000083,1.00000024]},{"name":"shin_L_3","children":[161],"translation":[2.6600901E-08,0.417802721,1.08106178E-07],"rotation":[-0.6104726,-0.0200651754,-0.0306111742,0.7911912],"scale":[1.00000024,1.00000024,1.00000012]},{"name":"thigh_L_3","children":[162],"translation":[-9.313226E-09,0.396014273,1.38534233E-07],"rotation":[0.752332747,-0.02276303,-0.0224508215,0.658007],"scale":[0.9999997,0.9999996,1.0000006]},{"name":"shoulder_L_3","children":[163],"translation":[-0.111278675,-0.04367783,-0.00565372],"rotation":[0.9018991,-0.02696312,-0.01722405,-0.4307603],"scale":[0.9999999,0.9999999,0.9999998]},{"name":"toe_R_end_3","translation":[0,0.3440631,0]},{"name":"toe_R_3","children":[165],"translation":[3.33238859E-09,0.344063252,4.51109372E-10],"rotation":[0.2912814,0.009602228,-0.0102905659,0.9565339],"scale":[0.9999998,0.9999999,0.999999642]},{"name":"foot_R_3","children":[166],"translation":[-2.04890966E-08,0.3465826,-2.29629222E-08],"rotation":[0.351285368,-0.0107563939,-0.0280243549,0.935787141],"scale":[0.9999994,1.0000006,1.00000048]},{"name":"shin_R_3","children":[167],"translation":[-3.3294782E-08,0.4178033,7.06386345E-08],"rotation":[-0.592440665,0.0179582033,0.02315236,0.805081069],"scale":[1.00000012,1.00000012,1.00000036]},{"name":"thigh_R_3","children":[168],"translation":[2.04890966E-08,0.396014243,-4.23460733E-08],"rotation":[0.6437054,0.0168981627,0.0193412881,0.7648423],"scale":[0.9999995,1.00000036,0.9999997]},{"name":"shoulder_R_3","children":[169],"translation":[0.111278616,-0.0436778143,-0.0056534973],"rotation":[0.9142118,0.02360209,0.009698537,-0.4044326],"scale":[1.00000024,0.9999997,1.00000036]},{"name":"spine_end_end_1","translation":[0,0.190382645,0]},{"name":"spine_end_3","children":[171],"translation":[2.23517418E-08,0.190382376,-3.7252903E-09],"rotation":[1.83576688E-07,-1.46683226E-08,5.821541E-09,1],"scale":[1.00000024,1.00000024,1.00000024]},{"name":"spine_3","children":[172],"translation":[-2.23517418E-08,0.177457839,-1.06054358E-07],"rotation":[-0.130379423,2.24972069E-07,6.904153E-08,0.9914642],"scale":[0.9999999,1.00000012,1.00000012]},{"name":"spine_001_3","children":[173],"translation":[3.7252903E-09,0.19701606,-4.51691449E-08],"rotation":[-0.111612469,0.00557175372,-0.0414694324,0.992870569],"scale":[0.99999994,1,0.999999642]},{"name":"spine_002_3","children":[174],"translation":[-1.86264515E-08,0.220390961,5.47152E-09],"rotation":[0.163492218,0.00748131424,-0.0397606157,0.9857147],"scale":[1,1.00000024,0.9999999]},{"name":"spine_003_3","children":[175],"translation":[1.05092113E-08,0.295204818,-4.76138666E-08],"rotation":[0.4285814,0.0180707891,-0.0177825559,0.9031474],"scale":[1,0.999999762,1.00000012]},{"name":"spine_004_3","children":[176],"translation":[1.111998E-08,-0.146595716,-0.0112793446],"rotation":[0.9608779,0.0348977968,-0.0003279528,-0.274764866],"scale":[1,1.00000072,1.00000036]},{"name":"front_toe_L_end_1","translation":[0,0.319112957,0]},{"name":"front_toe_L_1","children":[178],"translation":[2.537854E-08,0.319112957,5.548354E-07],"rotation":[0.5905967,-0.01440054,-0.006872138,0.8068091],"scale":[0.999999762,0.9999996,0.9999995]},{"name":"front_foot_L_1","children":[179],"translation":[-3.7252903E-09,0.326742232,-1.36438757E-07],"rotation":[-0.344914168,-0.009249669,0.02239699,0.9383214],"scale":[1.00000072,1.00000012,1.00000036]},{"name":"front_shin_L_1","children":[180],"translation":[3.7252903E-09,0.275387019,-3.3294782E-08],"rotation":[0.424597472,0.0105167283,-0.0167616848,0.905166],"scale":[0.9999995,1.00000036,0.9999992]},{"name":"front_thigh_L_1","children":[181],"translation":[7.916242E-09,0.3547474,1.58324838E-08],"rotation":[-0.541932344,0.0132382493,-0.0142597854,0.8401969],"scale":[0.999999464,0.999999762,1.00000036]},{"name":"front_shoulder_L_1","children":[182],"translation":[-0.134266824,0.271121442,-0.0152398106],"rotation":[-0.58308357,0.00942311,0.0179399215,0.8121594],"scale":[0.9200005,0.920000136,0.9199992]},{"name":"front_toe_R_end_1","translation":[0,0.319113553,0]},{"name":"front_toe_R_1","children":[184],"translation":[-6.00004569E-06,0.3191051,3.549643E-05],"rotation":[0.4202805,-0.08056924,0.0151534677,0.9036832],"scale":[1,0.9999998,0.99999994]},{"name":"front_foot_R_1","children":[185],"translation":[-5.122274E-09,0.326742232,-3.60421836E-07],"rotation":[-0.438366234,0.0684368461,-0.0202194024,0.8959591],"scale":[1.00000024,1.00000048,0.9999992]},{"name":"front_shin_R_1","children":[186],"translation":[1.21071935E-08,0.2753868,9.778887E-09],"rotation":[0.464291841,-0.0111971358,-0.00182097917,0.8856096],"scale":[0.9999999,1,0.999999166]},{"name":"front_thigh_R_1","children":[187],"translation":[-4.656613E-09,0.3547474,-1.34110451E-07],"rotation":[-0.324691355,-0.00152800058,0.00695067737,0.9457933],"scale":[0.9999993,0.9999997,1.00000048]},{"name":"front_shoulder_R_1","children":[188],"translation":[0.134266809,0.2711215,-0.0152394064],"rotation":[-0.5722882,0.00719422428,-0.007480536,0.8199869],"scale":[0.850000262,0.850000739,0.8499994]},{"name":"ear_L_end_end_1","translation":[0,0.0911970139,0]},{"name":"ear_L_end_1","children":[190],"translation":[-6.33299351E-08,0.0911969244,-6.650589E-08],"rotation":[-4.122556E-07,1.9539398E-07,6.84751456E-07,1],"scale":[0.9999994,0.9999997,0.999999]},{"name":"ear_L_1","children":[191],"translation":[-0.0648794845,0.05176582,0.111130916],"rotation":[0.675039232,-0.1379464,0.176915377,0.702846944],"scale":[1.00000036,1.00000024,1.00000119]},{"name":"ear_R_end_end_1","translation":[0,0.0911975652,0]},{"name":"ear_R_end_1","children":[193],"translation":[-1.04308128E-07,0.09119709,5.16884029E-08],"rotation":[-3.90224216E-07,-4.32133731E-07,2.15135557E-07,1],"scale":[1,0.999999762,0.9999998]},{"name":"ear_R_1","children":[194],"translation":[0.06487911,0.051766146,0.111130618],"rotation":[0.669613838,0.135443628,-0.145079345,0.7156985],"scale":[0.99999994,0.999999464,1.00000083]},{"name":"scull_3","children":[192,195],"translation":[-9.313226E-09,0.205616012,1.25437509E-07],"rotation":[-0.260614067,-1.44095893E-07,-2.26815331E-07,0.9654431],"scale":[0.999999762,0.9999992,0.9999989]},{"name":"spine_010_1","children":[196],"translation":[1.11758709E-08,0.193894953,-7.246854E-09],"rotation":[-0.105761163,7.960885E-08,-1.0583296E-07,0.994391561],"scale":[1,1.00000072,1.00000072]},{"name":"spine_009_1","children":[197],"translation":[2.80920176E-10,0.2068819,-1.451408E-07],"rotation":[-0.154578045,-0.0172883347,-0.0196080785,0.9876347],"scale":[0.9999998,0.999999762,0.9999997]},{"name":"spine_008_1","children":[198],"translation":[4.641379E-08,0.4044299,-0.03919055],"rotation":[-0.304561526,-1.163068E-08,-3.215843E-07,0.9524927],"scale":[1,0.99999994,1.00000024]},{"name":"spine_007_3","children":[183,189,199],"translation":[-1.02375E-09,0.257660538,-5.027323E-08],"rotation":[0.03207769,-1.08995719E-08,2.75081167E-08,0.999485433],"scale":[0.99999994,0.999999642,0.9999997]},{"name":"spine_006_3","children":[200],"translation":[1.08579812E-13,0.247108012,-1.871958E-07],"rotation":[0.06611007,0.00263800961,-0.0128209237,0.9977265],"scale":[1,1.00000048,1.00000048]},{"name":"spine_005_3","children":[164,170,177,201],"translation":[2.00009751E-08,1.29573572,0.2236507],"rotation":[-0.7955694,2.77963977E-07,-4.00480985E-07,0.605862439],"scale":[1,0.999999464,0.9999994]},{"name":"Root_3","children":[202],"rotation":[3.85654228E-15,-1,6.556708E-08,-4.37113918E-08]},{"name":"Horse_001_rig_1","children":[203],"translation":[0,-6.565317E-26,-6.56531769E-26]},{"name":"Horse_001_3","children":[158,204]},{"name":"Horse_001__1_","children":[205],"translation":[-11.9833307,1.61903715,-3.99515581],"rotation":[0,0.653869331,0,0.7566076],"scale":[2.09383345,5.982381,2.09383345]},{"name":"ANIMALS","children":[35,71,108,157,206],"mesh":5,"translation":[-0.000246047974,0.47,-0.064],"rotation":[0,-0.7071068,-0.7071068,8.659561E-17],"scale":[0.03,0.0104999989,0.03]},{"name":"ImageTargetPreview","mesh":6},{"name":"ImageTargetPreviewRoot","children":[208]},{"name":"ImageTargetPreview","mesh":7},{"name":"ImageTargetPreviewRoot","children":[210]},{"name":"ImageTargetPreview","mesh":8},{"name":"ImageTargetPreviewRoot","children":[212]},{"name":"15","children":[207,209,211,213],"translation":[-18.55,0,-0.64]}],"extensionsRequired":["KHR_materials_unlit"],"extensionsUsed":["KHR_materials_unlit"],"buffers":[{"uri":"15.bin","byteLength":877664}],"bufferViews":[{"buffer":0,"byteLength":2048},{"buffer":0,"byteLength":2048,"byteOffset":2048},{"buffer":0,"byteLength":2112,"byteOffset":4096},{"buffer":0,"byteLength":2432,"byteOffset":6208},{"buffer":0,"byteLength":2432,"byteOffset":8640},{"buffer":0,"byteLength":816,"byteOffset":11072,"target":34963},{"buffer":0,"byteLength":12,"byteOffset":11888,"target":34963},{"buffer":0,"byteLength":12,"byteOffset":11900,"target":34963},{"buffer":0,"byteLength":12,"byteOffset":11912,"target":34963},{"buffer":0,"byteLength":5856,"byteOffset":11924,"target":34963},{"buffer":0,"byteLength":5856,"byteOffset":17780,"target":34963},{"buffer":0,"byteLength":11484,"byteOffset":23636,"target":34963},{"buffer":0,"byteLength":10392,"byteOffset":35120,"target":34963},{"buffer":0,"byteLength":10392,"byteOffset":45512,"target":34963},{"buffer":0,"byteLength":128,"byteOffset":55904,"byteStride":32,"target":34962},{"buffer":0,"byteLength":128,"byteOffset":56032,"byteStride":32,"target":34962},{"buffer":0,"byteLength":128,"byteOffset":56160,"byteStride":32,"target":34962},{"buffer":0,"byteLength":9936,"byteOffset":56288,"byteStride":48,"target":34962},{"buffer":0,"byteLength":33280,"byteOffset":66224,"byteStride":40,"target":34962},{"buffer":0,"byteLength":6656,"byteOffset":99504,"byteStride":8,"target":34962},{"buffer":0,"byteLength":26624,"byteOffset":106160,"byteStride":32,"target":34962},{"buffer":0,"byteLength":33280,"byteOffset":132784,"byteStride":40,"target":34962},{"buffer":0,"byteLength":6656,"byteOffset":166064,"byteStride":8,"target":34962},{"buffer":0,"byteLength":26624,"byteOffset":172720,"byteStride":32,"target":34962},{"buffer":0,"byteLength":163480,"byteOffset":199344,"byteStride":40,"target":34962},{"buffer":0,"byteLength":32696,"byteOffset":362824,"byteStride":8,"target":34962},{"buffer":0,"byteLength":130784,"byteOffset":395520,"byteStride":32,"target":34962},{"buffer":0,"byteLength":87840,"byteOffset":526304,"byteStride":40,"target":34962},{"buffer":0,"byteLength":17568,"byteOffset":614144,"byteStride":8,"target":34962},{"buffer":0,"byteLength":70272,"byteOffset":631712,"byteStride":32,"target":34962},{"buffer":0,"byteLength":87840,"byteOffset":701984,"byteStride":40,"target":34962},{"buffer":0,"byteLength":17568,"byteOffset":789824,"byteStride":8,"target":34962},{"buffer":0,"byteLength":70272,"byteOffset":807392,"byteStride":32,"target":34962}],"accessors":[{"bufferView":18,"componentType":5126,"count":832,"type":"VEC3","max":[0.133774012,0.519948661,0.181590855],"min":[-0.133774012,-3.39746475E-06,-0.307028681]},{"bufferView":18,"componentType":5126,"count":832,"type":"VEC3","byteOffset":12},{"bufferView":18,"componentType":5126,"count":832,"type":"VEC4","byteOffset":24},{"bufferView":19,"componentType":5126,"count":832,"type":"VEC2"},{"bufferView":20,"componentType":5126,"count":832,"type":"VEC4"},{"bufferView":20,"componentType":5123,"count":832,"type":"VEC4","byteOffset":16},{"bufferView":0,"componentType":5126,"count":32,"type":"MAT4"},{"bufferView":21,"componentType":5126,"count":832,"type":"VEC3","max":[0.133774012,0.519948661,0.181590855],"min":[-0.133774012,-3.39746475E-06,-0.307028681]},{"bufferView":21,"componentType":5126,"count":832,"type":"VEC3","byteOffset":12},{"bufferView":21,"componentType":5126,"count":832,"type":"VEC4","byteOffset":24},{"bufferView":22,"componentType":5126,"count":832,"type":"VEC2"},{"bufferView":23,"componentType":5126,"count":832,"type":"VEC4"},{"bufferView":23,"componentType":5123,"count":832,"type":"VEC4","byteOffset":16},{"bufferView":1,"componentType":5126,"count":32,"type":"MAT4"},{"bufferView":24,"componentType":5126,"count":4087,"type":"VEC3","max":[0.5310465,1.967241,0.9709493],"min":[-0.5310458,-1.1920929E-07,-0.7087444]},{"bufferView":24,"componentType":5126,"count":4087,"type":"VEC3","byteOffset":12},{"bufferView":24,"componentType":5126,"count":4087,"type":"VEC4","byteOffset":24},{"bufferView":25,"componentType":5126,"count":4087,"type":"VEC2"},{"bufferView":26,"componentType":5126,"count":4087,"type":"VEC4"},{"bufferView":26,"componentType":5123,"count":4087,"type":"VEC4","byteOffset":16},{"bufferView":2,"componentType":5126,"count":33,"type":"MAT4"},{"bufferView":27,"componentType":5126,"count":2196,"type":"VEC3","max":[0.2749914,1.85567033,1.49260187],"min":[-0.274991274,-0.000378251076,-1.165812]},{"bufferView":27,"componentType":5126,"count":2196,"type":"VEC3","byteOffset":12},{"bufferView":27,"componentType":5126,"count":2196,"type":"VEC4","byteOffset":24},{"bufferView":28,"componentType":5126,"count":2196,"type":"VEC2"},{"bufferView":29,"componentType":5126,"count":2196,"type":"VEC4"},{"bufferView":29,"componentType":5123,"count":2196,"type":"VEC4","byteOffset":16},{"bufferView":3,"componentType":5126,"count":38,"type":"MAT4"},{"bufferView":30,"componentType":5126,"count":2196,"type":"VEC3","max":[0.2749914,1.85567033,1.49260187],"min":[-0.274991274,-0.000378251076,-1.165812]},{"bufferView":30,"componentType":5126,"count":2196,"type":"VEC3","byteOffset":12},{"bufferView":30,"componentType":5126,"count":2196,"type":"VEC4","byteOffset":24},{"bufferView":31,"componentType":5126,"count":2196,"type":"VEC2"},{"bufferView":32,"componentType":5126,"count":2196,"type":"VEC4"},{"bufferView":32,"componentType":5123,"count":2196,"type":"VEC4","byteOffset":16},{"bufferView":4,"componentType":5126,"count":38,"type":"MAT4"},{"bufferView":17,"componentType":5126,"count":207,"type":"VEC3","max":[18.000061,2.02678061,13.5000057],"min":[-17.999939,-2.14576721E-06,-13.4999924]},{"bufferView":17,"componentType":5126,"count":207,"type":"VEC3","byteOffset":12},{"bufferView":17,"componentType":5126,"count":207,"type":"VEC4","byteOffset":24},{"bufferView":17,"componentType":5126,"count":207,"type":"VEC2","byteOffset":40},{"bufferView":5,"componentType":5123,"count":408,"type":"SCALAR"},{"bufferView":14,"componentType":5126,"count":4,"type":"VEC3","max":[0.5,0,0.5],"min":[-0.5,0,-0.5]},{"bufferView":14,"componentType":5126,"count":4,"type":"VEC3","byteOffset":12},{"bufferView":14,"componentType":5126,"count":4,"type":"VEC2","byteOffset":24},{"bufferView":6,"componentType":5123,"count":6,"type":"SCALAR"},{"bufferView":15,"componentType":5126,"count":4,"type":"VEC3","max":[0.5,0,0.5],"min":[-0.5,0,-0.5]},{"bufferView":15,"componentType":5126,"count":4,"type":"VEC3","byteOffset":12},{"bufferView":15,"componentType":5126,"count":4,"type":"VEC2","byteOffset":24},{"bufferView":7,"componentType":5123,"count":6,"type":"SCALAR"},{"bufferView":16,"componentType":5126,"count":4,"type":"VEC3","max":[0.5,0,0.5],"min":[-0.5,0,-0.5]},{"bufferView":16,"componentType":5126,"count":4,"type":"VEC3","byteOffset":12},{"bufferView":16,"componentType":5126,"count":4,"type":"VEC2","byteOffset":24},{"bufferView":8,"componentType":5123,"count":6,"type":"SCALAR"},{"bufferView":9,"componentType":5123,"count":2928,"type":"SCALAR"},{"bufferView":10,"componentType":5123,"count":2928,"type":"SCALAR"},{"bufferView":11,"componentType":5123,"count":5742,"type":"SCALAR"},{"bufferView":12,"componentType":5123,"count":5196,"type":"SCALAR"},{"bufferView":13,"componentType":5123,"count":5196,"type":"SCALAR"}],"images":[{"name":"texture_main.png","uri":"texture_main.png","mimeType":"image/png"},{"name":"15_scaled.jpg","uri":"15_scaled.jpg","mimeType":"image/jpeg"}],"materials":[{"name":"Material","pbrMetallicRoughness":{"metallicFactor":0}},{"name":"mat_main 1","pbrMetallicRoughness":{"metallicFactor":0,"baseColorTexture":{"index":0}}},{"name":"15Material\n25554","pbrMetallicRoughness":{"metallicFactor":0,"baseColorTexture":{"index":1}},"extensions":{"KHR_materials_unlit":{}}},{"name":"15Material\n25554","pbrMetallicRoughness":{"metallicFactor":0,"baseColorTexture":{"index":1}},"extensions":{"KHR_materials_unlit":{}}},{"name":"15Material\n25554","pbrMetallicRoughness":{"metallicFactor":0,"baseColorTexture":{"index":1}},"extensions":{"KHR_materials_unlit":{}}}],"meshes":[{"name":"Chicken_001_2","primitives":[{"attributes":{"POSITION":0,"NORMAL":1,"TANGENT":2,"TEXCOORD_0":3,"JOINTS_0":5,"WEIGHTS_0":4},"indices":52,"material":0}]},{"name":"Chicken_001_4","primitives":[{"attributes":{"POSITION":7,"NORMAL":8,"TANGENT":9,"TEXCOORD_0":10,"JOINTS_0":12,"WEIGHTS_0":11},"indices":53,"material":0}]},{"name":"Deer_001_2","primitives":[{"attributes":{"POSITION":14,"NORMAL":15,"TANGENT":16,"TEXCOORD_0":17,"JOINTS_0":19,"WEIGHTS_0":18},"indices":54,"material":0}]},{"name":"Horse_001_2","primitives":[{"attributes":{"POSITION":21,"NORMAL":22,"TANGENT":23,"TEXCOORD_0":24,"JOINTS_0":26,"WEIGHTS_0":25},"indices":55,"material":0}]},{"name":"Horse_001_4","primitives":[{"attributes":{"POSITION":28,"NORMAL":29,"TANGENT":30,"TEXCOORD_0":31,"JOINTS_0":33,"WEIGHTS_0":32},"indices":56,"material":0}]},{"name":"ANIMALS","primitives":[{"attributes":{"POSITION":35,"NORMAL":36,"TANGENT":37,"TEXCOORD_0":38},"indices":39,"material":1}]},{"name":"ImageTargetMesh25554","primitives":[{"attributes":{"POSITION":40,"NORMAL":41,"TEXCOORD_0":42},"indices":43,"material":2}]},{"name":"ImageTargetMesh25554","primitives":[{"attributes":{"POSITION":44,"NORMAL":45,"TEXCOORD_0":46},"indices":47,"material":3}]},{"name":"ImageTargetMesh25554","primitives":[{"attributes":{"POSITION":48,"NORMAL":49,"TEXCOORD_0":50},"indices":51,"material":4}]}],"samplers":[{"wrapS":33071,"wrapT":33071}],"scene":0,"scenes":[{"name":"15","nodes":[214]}],"skins":[{"inverseBindMatrices":6,"joints":[32,31,20,19,18,17,16,15,14,13,12,11,10,9,8,7,6,5,4,30,29,28,27,26,3,2,1,25,24,23,22,21]},{"inverseBindMatrices":13,"joints":[68,67,56,55,54,53,52,51,50,49,48,47,46,45,44,43,42,41,40,66,65,64,63,62,39,38,37,61,60,59,58,57]},{"inverseBindMatrices":20,"joints":[105,104,82,81,80,79,78,85,84,83,103,102,95,94,93,92,91,101,100,99,98,97,96,90,89,88,87,86,77,76,75,74,73]},{"inverseBindMatrices":27,"joints":[154,153,121,120,119,118,117,128,127,126,125,124,123,152,151,140,139,138,137,136,150,149,148,147,146,145,143,142,134,133,132,131,130,115,114,113,112,111]},{"inverseBindMatrices":34,"joints":[203,202,170,169,168,167,166,177,176,175,174,173,172,201,200,189,188,187,186,185,199,198,197,196,195,194,192,191,183,182,181,180,179,164,163,162,161,160]}],"textures":[{"source":0,"sampler":0},{"source":1}]}