{"asset":{"version":"2.0","generator":"Unity 2022.3.28f1 glTFast 6.14.1"},"nodes":[{"name":"Justice_Measure_01","mesh":0,"translation":[-0.00169200869,-4.32633678E-05,0.00033937546],"rotation":[0,0,0.113777921,0.993506253],"scale":[0.0182526782,0.01958727,0.04999999]},{"name":"default","mesh":1},{"name":"model","children":[1],"translation":[0.002487145,-0.00340288971,0.00296937465],"rotation":[-0.103716485,-0.699459,-0.699459,-0.103716485],"scale":[0.00365972728,0.009999997,0.00390692335]},{"name":"LAW","children":[0,2],"mesh":2,"translation":[0,1.31,-0.359999985],"scale":[120,110.927971,43.63717]},{"name":"ImageTargetPreview","mesh":3},{"name":"ImageTargetPreviewRoot","children":[4]},{"name":"ImageTargetPreview","mesh":4},{"name":"ImageTargetPreviewRoot","children":[6]},{"name":"ImageTargetPreview","mesh":5},{"name":"ImageTargetPreviewRoot","children":[8]},{"name":"ImageTargetPreview","mesh":6},{"name":"ImageTargetPreviewRoot","children":[10]},{"name":"16","children":[3,5,7,9,11],"translation":[-26.55,0,2.21]}],"extensionsRequired":["KHR_materials_unlit"],"extensionsUsed":["KHR_materials_unlit"],"buffers":[{"uri":"16.bin","byteLength":2999508}],"bufferViews":[{"buffer":0,"byteLength":385092,"target":34963},{"buffer":0,"byteLength":10752,"byteOffset":385092,"target":34963},{"buffer":0,"byteLength":1608,"byteOffset":395844,"target":34963},{"buffer":0,"byteLength":12,"byteOffset":397452,"target":34963},{"buffer":0,"byteLength":12,"byteOffset":397464,"target":34963},{"buffer":0,"byteLength":12,"byteOffset":397476,"target":34963},{"buffer":0,"byteLength":12,"byteOffset":397488,"target":34963},{"buffer":0,"byteLength":131560,"byteOffset":397500,"byteStride":40,"target":34962},{"buffer":0,"byteLength":128,"byteOffset":529060,"byteStride":32,"target":34962},{"buffer":0,"byteLength":128,"byteOffset":529188,"byteStride":32,"target":34962},{"buffer":0,"byteLength":128,"byteOffset":529316,"byteStride":32,"target":34962},{"buffer":0,"byteLength":128,"byteOffset":529444,"byteStride":32,"target":34962},{"buffer":0,"byteLength":2456880,"byteOffset":529572,"byteStride":48,"target":34962},{"buffer":0,"byteLength":13056,"byteOffset":2986452,"byteStride":48,"target":34962}],"accessors":[{"bufferView":12,"componentType":5126,"count":51185,"type":"VEC3","max":[0.208290055,0.0594127551,0.301639259],"min":[-0.208290055,-0.0594127551,0]},{"bufferView":12,"componentType":5126,"count":51185,"type":"VEC3","byteOffset":12},{"bufferView":12,"componentType":5126,"count":51185,"type":"VEC4","byteOffset":24},{"bufferView":12,"componentType":5126,"count":51185,"type":"VEC2","byteOffset":40},{"bufferView":0,"componentType":5123,"count":23970,"type":"SCALAR"},{"bufferView":0,"componentType":5123,"count":3528,"type":"SCALAR","byteOffset":47940},{"bufferView":0,"componentType":5123,"count":130368,"type":"SCALAR","byteOffset":54996},{"bufferView":0,"componentType":5123,"count":1344,"type":"SCALAR","byteOffset":315732},{"bufferView":0,"componentType":5123,"count":29880,"type":"SCALAR","byteOffset":318420},{"bufferView":0,"componentType":5123,"count":3456,"type":"SCALAR","byteOffset":378180},{"bufferView":7,"componentType":5126,"count":3289,"type":"VEC3","max":[0.3218182,0.342651725,0.5966067],"min":[-0.2804936,-0.2608508,-0.44397217]},{"bufferView":7,"componentType":5126,"count":3289,"type":"VEC3","byteOffset":12},{"bufferView":7,"componentType":5126,"count":3289,"type":"VEC4","byteOffset":24},{"bufferView":1,"componentType":5123,"count":5376,"type":"SCALAR"},{"bufferView":13,"componentType":5126,"count":272,"type":"VEC3","max":[0.01,0.01,0.0003558332],"min":[-0.01,-0.01,0]},{"bufferView":13,"componentType":5126,"count":272,"type":"VEC3","byteOffset":12},{"bufferView":13,"componentType":5126,"count":272,"type":"VEC4","byteOffset":24},{"bufferView":13,"componentType":5126,"count":272,"type":"VEC2","byteOffset":40},{"bufferView":2,"componentType":5123,"count":804,"type":"SCALAR"},{"bufferView":8,"componentType":5126,"count":4,"type":"VEC3","max":[0.5,0,0.5],"min":[-0.5,0,-0.5]},{"bufferView":8,"componentType":5126,"count":4,"type":"VEC3","byteOffset":12},{"bufferView":8,"componentType":5126,"count":4,"type":"VEC2","byteOffset":24},{"bufferView":3,"componentType":5123,"count":6,"type":"SCALAR"},{"bufferView":9,"componentType":5126,"count":4,"type":"VEC3","max":[0.5,0,0.5],"min":[-0.5,0,-0.5]},{"bufferView":9,"componentType":5126,"count":4,"type":"VEC3","byteOffset":12},{"bufferView":9,"componentType":5126,"count":4,"type":"VEC2","byteOffset":24},{"bufferView":4,"componentType":5123,"count":6,"type":"SCALAR"},{"bufferView":10,"componentType":5126,"count":4,"type":"VEC3","max":[0.5,0,0.5],"min":[-0.5,0,-0.5]},{"bufferView":10,"componentType":5126,"count":4,"type":"VEC3","byteOffset":12},{"bufferView":10,"componentType":5126,"count":4,"type":"VEC2","byteOffset":24},{"bufferView":5,"componentType":5123,"count":6,"type":"SCALAR"},{"bufferView":11,"componentType":5126,"count":4,"type":"VEC3","max":[0.5,0,0.5],"min":[-0.5,0,-0.5]},{"bufferView":11,"componentType":5126,"count":4,"type":"VEC3","byteOffset":12},{"bufferView":11,"componentType":5126,"count":4,"type":"VEC2","byteOffset":24},{"bufferView":6,"componentType":5123,"count":6,"type":"SCALAR"}],"images":[{"name":"Justic Measure_01_Material _26_Normal.png","uri":"Justic Measure_01_Material _26_Normal.png","mimeType":"image/png"},{"name":"Justic Measure_01_Material _26_BaseColor.png","uri":"Justic Measure_01_Material _26_BaseColor.png","mimeType":"image/png"},{"name":"Justic Measure_01_Material _27_Normal.png","uri":"Justic Measure_01_Material _27_Normal.png","mimeType":"image/png"},{"name":"Justic Measure_01_Material _27_BaseColor.png","uri":"Justic Measure_01_Material _27_BaseColor.png","mimeType":"image/png"},{"name":"Justic Measure_01_Material _78_Normal.png","uri":"Justic Measure_01_Material _78_Normal.png","mimeType":"image/png"},{"name":"Justic Measure_01_Material _78_BaseColor.png","uri":"Justic Measure_01_Material _78_BaseColor.png","mimeType":"image/png"},{"name":"Justic Measure_01_Material _29_Normal.png","uri":"Justic Measure_01_Material _29_Normal.png","mimeType":"image/png"},{"name":"Justic Measure_01_Material _29_BaseColor.png","uri":"Justic Measure_01_Material _29_BaseColor.png","mimeType":"image/png"},{"name":"Justic Measure_01_Material _30_Normal.png","uri":"Justic Measure_01_Material _30_Normal.png","mimeType":"image/png"},{"name":"Justic Measure_01_Material _30_BaseColor.png","uri":"Justic Measure_01_Material _30_BaseColor.png","mimeType":"image/png"},{"name":"Justic Measure_01_Material _28_Normal.png","uri":"Justic Measure_01_Material _28_Normal.png","mimeType":"image/png"},{"name":"Justic Measure_01_Material _28_BaseColor.png","uri":"Justic Measure_01_Material _28_BaseColor.png","mimeType":"image/png"},{"name":"16_scaled.jpg","uri":"16_scaled.jpg","mimeType":"image/jpeg"}],"materials":[{"name":"Material__26","pbrMetallicRoughness":{"metallicFactor":0,"baseColorTexture":{"index":1}},"normalTexture":{"index":0,"scale":0.3}},{"name":"Material__27","pbrMetallicRoughness":{"metallicFactor":0,"baseColorTexture":{"index":3}},"normalTexture":{"index":2,"scale":0.3}},{"name":"Material__78","pbrMetallicRoughness":{"metallicFactor":0,"baseColorTexture":{"index":5}},"normalTexture":{"index":4,"scale":0.3}},{"name":"Material__29","pbrMetallicRoughness":{"metallicFactor":0,"baseColorTexture":{"index":7}},"normalTexture":{"index":6,"scale":0.3}},{"name":"Material__30","pbrMetallicRoughness":{"metallicFactor":0,"baseColorTexture":{"index":9}},"normalTexture":{"index":8,"scale":0.3}},{"name":"Material__28","pbrMetallicRoughness":{"metallicFactor":0,"baseColorTexture":{"index":11}},"normalTexture":{"index":10,"scale":0.3}},{"name":"Material_002_1","pbrMetallicRoughness":{"baseColorFactor":[0.15792647,0.04620259,0.0128089152,1],"metallicFactor":0}},{"name":"TRASH_FLOOR 1","pbrMetallicRoughness":{"baseColorFactor":[0.673177958,0.335124254,0.0572402,1],"metallicFactor":0}},{"name":"16Material\n25642","pbrMetallicRoughness":{"metallicFactor":0,"baseColorTexture":{"index":12}},"extensions":{"KHR_materials_unlit":{}}},{"name":"16Material\n25642","pbrMetallicRoughness":{"metallicFactor":0,"baseColorTexture":{"index":12}},"extensions":{"KHR_materials_unlit":{}}},{"name":"16Material\n25642","pbrMetallicRoughness":{"metallicFactor":0,"baseColorTexture":{"index":12}},"extensions":{"KHR_materials_unlit":{}}},{"name":"16Material\n25642","pbrMetallicRoughness":{"metallicFactor":0,"baseColorTexture":{"index":12}},"extensions":{"KHR_materials_unlit":{}}}],"meshes":[{"name":"Justice_Measure_01","primitives":[{"attributes":{"POSITION":0,"NORMAL":1,"TANGENT":2,"TEXCOORD_0":3},"indices":4,"material":0},{"attributes":{"POSITION":0,"NORMAL":1,"TANGENT":2,"TEXCOORD_0":3},"indices":5,"material":1},{"attributes":{"POSITION":0,"NORMAL":1,"TANGENT":2,"TEXCOORD_0":3},"indices":6,"material":2},{"attributes":{"POSITION":0,"NORMAL":1,"TANGENT":2,"TEXCOORD_0":3},"indices":7,"material":3},{"attributes":{"POSITION":0,"NORMAL":1,"TANGENT":2,"TEXCOORD_0":3},"indices":8,"material":4},{"attributes":{"POSITION":0,"NORMAL":1,"TANGENT":2,"TEXCOORD_0":3},"indices":9,"material":5}]},{"name":"default","primitives":[{"attributes":{"POSITION":10,"NORMAL":11,"TANGENT":12},"indices":13,"material":6}]},{"name":"LAW","primitives":[{"attributes":{"POSITION":14,"NORMAL":15,"TANGENT":16,"TEXCOORD_0":17},"indices":18,"material":7}]},{"name":"ImageTargetMesh25642","primitives":[{"attributes":{"POSITION":19,"NORMAL":20,"TEXCOORD_0":21},"indices":22,"material":8}]},{"name":"ImageTargetMesh25642","primitives":[{"attributes":{"POSITION":23,"NORMAL":24,"TEXCOORD_0":25},"indices":26,"material":9}]},{"name":"ImageTargetMesh25642","primitives":[{"attributes":{"POSITION":27,"NORMAL":28,"TEXCOORD_0":29},"indices":30,"material":10}]},{"name":"ImageTargetMesh25642","primitives":[{"attributes":{"POSITION":31,"NORMAL":32,"TEXCOORD_0":33},"indices":34,"material":11}]}],"samplers":[{"wrapS":33071,"wrapT":33071}],"scene":0,"scenes":[{"name":"16","nodes":[12]}],"textures":[{"source":0,"sampler":0},{"source":1,"sampler":0},{"source":2,"sampler":0},{"source":3,"sampler":0},{"source":4,"sampler":0},{"source":5,"sampler":0},{"source":6,"sampler":0},{"source":7,"sampler":0},{"source":8,"sampler":0},{"source":9,"sampler":0},{"source":10,"sampler":0},{"source":11,"sampler":0},{"source":12}]}