{"asset":{"version":"2.0","generator":"Unity 2022.3.28f1 glTFast 6.14.1"},"nodes":[{"name":"hospital_floor","mesh":0},{"name":"HOSPITAL","children":[0],"mesh":1,"translation":[0,0.75,-0.445],"rotation":[8.71576458E-33,-0.7071068,-0.7071068,8.659561E-17],"scale":[0.06,0.06,0.06]},{"name":"ImageTargetPreview","mesh":2},{"name":"ImageTargetPreviewRoot","children":[2]},{"name":"ImageTargetPreview","mesh":3},{"name":"ImageTargetPreviewRoot","children":[4]},{"name":"ImageTargetPreview","mesh":4},{"name":"ImageTargetPreviewRoot","children":[6]},{"name":"03","children":[1,3,5,7],"translation":[1.78,0,-2.29]}],"extensionsRequired":["KHR_materials_unlit"],"extensionsUsed":["KHR_materials_unlit"],"buffers":[{"uri":"03.bin","byteLength":691332}],"bufferViews":[{"buffer":0,"byteLength":1296,"target":34963},{"buffer":0,"byteLength":51600,"byteOffset":1296,"target":34963},{"buffer":0,"byteLength":12,"byteOffset":52896,"target":34963},{"buffer":0,"byteLength":12,"byteOffset":52908,"target":34963},{"buffer":0,"byteLength":12,"byteOffset":52920,"target":34963},{"buffer":0,"byteLength":128,"byteOffset":52932,"byteStride":32,"target":34962},{"buffer":0,"byteLength":128,"byteOffset":53060,"byteStride":32,"target":34962},{"buffer":0,"byteLength":128,"byteOffset":53188,"byteStride":32,"target":34962},{"buffer":0,"byteLength":10944,"byteOffset":53316,"byteStride":48,"target":34962},{"buffer":0,"byteLength":627072,"byteOffset":64260,"byteStride":48,"target":34962}],"accessors":[{"bufferView":8,"componentType":5126,"count":228,"type":"VEC3","max":[12.8487873,0.5443992,10.0503807],"min":[-12.8487873,-0.0161320567,-10.0503807]},{"bufferView":8,"componentType":5126,"count":228,"type":"VEC3","byteOffset":12},{"bufferView":8,"componentType":5126,"count":228,"type":"VEC4","byteOffset":24},{"bufferView":8,"componentType":5126,"count":228,"type":"VEC2","byteOffset":40},{"bufferView":0,"componentType":5123,"count":36,"type":"SCALAR"},{"bufferView":0,"componentType":5123,"count":612,"type":"SCALAR","byteOffset":72},{"bufferView":9,"componentType":5126,"count":13064,"type":"VEC3","max":[8.813807,15.966877,7.000681],"min":[-8.813807,0.198579311,-7.03879261]},{"bufferView":9,"componentType":5126,"count":13064,"type":"VEC3","byteOffset":12},{"bufferView":9,"componentType":5126,"count":13064,"type":"VEC4","byteOffset":24},{"bufferView":9,"componentType":5126,"count":13064,"type":"VEC2","byteOffset":40},{"bufferView":1,"componentType":5123,"count":23268,"type":"SCALAR"},{"bufferView":1,"componentType":5123,"count":2460,"type":"SCALAR","byteOffset":46536},{"bufferView":1,"componentType":5123,"count":72,"type":"SCALAR","byteOffset":51456},{"bufferView":5,"componentType":5126,"count":4,"type":"VEC3","max":[0.5,0,0.5],"min":[-0.5,0,-0.5]},{"bufferView":5,"componentType":5126,"count":4,"type":"VEC3","byteOffset":12},{"bufferView":5,"componentType":5126,"count":4,"type":"VEC2","byteOffset":24},{"bufferView":2,"componentType":5123,"count":6,"type":"SCALAR"},{"bufferView":6,"componentType":5126,"count":4,"type":"VEC3","max":[0.5,0,0.5],"min":[-0.5,0,-0.5]},{"bufferView":6,"componentType":5126,"count":4,"type":"VEC3","byteOffset":12},{"bufferView":6,"componentType":5126,"count":4,"type":"VEC2","byteOffset":24},{"bufferView":3,"componentType":5123,"count":6,"type":"SCALAR"},{"bufferView":7,"componentType":5126,"count":4,"type":"VEC3","max":[0.5,0,0.5],"min":[-0.5,0,-0.5]},{"bufferView":7,"componentType":5126,"count":4,"type":"VEC3","byteOffset":12},{"bufferView":7,"componentType":5126,"count":4,"type":"VEC2","byteOffset":24},{"bufferView":4,"componentType":5123,"count":6,"type":"SCALAR"}],"images":[{"name":"color-palette-2 2.png","uri":"color-palette-2 2.png","mimeType":"image/png"},{"name":"03_scaled.jpg","uri":"03_scaled.jpg","mimeType":"image/jpeg"}],"materials":[{"name":"hospital_grass_mat","pbrMetallicRoughness":{"baseColorFactor":[0.09606898,0.8,0.04177213,1],"metallicFactor":0}},{"name":"main_color_palette_mat_007","pbrMetallicRoughness":{"metallicFactor":0,"baseColorTexture":{"index":0}}},{"name":"hospital_window_mat","pbrMetallicRoughness":{"baseColorFactor":[0.0933176056,0.100477152,0.100477211,1],"metallicFactor":0}},{"name":"cross","pbrMetallicRoughness":{"baseColorFactor":[0.8,0.06257807,0.0735176,1],"metallicFactor":0}},{"name":"03Material\n25578","pbrMetallicRoughness":{"metallicFactor":0,"baseColorTexture":{"index":1}},"extensions":{"KHR_materials_unlit":{}}},{"name":"03Material\n25578","pbrMetallicRoughness":{"metallicFactor":0,"baseColorTexture":{"index":1}},"extensions":{"KHR_materials_unlit":{}}},{"name":"03Material\n25578","pbrMetallicRoughness":{"metallicFactor":0,"baseColorTexture":{"index":1}},"extensions":{"KHR_materials_unlit":{}}}],"meshes":[{"name":"hospital_floor","primitives":[{"attributes":{"POSITION":0,"NORMAL":1,"TANGENT":2,"TEXCOORD_0":3},"indices":4,"material":0},{"attributes":{"POSITION":0,"NORMAL":1,"TANGENT":2,"TEXCOORD_0":3},"indices":5,"material":1}]},{"name":"HOSPITAL","primitives":[{"attributes":{"POSITION":6,"NORMAL":7,"TANGENT":8,"TEXCOORD_0":9},"indices":10,"material":1},{"attributes":{"POSITION":6,"NORMAL":7,"TANGENT":8,"TEXCOORD_0":9},"indices":11,"material":2},{"attributes":{"POSITION":6,"NORMAL":7,"TANGENT":8,"TEXCOORD_0":9},"indices":12,"material":3}]},{"name":"ImageTargetMesh25578","primitives":[{"attributes":{"POSITION":13,"NORMAL":14,"TEXCOORD_0":15},"indices":16,"material":4}]},{"name":"ImageTargetMesh25578","primitives":[{"attributes":{"POSITION":17,"NORMAL":18,"TEXCOORD_0":19},"indices":20,"material":5}]},{"name":"ImageTargetMesh25578","primitives":[{"attributes":{"POSITION":21,"NORMAL":22,"TEXCOORD_0":23},"indices":24,"material":6}]}],"samplers":[{"wrapS":33071,"wrapT":33071}],"scene":0,"scenes":[{"name":"03","nodes":[8]}],"textures":[{"source":0,"sampler":0},{"source":1}]}