{"asset":{"version":"2.0","generator":"Unity 2022.3.28f1 glTFast 6.14.1"},"nodes":[{"name":"FishV1","mesh":0,"translation":[0.123976134,-0.2736744,-0.146210864],"rotation":[0,-0.09457193,0,0.995518],"scale":[0.2,0.2,0.2]},{"name":"FishV1__1_","mesh":0,"translation":[-0.0919998139,0.19550775,-0.122718416],"scale":[0.2,0.2,0.2]},{"name":"FishV2","mesh":1,"translation":[0.03088989,-0.3572408,-0.0517089777],"rotation":[0,0,0.09557217,0.9954225],"scale":[0.200000018,0.200000018,0.2]},{"name":"FishV2__1_","mesh":1,"translation":[-0.05171814,-0.192553237,-0.262401968],"rotation":[0.04245631,-0.156117573,0.08654703,0.9830231],"scale":[0.2,0.2,0.199999988]},{"name":"FishV3","mesh":2,"translation":[0.261599749,0.154364347,0.0350139625],"scale":[0.2,0.2,0.2]},{"name":"FishV3__1_","mesh":2,"translation":[0.1722229,0.08662472,-0.0192050934],"rotation":[0.00550892949,0.09696598,0.05645335,0.9936701],"scale":[0.138128,0.138127983,0.138128]},{"name":"FishV3__2_","mesh":2,"translation":[0.2653992,0.0872783139,-0.0463996865],"rotation":[-0.00704146363,-0.16755788,-0.04139193,0.984967768],"scale":[0.27424,0.27424,0.274240017]},{"name":"SharkV1","mesh":3,"translation":[0.0112487795,0.04169831,0.28077966],"scale":[0.120000005,0.120000005,0.120000005]},{"name":"WATER","children":[0,1,2,3,4,5,6,7],"mesh":4,"translation":[0.02,0.51,-0.04],"rotation":[0.00154636824,-0.7069798,-0.70722276,-0.00361793581]},{"name":"ImageTargetPreview","mesh":5},{"name":"ImageTargetPreviewRoot","children":[9]},{"name":"ImageTargetPreview","mesh":6},{"name":"ImageTargetPreviewRoot","children":[11]},{"name":"ImageTargetPreview","mesh":7},{"name":"ImageTargetPreviewRoot","children":[13]},{"name":"14","children":[8,10,12,14],"translation":[-19.33,0,5.77]}],"extensionsRequired":["KHR_materials_unlit"],"extensionsUsed":["KHR_materials_unlit"],"buffers":[{"uri":"14.bin","byteLength":309468}],"bufferViews":[{"buffer":0,"byteLength":2988,"target":34963},{"buffer":0,"byteLength":3348,"byteOffset":2988,"target":34963},{"buffer":0,"byteLength":3300,"byteOffset":6336,"target":34963},{"buffer":0,"byteLength":8940,"byteOffset":9636,"target":34963},{"buffer":0,"byteLength":72,"byteOffset":18576,"target":34963},{"buffer":0,"byteLength":12,"byteOffset":18648,"target":34963},{"buffer":0,"byteLength":12,"byteOffset":18660,"target":34963},{"buffer":0,"byteLength":12,"byteOffset":18672,"target":34963},{"buffer":0,"byteLength":128,"byteOffset":18684,"byteStride":32,"target":34962},{"buffer":0,"byteLength":128,"byteOffset":18812,"byteStride":32,"target":34962},{"buffer":0,"byteLength":128,"byteOffset":18940,"byteStride":32,"target":34962},{"buffer":0,"byteLength":44448,"byteOffset":19068,"byteStride":48,"target":34962},{"buffer":0,"byteLength":53472,"byteOffset":63516,"byteStride":48,"target":34962},{"buffer":0,"byteLength":54144,"byteOffset":116988,"byteStride":48,"target":34962},{"buffer":0,"byteLength":137184,"byteOffset":171132,"byteStride":48,"target":34962},{"buffer":0,"byteLength":1152,"byteOffset":308316,"byteStride":48,"target":34962}],"accessors":[{"bufferView":11,"componentType":5126,"count":926,"type":"VEC3","max":[0.379642785,0.132372946,0.03610907],"min":[-0.39098388,-0.176686734,-0.03610907]},{"bufferView":11,"componentType":5126,"count":926,"type":"VEC3","byteOffset":12},{"bufferView":11,"componentType":5126,"count":926,"type":"VEC4","byteOffset":24},{"bufferView":11,"componentType":5126,"count":926,"type":"VEC2","byteOffset":40},{"bufferView":0,"componentType":5123,"count":1494,"type":"SCALAR"},{"bufferView":12,"componentType":5126,"count":1114,"type":"VEC3","max":[0.3945757,0.145879745,0.06917792],"min":[-0.4485605,-0.199005961,-0.06917792]},{"bufferView":12,"componentType":5126,"count":1114,"type":"VEC3","byteOffset":12},{"bufferView":12,"componentType":5126,"count":1114,"type":"VEC4","byteOffset":24},{"bufferView":12,"componentType":5126,"count":1114,"type":"VEC2","byteOffset":40},{"bufferView":1,"componentType":5123,"count":1674,"type":"SCALAR"},{"bufferView":13,"componentType":5126,"count":1128,"type":"VEC3","max":[0.384040534,0.0401667543,0.03990911],"min":[-0.483912528,-0.118536577,-0.03990911]},{"bufferView":13,"componentType":5126,"count":1128,"type":"VEC3","byteOffset":12},{"bufferView":13,"componentType":5126,"count":1128,"type":"VEC4","byteOffset":24},{"bufferView":13,"componentType":5126,"count":1128,"type":"VEC2","byteOffset":40},{"bufferView":2,"componentType":5123,"count":1650,"type":"SCALAR"},{"bufferView":14,"componentType":5126,"count":2858,"type":"VEC3","max":[2.95537281,1.23111415,1.20171928],"min":[-2.9137,-0.6394031,-1.20171928]},{"bufferView":14,"componentType":5126,"count":2858,"type":"VEC3","byteOffset":12},{"bufferView":14,"componentType":5126,"count":2858,"type":"VEC4","byteOffset":24},{"bufferView":14,"componentType":5126,"count":2858,"type":"VEC2","byteOffset":40},{"bufferView":3,"componentType":5123,"count":4470,"type":"SCALAR"},{"bufferView":15,"componentType":5126,"count":24,"type":"VEC3","max":[0.5,0.5,0.5],"min":[-0.5,-0.5,-0.5]},{"bufferView":15,"componentType":5126,"count":24,"type":"VEC3","byteOffset":12},{"bufferView":15,"componentType":5126,"count":24,"type":"VEC4","byteOffset":24},{"bufferView":15,"componentType":5126,"count":24,"type":"VEC2","byteOffset":40},{"bufferView":4,"componentType":5123,"count":36,"type":"SCALAR"},{"bufferView":8,"componentType":5126,"count":4,"type":"VEC3","max":[0.5,0,0.5],"min":[-0.5,0,-0.5]},{"bufferView":8,"componentType":5126,"count":4,"type":"VEC3","byteOffset":12},{"bufferView":8,"componentType":5126,"count":4,"type":"VEC2","byteOffset":24},{"bufferView":5,"componentType":5123,"count":6,"type":"SCALAR"},{"bufferView":9,"componentType":5126,"count":4,"type":"VEC3","max":[0.5,0,0.5],"min":[-0.5,0,-0.5]},{"bufferView":9,"componentType":5126,"count":4,"type":"VEC3","byteOffset":12},{"bufferView":9,"componentType":5126,"count":4,"type":"VEC2","byteOffset":24},{"bufferView":6,"componentType":5123,"count":6,"type":"SCALAR"},{"bufferView":10,"componentType":5126,"count":4,"type":"VEC3","max":[0.5,0,0.5],"min":[-0.5,0,-0.5]},{"bufferView":10,"componentType":5126,"count":4,"type":"VEC3","byteOffset":12},{"bufferView":10,"componentType":5126,"count":4,"type":"VEC2","byteOffset":24},{"bufferView":7,"componentType":5123,"count":6,"type":"SCALAR"}],"images":[{"name":"PolyPackFish.png","uri":"PolyPackFish.png","mimeType":"image/png"},{"name":"14_scaled.jpg","uri":"14_scaled.jpg","mimeType":"image/jpeg"}],"materials":[{"name":"Main","pbrMetallicRoughness":{"metallicFactor":0,"baseColorTexture":{"index":0}}},{"name":"WATER_MAT","pbrMetallicRoughness":{"baseColorFactor":[0.06295131,0.410465539,1,0.427450985],"metallicFactor":0,"roughnessFactor":0.5},"alphaMode":"BLEND"},{"name":"14Material\n25666","pbrMetallicRoughness":{"metallicFactor":0,"baseColorTexture":{"index":1}},"extensions":{"KHR_materials_unlit":{}}},{"name":"14Material\n25666","pbrMetallicRoughness":{"metallicFactor":0,"baseColorTexture":{"index":1}},"extensions":{"KHR_materials_unlit":{}}},{"name":"14Material\n25666","pbrMetallicRoughness":{"metallicFactor":0,"baseColorTexture":{"index":1}},"extensions":{"KHR_materials_unlit":{}}}],"meshes":[{"name":"FishV1","primitives":[{"attributes":{"POSITION":0,"NORMAL":1,"TANGENT":2,"TEXCOORD_0":3},"indices":4,"material":0}]},{"name":"FishV2","primitives":[{"attributes":{"POSITION":5,"NORMAL":6,"TANGENT":7,"TEXCOORD_0":8},"indices":9,"material":0}]},{"name":"FishV3","primitives":[{"attributes":{"POSITION":10,"NORMAL":11,"TANGENT":12,"TEXCOORD_0":13},"indices":14,"material":0}]},{"name":"SharkV1","primitives":[{"attributes":{"POSITION":15,"NORMAL":16,"TANGENT":17,"TEXCOORD_0":18},"indices":19,"material":0}]},{"name":"WATER","primitives":[{"attributes":{"POSITION":20,"NORMAL":21,"TANGENT":22,"TEXCOORD_0":23},"indices":24,"material":1}]},{"name":"ImageTargetMesh25666","primitives":[{"attributes":{"POSITION":25,"NORMAL":26,"TEXCOORD_0":27},"indices":28,"material":2}]},{"name":"ImageTargetMesh25666","primitives":[{"attributes":{"POSITION":29,"NORMAL":30,"TEXCOORD_0":31},"indices":32,"material":3}]},{"name":"ImageTargetMesh25666","primitives":[{"attributes":{"POSITION":33,"NORMAL":34,"TEXCOORD_0":35},"indices":36,"material":4}]}],"samplers":[{"wrapS":33071,"wrapT":33071}],"scene":0,"scenes":[{"name":"14","nodes":[15]}],"textures":[{"source":0,"sampler":0},{"source":1}]}